<svg viewBox="0 0 330.0000305175781 200.00001525878906" xmlns="http://www.w3.org/2000/svg"><g><g><g><g><g><line x1="51.5625" y1="177" x2="46.5625" y2="177" style="visibility: inherit;" fill="rgb(0, 0, 0)" stroke="rgb(204, 204, 204)" stroke-width="1px"></line><line x1="51.5625" y1="160.9090909090909" x2="46.5625" y2="160.9090909090909" style="visibility: inherit;" fill="rgb(0, 0, 0)" stroke="rgb(204, 204, 204)" stroke-width="1px"></line><line x1="51.5625" y1="144.8181818181818" x2="46.5625" y2="144.8181818181818" style="visibility: inherit;" fill="rgb(0, 0, 0)" stroke="rgb(204, 204, 204)" stroke-width="1px"></line><line x1="51.5625" y1="128.72727272727272" x2="46.5625" y2="128.72727272727272" style="visibility: inherit;" fill="rgb(0, 0, 0)" stroke="rgb(204, 204, 204)" stroke-width="1px"></line><line x1="51.5625" y1="112.63636363636364" x2="46.5625" y2="112.63636363636364" style="visibility: inherit;" fill="rgb(0, 0, 0)" stroke="rgb(204, 204, 204)" stroke-width="1px"></line><line x1="51.5625" y1="96.54545454545453" x2="46.5625" y2="96.54545454545453" style="visibility: inherit;" fill="rgb(0, 0, 0)" stroke="rgb(204, 204, 204)" stroke-width="1px"></line><line x1="51.5625" y1="80.45454545454547" x2="46.5625" y2="80.45454545454547" style="visibility: inherit;" fill="rgb(0, 0, 0)" stroke="rgb(204, 204, 204)" stroke-width="1px"></line><line x1="51.5625" y1="64.36363636363639" x2="46.5625" y2="64.36363636363639" style="visibility: inherit;" fill="rgb(0, 0, 0)" stroke="rgb(204, 204, 204)" stroke-width="1px"></line><line x1="51.5625" y1="48.27272727272729" x2="46.5625" y2="48.27272727272729" style="visibility: inherit;" fill="rgb(0, 0, 0)" stroke="rgb(204, 204, 204)" stroke-width="1px"></line><line x1="51.5625" y1="32.181818181818194" x2="46.5625" y2="32.181818181818194" style="visibility: inherit;" fill="rgb(0, 0, 0)" stroke="rgb(204, 204, 204)" stroke-width="1px"></line><line x1="51.5625" y1="16.090909090909097" x2="46.5625" y2="16.090909090909097" style="visibility: inherit;" fill="rgb(0, 0, 0)" stroke="rgb(204, 204, 204)" stroke-width="1px"></line><line x1="51.5625" y1="0" x2="46.5625" y2="0" style="visibility: inherit;" fill="rgb(0, 0, 0)" stroke="rgb(204, 204, 204)" stroke-width="1px"></line></g><g transform="translate(41.5625, 0)"><text x="0" y="177" dx="0em" dy="0.3em" style="text-anchor: end; visibility: hidden; font-family: Roboto, sans-serif; font-size: 12px; font-weight: 200;" fill="rgb(255, 255, 255)" stroke="none" stroke-width="1px">-0.1</text><text x="0" y="160.9090909090909" dx="0em" dy="0.3em" style="text-anchor: end; visibility: inherit; font-family: Roboto, sans-serif; font-size: 12px; font-weight: 200;" fill="rgb(255, 255, 255)" stroke="none" stroke-width="1px">0</text><text x="0" y="144.8181818181818" dx="0em" dy="0.3em" style="text-anchor: end; visibility: hidden; font-family: Roboto, sans-serif; font-size: 12px; font-weight: 200;" fill="rgb(255, 255, 255)" stroke="none" stroke-width="1px">0.1</text><text x="0" y="128.72727272727272" dx="0em" dy="0.3em" style="text-anchor: end; visibility: inherit; font-family: Roboto, sans-serif; font-size: 12px; font-weight: 200;" fill="rgb(255, 255, 255)" stroke="none" stroke-width="1px">0.2</text><text x="0" y="112.63636363636364" dx="0em" dy="0.3em" style="text-anchor: end; visibility: hidden; font-family: Roboto, sans-serif; font-size: 12px; font-weight: 200;" fill="rgb(255, 255, 255)" stroke="none" stroke-width="1px">0.3</text><text x="0" y="96.54545454545453" dx="0em" dy="0.3em" style="text-anchor: end; visibility: inherit; font-family: Roboto, sans-serif; font-size: 12px; font-weight: 200;" fill="rgb(255, 255, 255)" stroke="none" stroke-width="1px">0.4</text><text x="0" y="80.45454545454547" dx="0em" dy="0.3em" style="text-anchor: end; visibility: hidden; font-family: Roboto, sans-serif; font-size: 12px; font-weight: 200;" fill="rgb(255, 255, 255)" stroke="none" stroke-width="1px">0.5</text><text x="0" y="64.36363636363639" dx="0em" dy="0.3em" style="text-anchor: end; visibility: inherit; font-family: Roboto, sans-serif; font-size: 12px; font-weight: 200;" fill="rgb(255, 255, 255)" stroke="none" stroke-width="1px">0.6</text><text x="0" y="48.27272727272729" dx="0em" dy="0.3em" style="text-anchor: end; visibility: hidden; font-family: Roboto, sans-serif; font-size: 12px; font-weight: 200;" fill="rgb(255, 255, 255)" stroke="none" stroke-width="1px">0.7</text><text x="0" y="32.181818181818194" dx="0em" dy="0.3em" style="text-anchor: end; visibility: inherit; font-family: Roboto, sans-serif; font-size: 12px; font-weight: 200;" fill="rgb(255, 255, 255)" stroke="none" stroke-width="1px">0.8</text><text x="0" y="16.090909090909097" dx="0em" dy="0.3em" style="text-anchor: end; visibility: hidden; font-family: Roboto, sans-serif; font-size: 12px; font-weight: 200;" fill="rgb(255, 255, 255)" stroke="none" stroke-width="1px">0.9</text><text x="0" y="0" dx="0em" dy="0.3em" style="text-anchor: end; visibility: hidden; font-family: Roboto, sans-serif; font-size: 12px; font-weight: 200;" fill="rgb(255, 255, 255)" stroke="none" stroke-width="1px">1</text></g><line x1="51.5625" y1="0" x2="51.5625" y2="177" fill="rgb(0, 0, 0)" stroke="rgb(204, 204, 204)" stroke-width="1px"></line></g></g><g transform="translate(51, 0)" clip-path="url(#clip_0)"><clipPath id="clip_0"><rect width="278" height="176"></rect></clipPath><g><g><g><line x1="0" y1="0" x2="0" y2="177" fill="rgb(0, 0, 0)" stroke="rgb(189, 189, 189)" stroke-width="1px" opacity="0.25"></line><line x1="23.203125" y1="0" x2="23.203125" y2="177" fill="rgb(0, 0, 0)" stroke="rgb(189, 189, 189)" stroke-width="1px" opacity="0.25"></line><line x1="46.40625" y1="0" x2="46.40625" y2="177" fill="rgb(0, 0, 0)" stroke="rgb(189, 189, 189)" stroke-width="1px" opacity="0.25"></line><line x1="69.609375" y1="0" x2="69.609375" y2="177" fill="rgb(0, 0, 0)" stroke="rgb(189, 189, 189)" stroke-width="1px" opacity="0.25"></line><line x1="92.8125" y1="0" x2="92.8125" y2="177" fill="rgb(0, 0, 0)" stroke="rgb(189, 189, 189)" stroke-width="1px" opacity="0.25"></line><line x1="116.015625" y1="0" x2="116.015625" y2="177" fill="rgb(0, 0, 0)" stroke="rgb(189, 189, 189)" stroke-width="1px" opacity="0.25"></line><line x1="139.21875" y1="0" x2="139.21875" y2="177" fill="rgb(0, 0, 0)" stroke="rgb(189, 189, 189)" stroke-width="1px" opacity="0.25"></line><line x1="162.421875" y1="0" x2="162.421875" y2="177" fill="rgb(0, 0, 0)" stroke="rgb(189, 189, 189)" stroke-width="1px" opacity="0.25"></line><line x1="185.625" y1="0" x2="185.625" y2="177" fill="rgb(0, 0, 0)" stroke="rgb(189, 189, 189)" stroke-width="1px" opacity="0.25"></line><line x1="208.828125" y1="0" x2="208.828125" y2="177" fill="rgb(0, 0, 0)" stroke="rgb(189, 189, 189)" stroke-width="1px" opacity="0.25"></line><line x1="232.03125" y1="0" x2="232.03125" y2="177" fill="rgb(0, 0, 0)" stroke="rgb(189, 189, 189)" stroke-width="1px" opacity="0.25"></line><line x1="255.234375" y1="0" x2="255.234375" y2="177" fill="rgb(0, 0, 0)" stroke="rgb(189, 189, 189)" stroke-width="1px" opacity="0.25"></line><line x1="278.4375" y1="0" x2="278.4375" y2="177" fill="rgb(0, 0, 0)" stroke="rgb(189, 189, 189)" stroke-width="1px" opacity="0.25"></line></g><g><line x1="0" y1="177" x2="278.4375" y2="177" fill="rgb(0, 0, 0)" stroke="rgb(189, 189, 189)" stroke-width="1px" opacity="0.25"></line><line x1="0" y1="160.9090909090909" x2="278.4375" y2="160.9090909090909" fill="rgb(0, 0, 0)" stroke="rgb(189, 189, 189)" stroke-width="1px" opacity="0.25"></line><line x1="0" y1="144.8181818181818" x2="278.4375" y2="144.8181818181818" fill="rgb(0, 0, 0)" stroke="rgb(189, 189, 189)" stroke-width="1px" opacity="0.25"></line><line x1="0" y1="128.72727272727272" x2="278.4375" y2="128.72727272727272" fill="rgb(0, 0, 0)" stroke="rgb(189, 189, 189)" stroke-width="1px" opacity="0.25"></line><line x1="0" y1="112.63636363636364" x2="278.4375" y2="112.63636363636364" fill="rgb(0, 0, 0)" stroke="rgb(189, 189, 189)" stroke-width="1px" opacity="0.25"></line><line x1="0" y1="96.54545454545453" x2="278.4375" y2="96.54545454545453" fill="rgb(0, 0, 0)" stroke="rgb(189, 189, 189)" stroke-width="1px" opacity="0.25"></line><line x1="0" y1="80.45454545454547" x2="278.4375" y2="80.45454545454547" fill="rgb(0, 0, 0)" stroke="rgb(189, 189, 189)" stroke-width="1px" opacity="0.25"></line><line x1="0" y1="64.36363636363639" x2="278.4375" y2="64.36363636363639" fill="rgb(0, 0, 0)" stroke="rgb(189, 189, 189)" stroke-width="1px" opacity="0.25"></line><line x1="0" y1="48.27272727272729" x2="278.4375" y2="48.27272727272729" fill="rgb(0, 0, 0)" stroke="rgb(189, 189, 189)" stroke-width="1px" opacity="0.25"></line><line x1="0" y1="32.181818181818194" x2="278.4375" y2="32.181818181818194" fill="rgb(0, 0, 0)" stroke="rgb(189, 189, 189)" stroke-width="1px" opacity="0.25"></line><line x1="0" y1="16.090909090909097" x2="278.4375" y2="16.090909090909097" fill="rgb(0, 0, 0)" stroke="rgb(189, 189, 189)" stroke-width="1px" opacity="0.25"></line><line x1="0" y1="0" x2="278.4375" y2="0" fill="rgb(0, 0, 0)" stroke="rgb(189, 189, 189)" stroke-width="1px" opacity="0.25"></line></g></g></g><g><g><line x1="0" y1="160.9090909090909" x2="278.4375" y2="160.9090909090909" fill="rgb(0, 0, 0)" stroke="rgb(153, 153, 153)" stroke-width="1.5px"></line></g></g><g><g><line x1="23.203125" y1="0" x2="23.203125" y2="177" fill="rgb(0, 0, 0)" stroke="rgb(153, 153, 153)" stroke-width="1.5px"></line></g></g><g><g><g><g><g><path stroke="rgb(0, 119, 187)" stroke-width="2px" d="M23.203125,153.87635085054418L25.523437499999996,153.87635085054418L27.84375,153.11417842363326L30.1640625,153.841890941628L32.484375,153.85683712002677L34.8046875,153.85207121342447L37.125,154.20005643219065L39.4453125,154.40250658966733L41.765625,154.1899017268424L44.0859375,154.39424899098523L46.40625,154.18633543053247L48.7265625,154.06207110214214L51.04687499999999,153.98768584920015L53.36718750000001,153.94311692367182L55.6875,153.91639793155187L58.0078125,153.9003745787849L60.328125,153.89076346064738L62.6484375,153.884997831049L64.96875,154.2100908536053L67.2890625,154.07658997137708L69.609375,153.99649256595112L71.92968750000001,153.94843524724973L74.25,153.9196012608568L76.5703125,153.9023010147566L78.890625,153.89192091956073L81.2109375,153.88569288133021L83.53125,154.21048840633912L85.8515625,154.40536550859233L88.171875,154.5222916933535L90.4921875,154.59244737663764L92.8125,154.78777387404588L95.1328125,154.73377908894963L97.453125,154.7193397977962L99.7734375,154.71067622354542L102.09374999999999,154.77477374271564L104.4140625,154.57842808139253L106.73437500000001,154.35716860693375L109.0546875,154.46982322280542L111.375,153.98534700009083L113.6953125,154.04629734142895L116.015625,153.40013653087107L118.3359375,138.28518700442459L120.65625,117.17609661222097L122.9765625,95.61333109276542L125.296875,81.04629951168901L127.6171875,73.77681503030993L129.9375,60.65203427280098L132.2578125,48.04362409143761L134.578125,38.321071603557485L136.8984375,30.375157135404557L139.21875,24.506516072637748L141.5390625,21.16137485873571L143.85937500000003,19.036620938173062L146.1796875,17.892166859306016L148.5,17.075096138518457L150.8203125,16.35194374486588L153.140625,15.688932682715963L155.4609375,15.424543543407749L157.78125,15.143936458568305L160.1015625,15.021190503334225L162.421875,14.810672697698385L164.7421875,14.578424446692694L167.0625,14.210113161369721L169.38281249999997,14.030988877968902L171.703125,13.948692415276792L174.0234375,14.034220547855739L176.34375,13.754301260015614L178.66406250000003,13.821097270527437L180.984375,13.4771540714756L183.3046875,13.370974998517537L185.625,13.051653945948871L187.9453125,12.959902887429346L190.265625,12.72699038840103L192.5859375,12.40620450931489L194.90625,12.127410782648571L197.2265625,12.140037360300157L199.546875,12.125442914941349L201.8671875,12.07852202223447L204.18749999999997,11.641753702398749L206.5078125,12.040868351643871L208.828125,12.136480875862818L211.1484375,11.754794833258323L213.46875000000003,11.813683720564347L215.7890625,11.528538071756499L218.109375,10.873818486392175L220.4296875,11.059914403831762L222.75,11.47828987026399L225.0703125,11.422528179464559L227.390625,11.694469369094815L229.7109375,11.896538728099188L232.03125,11.601246288138768L234.3515625,11.357229720348636L236.671875,10.529230804808579L238.99218749999997,10.823621732930924L241.3125,10.98947608537817L243.6328125,10.884594486377885L245.953125,11.773043504002134L248.27343750000003,11.750905532027737L250.59375,11.319239562329383L252.9140625,11.270292839209816L23.203125,68.64124804864181L25.523437499999996,103.063821174301L27.84375,123.3789625400072L30.1640625,135.577917864222L32.484375,143.2258230636491L34.8046875,147.8145661833054L37.125,150.56781205509915L39.4453125,152.2197595781754L41.765625,153.21092809202116L44.0859375,153.8056292003286L46.40625,154.1624498653131L48.7265625,154.13278256446063L51.04687499999999,156.84330590231275L53.36718750000001,155.98505588650355L55.6875,155.47010587701806L58.0078125,154.8326038664285L60.328125,154.77863466497303L62.6484375,154.74625314409974L64.96875,154.72682423157576L67.2890625,154.71516688406138L69.609375,154.96082032926319L71.92968750000001,154.9236349638385L74.25,154.83325332341903L76.5703125,154.4504923342691L78.890625,154.55195729656268L81.2109375,154.61024672305354L83.53125,154.645220378948L85.8515625,154.66620457248473L88.171875,154.67879508860676L90.4921875,154.68634939828L92.8125,154.36234997918567L95.1328125,154.16795032772907L97.453125,154.05131053685514L99.7734375,153.9788656298968L102.09374999999999,153.93785971815578L104.4140625,153.91325617111113L106.73437500000001,154.2270260477826L109.0546875,154.08675596888725L111.375,154.29047429346738L113.6953125,154.45335692119636L116.015625,154.0308121567273L118.3359375,153.96902763425408L120.65625,153.93195692077012L122.9765625,154.23824649757802L125.296875,153.9003425098404L127.6171875,153.89074584612192L129.9375,154.21610940367435L132.2578125,154.1023123549196L134.578125,154.34045975806768L136.8984375,154.48334819995654L139.21875,154.57167081597512L141.5390625,154.28367232501168L143.85937500000003,154.47365947875988L146.1796875,154.56326803237187L148.5,154.61703316453904L150.8203125,154.64929224383934L153.140625,154.66864769141952L155.4609375,154.3517289550694L157.78125,154.1615777132593L160.1015625,154.04748696817327L162.421875,152.71193386265747L164.7421875,153.4396939129397L167.0625,153.09944679335254L169.38281249999997,151.38443177122986L171.703125,148.37129496280187L174.0234375,150.15447856224785L176.34375,151.62524784213267L178.66406250000003,150.53471404621035L180.984375,148.5672598488761L183.3046875,147.65776656694825L185.625,146.90701413366133L187.9453125,143.729888834922L190.265625,134.98392305710388L192.5859375,120.78522143652397L194.90625,101.26142584020114L197.2265625,88.92230328108849L199.546875,75.23183754251535L201.8671875,61.52623321946508L204.18749999999997,50.16962530921619L206.5078125,43.0286482409011L208.828125,37.897355587856765L211.1484375,31.820655017947338L213.46875000000003,28.595607413400693L215.7890625,25.600585518590133L218.109375,22.97142116380967L220.4296875,20.929614159023547L222.75,23.33679131909467L225.0703125,21.031262969259142L227.390625,19.637530210241465L229.7109375,18.134191555807426L232.03125,16.896202767617247L234.3515625,15.849242765903153L236.671875,15.263297544349122L238.99218749999997,16.603754468978437L241.3125,16.97513627954131L243.6328125,15.502994974865594L245.953125,14.613157669227492L248.27343750000003,14.029800618493205L250.59375,13.726440504076253L252.9140625,14.279396522245836L23.203125,70.1181782535652L25.523437499999996,103.62144729235679L27.84375,126.53650473905043L30.1640625,137.8035647394315L32.484375,144.56121118877482L34.8046875,148.61579905838082L37.125,150.72001977524616L39.4453125,151.98255220536538L41.765625,153.06860366833516L44.0859375,156.20479856463746L46.40625,155.6019514838984L48.7265625,155.24024323545495L51.04687499999999,155.0232182863889L53.36718750000001,154.89300331694926L55.6875,154.81487433528548L58.0078125,154.7679969462872L60.328125,154.41133850799L62.6484375,154.52587544990993L64.96875,154.59459761506187L67.2890625,154.63583091415305L69.609375,154.3320388887095L71.92968750000001,154.47829567834162L74.25,154.5660497521209L76.5703125,154.61870219638845L78.890625,154.650293662949L81.2109375,154.66924854288533L83.53125,154.68062147084711L85.8515625,154.68744522762418L88.171875,154.69153948169043L90.4921875,154.69399603413018L92.8125,154.3669379606958L95.1328125,154.4992351215334L97.453125,154.57861341803596L99.7734375,154.6262403959375L102.09374999999999,154.65481658267842L104.4140625,154.67196229472296L106.73437500000001,154.35371771705147L109.0546875,154.4913029753468L111.375,154.573854130324L113.6953125,154.62338482331032L116.015625,154.6531032391021L118.3359375,154.34240228367895L120.65625,154.4845137153233L122.9765625,154.24124856941165L125.296875,154.4238214867629L127.6171875,154.20483323227543L129.9375,154.40197228448116L132.2578125,154.52025571580464L134.578125,154.5912257745987L136.8984375,154.63380780987515L139.21875,154.77549287346184L141.5390625,154.74695762007832L143.85937500000003,154.43298426140623L146.1796875,154.4362953470848L148.5,154.19708283697327L150.8203125,153.70996149101165L153.140625,153.63807600812555L155.4609375,150.49002357387587L157.78125,146.5318143848422L160.1015625,140.81509743128186L162.421875,136.84760789109015L164.7421875,132.49322420920035L167.0625,126.29098541748314" style="fill: none;" fill="none"></path></g></g></g></g><g opacity="0.2"><g><g><g><path stroke="rgb(0, 119, 187)" stroke-width="2px" d="M23.203125,153.87635085054418L25.523437499999996,153.87635085054418L27.84375,152.3824928937988L30.1640625,154.6976808627898L32.484375,153.87635085054418L34.8046875,153.84547824886712L37.125,154.6976808627898L39.4453125,154.6976808627898L41.765625,153.87635085054418L44.0859375,154.6976808627898L46.40625,153.87635085054418L48.7265625,153.87635085054418L51.04687499999999,153.87635085054418L53.36718750000001,153.87635085054418L55.6875,153.87635085054418L58.0078125,153.87635085054418L60.328125,153.87635085054418L62.6484375,153.87635085054418L64.96875,154.6976808627898L67.2890625,153.87635085054418L69.609375,153.87635085054418L71.92968750000001,153.87635085054418L74.25,153.87635085054418L76.5703125,153.87635085054418L78.890625,153.87635085054418L81.2109375,153.87635085054418L83.53125,154.6976808627898L85.8515625,154.6976808627898L88.171875,154.6976808627898L90.4921875,154.6976808627898L92.8125,155.08076355538586L95.1328125,154.65278692204845L97.453125,154.6976808627898L99.7734375,154.6976808627898L102.09374999999999,154.8709200187163L104.4140625,154.2839095944708L106.73437500000001,154.02527939866889L109.0546875,154.63880514556712L111.375,153.25863266871735L113.6953125,154.1377228532325L116.015625,152.43089531632987L118.3359375,115.6127627329393L120.65625,85.51246103915302L122.9765625,63.269182822921074L125.296875,59.195752143859885L127.6171875,62.872588309374734L129.9375,40.96486313776537L132.2578125,29.13100882010027L134.578125,23.737242872064776L136.8984375,18.456285433335744L139.21875,15.703554478558633L141.5390625,16.143663037907015L143.85937500000003,15.849490057338366L146.1796875,16.17548574100843L148.5,15.849490057338366L150.8203125,15.267215154387731L153.140625,14.694416089491403L155.4609375,15.027959834445605L157.78125,14.723025831309226L160.1015625,14.837071570483115L162.421875,14.494895989244625L164.7421875,14.230052070184195L167.0625,13.65764623338525L169.38281249999997,13.762302452867672L171.703125,13.825247721238577L174.0234375,14.162512746724222L176.34375,13.334422328255396L178.66406250000003,13.921291286295101L180.984375,12.961239272897885L183.3046875,13.211706389080396L185.625,12.572672367095947L187.9453125,12.822276299650008L190.265625,12.377621639858594L192.5859375,11.92502569068562L194.90625,11.709220192649145L197.2265625,12.158977226777518L199.546875,12.103551246903162L201.8671875,12.008140683174133L204.18749999999997,10.986601222645154L206.5078125,12.639540325511584L208.828125,12.279899662191207L211.1484375,11.182265769351611L213.46875000000003,11.902017051523373L215.7890625,11.100819598544726L218.109375,9.891739108345728L220.4296875,11.33905827999115L222.75,12.105853069912305L225.0703125,11.338885643265467L227.390625,12.10238115354017L229.7109375,12.199642766605725L232.03125,11.158307628198111L234.3515625,10.99120486866344L236.671875,9.287232431498435L238.99218749999997,11.265208125114441L241.3125,11.23825761404905L243.6328125,10.727272087877438L245.953125,13.105717030438516L248.27343750000003,11.717698574066162L250.59375,10.671740607781851L252.9140625,11.196872754530466L23.203125,154.6976808627898L25.523437499999996,154.6976808627898L27.84375,153.85167458856648L30.1640625,153.87635085054418L32.484375,154.6976808627898L34.8046875,154.6976808627898L37.125,154.6976808627898L39.4453125,154.6976808627898L41.765625,154.6976808627898L44.0859375,154.6976808627898L46.40625,154.6976808627898L48.7265625,154.08828161318195L51.04687499999999,160.9090909090909L53.36718750000001,154.6976808627898L55.6875,154.6976808627898L58.0078125,153.87635085054418L60.328125,154.6976808627898L62.6484375,154.6976808627898L64.96875,154.6976808627898L67.2890625,154.6976808627898L69.609375,155.3293004970659L71.92968750000001,154.8678569157015L74.25,154.6976808627898L76.5703125,153.87635085054418L78.890625,154.70415474000302L81.2109375,154.6976808627898L83.53125,154.6976808627898L85.8515625,154.6976808627898L88.171875,154.6976808627898L90.4921875,154.6976808627898L92.8125,153.87635085054418L95.1328125,153.87635085054418L97.453125,153.87635085054418L99.7734375,153.87019826945934L102.09374999999999,153.87635085054418L104.4140625,153.87635085054418L106.73437500000001,154.6976808627898L109.0546875,153.87635085054418L111.375,154.59605178033763L113.6953125,154.6976808627898L116.015625,153.39699501002377L118.3359375,153.87635085054418L120.65625,153.87635085054418L122.9765625,154.6976808627898L125.296875,153.39348652823404L127.6171875,153.87635085054418L129.9375,154.70415474000302L132.2578125,153.93161678178743L134.578125,154.6976808627898L136.8984375,154.6976808627898L139.21875,154.70415474000302L141.5390625,153.85167458856648L143.85937500000003,154.75864020938224L146.1796875,154.6976808627898L148.5,154.6976808627898L150.8203125,154.6976808627898L153.140625,154.6976808627898L155.4609375,153.87635085054418L157.78125,153.87635085054418L160.1015625,153.87635085054418L162.421875,150.70860420438376L164.7421875,154.5313339883631L167.0625,152.5890761139718L169.38281249999997,148.81190923804587L171.703125,143.85158975015986L174.0234375,152.8292539614168L176.34375,153.8314017619599L178.66406250000003,148.8989133523269L180.984375,145.61607855287465L183.3046875,146.2935266440565L185.625,145.7808854837309L187.9453125,138.9642008868131L190.265625,121.86497439037672L192.5859375,99.48716900565408L194.90625,71.97573244571687L197.2265625,70.41361944241959L199.546875,54.69613893465563L201.8671875,40.967826734889655L204.18749999999997,33.13471344384281L206.5078125,32.31718263842845L208.828125,30.20041660829025L211.1484375,22.705604163083187L213.46875000000003,23.75803600658072L215.7890625,21.10805267637427L218.109375,19.027674631638966L220.4296875,17.866903651844392L222.75,26.94755705920135L225.0703125,17.572970444505877L227.390625,17.546931071714933L229.7109375,15.87918357415632L232.03125,15.03921958533201L234.3515625,14.278802763332019L236.671875,14.384379712018106L238.99218749999997,18.61443985592237L241.3125,17.53220899538561L243.6328125,13.294783017852087L245.953125,13.27840171077035L248.27343750000003,13.154765042391684L250.59375,13.271400332450867L252.9140625,15.108830549500208L23.203125,153.87635085054418L25.523437499999996,153.87635085054418L27.84375,160.9090909090909L30.1640625,154.70415474000302L32.484375,154.6976808627898L34.8046875,154.6976808627898L37.125,153.87635085054418L39.4453125,153.87635085054418L41.765625,154.6976808627898L44.0859375,160.9090909090909L46.40625,154.6976808627898L48.7265625,154.6976808627898L51.04687499999999,154.6976808627898L53.36718750000001,154.6976808627898L55.6875,154.6976808627898L58.0078125,154.6976808627898L60.328125,153.87635085054418L62.6484375,154.6976808627898L64.96875,154.6976808627898L67.2890625,154.6976808627898L69.609375,153.87635085054418L71.92968750000001,154.6976808627898L74.25,154.6976808627898L76.5703125,154.6976808627898L78.890625,154.6976808627898L81.2109375,154.6976808627898L83.53125,154.6976808627898L85.8515625,154.6976808627898L88.171875,154.6976808627898L90.4921875,154.6976808627898L92.8125,153.87635085054418L95.1328125,154.6976808627898L97.453125,154.6976808627898L99.7734375,154.6976808627898L102.09374999999999,154.6976808627898L104.4140625,154.6976808627898L106.73437500000001,153.87635085054418L109.0546875,154.6976808627898L111.375,154.6976808627898L113.6953125,154.6976808627898L116.015625,154.6976808627898L118.3359375,153.87635085054418L120.65625,154.6976808627898L122.9765625,153.87635085054418L125.296875,154.6976808627898L127.6171875,153.87635085054418L129.9375,154.6976808627898L132.2578125,154.6976808627898L134.578125,154.6976808627898L136.8984375,154.6976808627898L139.21875,154.9880204688419L141.5390625,154.70415474000302L143.85937500000003,153.9620242233981L146.1796875,154.44126197560266L148.5,153.83826407180592L150.8203125,152.9792794720693L153.140625,153.53024778379634L155.4609375,145.76794492250139L157.78125,140.59450060129166L160.1015625,132.24002200094137L162.421875,130.8963735808026L164.7421875,125.96164868636566L167.0625,116.98762722990729" style="fill: none;" fill="none"></path></g></g></g></g></g></g><g transform="translate(51, 177)" clip-path="url(#clip_1)"><clipPath id="clip_1"><rect width="278" height="22"></rect></clipPath><g><g><line x1="0" y1="0" x2="0" y2="5" style="visibility: inherit;" fill="rgb(0, 0, 0)" stroke="rgb(204, 204, 204)" stroke-width="1px"></line><line x1="23.203125" y1="0" x2="23.203125" y2="5" style="visibility: inherit;" fill="rgb(0, 0, 0)" stroke="rgb(204, 204, 204)" stroke-width="1px"></line><line x1="46.40625" y1="0" x2="46.40625" y2="5" style="visibility: inherit;" fill="rgb(0, 0, 0)" stroke="rgb(204, 204, 204)" stroke-width="1px"></line><line x1="69.609375" y1="0" x2="69.609375" y2="5" style="visibility: inherit;" fill="rgb(0, 0, 0)" stroke="rgb(204, 204, 204)" stroke-width="1px"></line><line x1="92.8125" y1="0" x2="92.8125" y2="5" style="visibility: inherit;" fill="rgb(0, 0, 0)" stroke="rgb(204, 204, 204)" stroke-width="1px"></line><line x1="116.015625" y1="0" x2="116.015625" y2="5" style="visibility: inherit;" fill="rgb(0, 0, 0)" stroke="rgb(204, 204, 204)" stroke-width="1px"></line><line x1="139.21875" y1="0" x2="139.21875" y2="5" style="visibility: inherit;" fill="rgb(0, 0, 0)" stroke="rgb(204, 204, 204)" stroke-width="1px"></line><line x1="162.421875" y1="0" x2="162.421875" y2="5" style="visibility: inherit;" fill="rgb(0, 0, 0)" stroke="rgb(204, 204, 204)" stroke-width="1px"></line><line x1="185.625" y1="0" x2="185.625" y2="5" style="visibility: inherit;" fill="rgb(0, 0, 0)" stroke="rgb(204, 204, 204)" stroke-width="1px"></line><line x1="208.828125" y1="0" x2="208.828125" y2="5" style="visibility: inherit;" fill="rgb(0, 0, 0)" stroke="rgb(204, 204, 204)" stroke-width="1px"></line><line x1="232.03125" y1="0" x2="232.03125" y2="5" style="visibility: inherit;" fill="rgb(0, 0, 0)" stroke="rgb(204, 204, 204)" stroke-width="1px"></line><line x1="255.234375" y1="0" x2="255.234375" y2="5" style="visibility: inherit;" fill="rgb(0, 0, 0)" stroke="rgb(204, 204, 204)" stroke-width="1px"></line><line x1="278.4375" y1="0" x2="278.4375" y2="5" style="visibility: inherit;" fill="rgb(0, 0, 0)" stroke="rgb(204, 204, 204)" stroke-width="1px"></line></g><g transform="translate(0, 8)"><text x="0" y="0" dx="0em" dy="0.95em" style="text-anchor: middle; visibility: hidden; font-family: Roboto, sans-serif; font-size: 12px; font-weight: 200;" fill="rgb(255, 255, 255)" stroke="none" stroke-width="1px">-10</text><text x="23.203125" y="0" dx="0em" dy="0.95em" style="text-anchor: middle; visibility: inherit; font-family: Roboto, sans-serif; font-size: 12px; font-weight: 200;" fill="rgb(255, 255, 255)" stroke="none" stroke-width="1px">0</text><text x="46.40625" y="0" dx="0em" dy="0.95em" style="text-anchor: middle; visibility: inherit; font-family: Roboto, sans-serif; font-size: 12px; font-weight: 200;" fill="rgb(255, 255, 255)" stroke="none" stroke-width="1px">10</text><text x="69.609375" y="0" dx="0em" dy="0.95em" style="text-anchor: middle; visibility: inherit; font-family: Roboto, sans-serif; font-size: 12px; font-weight: 200;" fill="rgb(255, 255, 255)" stroke="none" stroke-width="1px">20</text><text x="92.8125" y="0" dx="0em" dy="0.95em" style="text-anchor: middle; visibility: inherit; font-family: Roboto, sans-serif; font-size: 12px; font-weight: 200;" fill="rgb(255, 255, 255)" stroke="none" stroke-width="1px">30</text><text x="116.015625" y="0" dx="0em" dy="0.95em" style="text-anchor: middle; visibility: inherit; font-family: Roboto, sans-serif; font-size: 12px; font-weight: 200;" fill="rgb(255, 255, 255)" stroke="none" stroke-width="1px">40</text><text x="139.21875" y="0" dx="0em" dy="0.95em" style="text-anchor: middle; visibility: inherit; font-family: Roboto, sans-serif; font-size: 12px; font-weight: 200;" fill="rgb(255, 255, 255)" stroke="none" stroke-width="1px">50</text><text x="162.421875" y="0" dx="0em" dy="0.95em" style="text-anchor: middle; visibility: inherit; font-family: Roboto, sans-serif; font-size: 12px; font-weight: 200;" fill="rgb(255, 255, 255)" stroke="none" stroke-width="1px">60</text><text x="185.625" y="0" dx="0em" dy="0.95em" style="text-anchor: middle; visibility: inherit; font-family: Roboto, sans-serif; font-size: 12px; font-weight: 200;" fill="rgb(255, 255, 255)" stroke="none" stroke-width="1px">70</text><text x="208.828125" y="0" dx="0em" dy="0.95em" style="text-anchor: middle; visibility: inherit; font-family: Roboto, sans-serif; font-size: 12px; font-weight: 200;" fill="rgb(255, 255, 255)" stroke="none" stroke-width="1px">80</text><text x="232.03125" y="0" dx="0em" dy="0.95em" style="text-anchor: middle; visibility: inherit; font-family: Roboto, sans-serif; font-size: 12px; font-weight: 200;" fill="rgb(255, 255, 255)" stroke="none" stroke-width="1px">90</text><text x="255.234375" y="0" dx="0em" dy="0.95em" style="text-anchor: middle; visibility: inherit; font-family: Roboto, sans-serif; font-size: 12px; font-weight: 200;" fill="rgb(255, 255, 255)" stroke="none" stroke-width="1px">100</text><text x="278.4375" y="0" dx="0em" dy="0.95em" style="text-anchor: middle; visibility: hidden; font-family: Roboto, sans-serif; font-size: 12px; font-weight: 200;" fill="rgb(255, 255, 255)" stroke="none" stroke-width="1px">110</text></g><line x1="0" y1="0" x2="278.4375" y2="0" fill="rgb(0, 0, 0)" stroke="rgb(204, 204, 204)" stroke-width="1px"></line></g></g></g></g></svg>