<svg viewBox="0 0 330.0000305175781 200.00001525878906" xmlns="http://www.w3.org/2000/svg"><g><g><g><g><g><line x1="51.5625" y1="177" x2="46.5625" y2="177" style="visibility: inherit;" fill="rgb(0, 0, 0)" stroke="rgb(204, 204, 204)" stroke-width="1px"></line><line x1="51.5625" y1="154.875" x2="46.5625" y2="154.875" style="visibility: inherit;" fill="rgb(0, 0, 0)" stroke="rgb(204, 204, 204)" stroke-width="1px"></line><line x1="51.5625" y1="132.75" x2="46.5625" y2="132.75" style="visibility: inherit;" fill="rgb(0, 0, 0)" stroke="rgb(204, 204, 204)" stroke-width="1px"></line><line x1="51.5625" y1="110.62499999999999" x2="46.5625" y2="110.62499999999999" style="visibility: inherit;" fill="rgb(0, 0, 0)" stroke="rgb(204, 204, 204)" stroke-width="1px"></line><line x1="51.5625" y1="88.49999999999999" x2="46.5625" y2="88.49999999999999" style="visibility: inherit;" fill="rgb(0, 0, 0)" stroke="rgb(204, 204, 204)" stroke-width="1px"></line><line x1="51.5625" y1="66.375" x2="46.5625" y2="66.375" style="visibility: inherit;" fill="rgb(0, 0, 0)" stroke="rgb(204, 204, 204)" stroke-width="1px"></line><line x1="51.5625" y1="44.25" x2="46.5625" y2="44.25" style="visibility: inherit;" fill="rgb(0, 0, 0)" stroke="rgb(204, 204, 204)" stroke-width="1px"></line><line x1="51.5625" y1="22.125" x2="46.5625" y2="22.125" style="visibility: inherit;" fill="rgb(0, 0, 0)" stroke="rgb(204, 204, 204)" stroke-width="1px"></line><line x1="51.5625" y1="0" x2="46.5625" y2="0" style="visibility: inherit;" fill="rgb(0, 0, 0)" stroke="rgb(204, 204, 204)" stroke-width="1px"></line></g><g transform="translate(41.5625, 0)"><text x="0" y="177" dx="0em" dy="0.3em" style="text-anchor: end; visibility: hidden; font-family: Roboto, sans-serif; font-size: 12px; font-weight: 200;" fill="rgb(255, 255, 255)" stroke="none" stroke-width="1px">-0.1</text><text x="0" y="154.875" dx="0em" dy="0.3em" style="text-anchor: end; visibility: inherit; font-family: Roboto, sans-serif; font-size: 12px; font-weight: 200;" fill="rgb(255, 255, 255)" stroke="none" stroke-width="1px">0</text><text x="0" y="132.75" dx="0em" dy="0.3em" style="text-anchor: end; visibility: hidden; font-family: Roboto, sans-serif; font-size: 12px; font-weight: 200;" fill="rgb(255, 255, 255)" stroke="none" stroke-width="1px">0.1</text><text x="0" y="110.62499999999999" dx="0em" dy="0.3em" style="text-anchor: end; visibility: inherit; font-family: Roboto, sans-serif; font-size: 12px; font-weight: 200;" fill="rgb(255, 255, 255)" stroke="none" stroke-width="1px">0.2</text><text x="0" y="88.49999999999999" dx="0em" dy="0.3em" style="text-anchor: end; visibility: hidden; font-family: Roboto, sans-serif; font-size: 12px; font-weight: 200;" fill="rgb(255, 255, 255)" stroke="none" stroke-width="1px">0.3</text><text x="0" y="66.375" dx="0em" dy="0.3em" style="text-anchor: end; visibility: inherit; font-family: Roboto, sans-serif; font-size: 12px; font-weight: 200;" fill="rgb(255, 255, 255)" stroke="none" stroke-width="1px">0.4</text><text x="0" y="44.25" dx="0em" dy="0.3em" style="text-anchor: end; visibility: hidden; font-family: Roboto, sans-serif; font-size: 12px; font-weight: 200;" fill="rgb(255, 255, 255)" stroke="none" stroke-width="1px">0.5</text><text x="0" y="22.125" dx="0em" dy="0.3em" style="text-anchor: end; visibility: inherit; font-family: Roboto, sans-serif; font-size: 12px; font-weight: 200;" fill="rgb(255, 255, 255)" stroke="none" stroke-width="1px">0.6</text><text x="0" y="0" dx="0em" dy="0.3em" style="text-anchor: end; visibility: hidden; font-family: Roboto, sans-serif; font-size: 12px; font-weight: 200;" fill="rgb(255, 255, 255)" stroke="none" stroke-width="1px">0.7</text></g><line x1="51.5625" y1="0" x2="51.5625" y2="177" fill="rgb(0, 0, 0)" stroke="rgb(204, 204, 204)" stroke-width="1px"></line></g></g><g transform="translate(51, 0)" clip-path="url(#clip_0)"><clipPath id="clip_0"><rect width="278" height="176"></rect></clipPath><g><g><g><line x1="0" y1="0" x2="0" y2="177" fill="rgb(0, 0, 0)" stroke="rgb(189, 189, 189)" stroke-width="1px" opacity="0.25"></line><line x1="23.203125" y1="0" x2="23.203125" y2="177" fill="rgb(0, 0, 0)" stroke="rgb(189, 189, 189)" stroke-width="1px" opacity="0.25"></line><line x1="46.40625" y1="0" x2="46.40625" y2="177" fill="rgb(0, 0, 0)" stroke="rgb(189, 189, 189)" stroke-width="1px" opacity="0.25"></line><line x1="69.609375" y1="0" x2="69.609375" y2="177" fill="rgb(0, 0, 0)" stroke="rgb(189, 189, 189)" stroke-width="1px" opacity="0.25"></line><line x1="92.8125" y1="0" x2="92.8125" y2="177" fill="rgb(0, 0, 0)" stroke="rgb(189, 189, 189)" stroke-width="1px" opacity="0.25"></line><line x1="116.015625" y1="0" x2="116.015625" y2="177" fill="rgb(0, 0, 0)" stroke="rgb(189, 189, 189)" stroke-width="1px" opacity="0.25"></line><line x1="139.21875" y1="0" x2="139.21875" y2="177" fill="rgb(0, 0, 0)" stroke="rgb(189, 189, 189)" stroke-width="1px" opacity="0.25"></line><line x1="162.421875" y1="0" x2="162.421875" y2="177" fill="rgb(0, 0, 0)" stroke="rgb(189, 189, 189)" stroke-width="1px" opacity="0.25"></line><line x1="185.625" y1="0" x2="185.625" y2="177" fill="rgb(0, 0, 0)" stroke="rgb(189, 189, 189)" stroke-width="1px" opacity="0.25"></line><line x1="208.828125" y1="0" x2="208.828125" y2="177" fill="rgb(0, 0, 0)" stroke="rgb(189, 189, 189)" stroke-width="1px" opacity="0.25"></line><line x1="232.03125" y1="0" x2="232.03125" y2="177" fill="rgb(0, 0, 0)" stroke="rgb(189, 189, 189)" stroke-width="1px" opacity="0.25"></line><line x1="255.234375" y1="0" x2="255.234375" y2="177" fill="rgb(0, 0, 0)" stroke="rgb(189, 189, 189)" stroke-width="1px" opacity="0.25"></line><line x1="278.4375" y1="0" x2="278.4375" y2="177" fill="rgb(0, 0, 0)" stroke="rgb(189, 189, 189)" stroke-width="1px" opacity="0.25"></line></g><g><line x1="0" y1="177" x2="278.4375" y2="177" fill="rgb(0, 0, 0)" stroke="rgb(189, 189, 189)" stroke-width="1px" opacity="0.25"></line><line x1="0" y1="154.875" x2="278.4375" y2="154.875" fill="rgb(0, 0, 0)" stroke="rgb(189, 189, 189)" stroke-width="1px" opacity="0.25"></line><line x1="0" y1="132.75" x2="278.4375" y2="132.75" fill="rgb(0, 0, 0)" stroke="rgb(189, 189, 189)" stroke-width="1px" opacity="0.25"></line><line x1="0" y1="110.62499999999999" x2="278.4375" y2="110.62499999999999" fill="rgb(0, 0, 0)" stroke="rgb(189, 189, 189)" stroke-width="1px" opacity="0.25"></line><line x1="0" y1="88.49999999999999" x2="278.4375" y2="88.49999999999999" fill="rgb(0, 0, 0)" stroke="rgb(189, 189, 189)" stroke-width="1px" opacity="0.25"></line><line x1="0" y1="66.375" x2="278.4375" y2="66.375" fill="rgb(0, 0, 0)" stroke="rgb(189, 189, 189)" stroke-width="1px" opacity="0.25"></line><line x1="0" y1="44.25" x2="278.4375" y2="44.25" fill="rgb(0, 0, 0)" stroke="rgb(189, 189, 189)" stroke-width="1px" opacity="0.25"></line><line x1="0" y1="22.125" x2="278.4375" y2="22.125" fill="rgb(0, 0, 0)" stroke="rgb(189, 189, 189)" stroke-width="1px" opacity="0.25"></line><line x1="0" y1="0" x2="278.4375" y2="0" fill="rgb(0, 0, 0)" stroke="rgb(189, 189, 189)" stroke-width="1px" opacity="0.25"></line></g></g></g><g><g><line x1="0" y1="154.875" x2="278.4375" y2="154.875" fill="rgb(0, 0, 0)" stroke="rgb(153, 153, 153)" stroke-width="1.5px"></line></g></g><g><g><line x1="23.203125" y1="0" x2="23.203125" y2="177" fill="rgb(0, 0, 0)" stroke="rgb(153, 153, 153)" stroke-width="1.5px"></line></g></g><g><g><g><g><g><path stroke="rgb(0, 119, 187)" stroke-width="2px" d="M23.203125,154.6394908206712L25.523437499999996,154.6394908206712L27.84375,154.58789676074198L30.1640625,154.64102781336464L32.484375,154.64036117878211L34.8046875,154.63927779912206L37.125,154.66571060126276L39.4453125,154.68108862500443L41.765625,154.66428011218878L44.0859375,154.68006750011048L46.40625,154.66377772952666L48.7265625,154.65404177292612L51.04687499999999,154.64821378026124L53.36718750000001,154.64472186001112L55.6875,154.64262845998988L58.0078125,154.64137305009749L60.328125,154.64062003086596L62.6484375,154.64016830091037L64.96875,154.66550649705343L67.2890625,154.6550998460169L69.609375,154.64885609890985L71.92968750000001,154.64510993830677L74.25,154.64286227350206L76.5703125,154.6415136859796L78.890625,154.6407045375558L81.2109375,154.6402190499738L83.53125,154.6655354283949L85.8515625,154.68072523886445L88.171875,154.68983911917627L90.4921875,154.6953074452142L92.8125,154.69858844006325L95.1328125,154.6857978121352L97.453125,154.69288266011898L99.7734375,154.69713356869272L102.09374999999999,154.69968411375902L104.4140625,154.64302903850694L106.73437500000001,154.63287991961454L109.0546875,154.65646308624414L111.375,154.59585074874104L113.6953125,153.95262405588082L116.015625,153.43975899356136L118.3359375,150.92320135703295L120.65625,147.2579579177085L122.9765625,142.08842411235318L125.296875,136.0367607116092L127.6171875,132.6166628888732L129.9375,127.20295042026564L132.2578125,122.87014110214831L134.578125,119.01666714440948L136.8984375,115.73353367708154L139.21875,114.22497045791626L141.5390625,112.32050541815491L143.85937500000003,111.71041920499295L146.1796875,111.27587541470656L148.5,111.03335584121766L150.8203125,110.72225754361034L153.140625,110.04776686072736L155.4609375,110.18653442198273L157.78125,109.90788699975151L160.1015625,109.892947234455L162.421875,109.58367963298751L164.7421875,109.46971943476552L167.0625,109.18327963351462L169.38281249999997,108.80070939212591L171.703125,108.53983500033348L174.0234375,108.60309370118219L176.34375,108.10604806845092L178.66406250000003,108.43648859473888L180.984375,107.7578891403247L183.3046875,107.20123697291429L185.625,107.02553556692966L187.9453125,106.11958036322814L190.265625,106.45136895179404L192.5859375,106.4768362158516L194.90625,106.72673587882394L197.2265625,106.63192703207655L199.546875,106.35556170124009L201.8671875,104.89612120853776L204.18749999999997,104.39385252724239L206.5078125,104.60720975416986L208.828125,105.53705478440577L211.1484375,105.4545701845339L213.46875000000003,105.14198297285145L215.7890625,105.11560201509658L218.109375,104.46379041292586L220.4296875,103.50973185222337L222.75,104.00397120905512L225.0703125,103.08715677852983L227.390625,103.05256725755666L229.7109375,101.95369887147744L232.03125,102.49437296267986L234.3515625,102.15880891458177L236.671875,101.94148324594487L238.99218749999997,101.85041437098735L241.3125,102.11823842852922L243.6328125,101.46530328798063L245.953125,102.4960412493811L248.27343750000003,103.00621574291384L250.59375,102.57005648862598L252.9140625,102.38850286037491L23.203125,123.15702467393773L25.523437499999996,135.6181377620754L27.84375,143.00861292325936L30.1640625,147.44469368730978L32.484375,150.19073917009865L34.8046875,151.83836645977198L37.125,152.82694283357597L39.4453125,153.42008865785834L41.765625,153.7759761524278L44.0859375,153.98950864916947L46.40625,154.11762814721445L48.7265625,154.09304226139213L51.04687499999999,154.40582535683527L53.36718750000001,154.36741817181394L55.6875,154.34437386080114L58.0078125,154.24615024983484L60.328125,154.2716131076137L62.6484375,154.286890822281L64.96875,154.29605745108137L67.2890625,154.3015574283616L69.609375,154.30485741472975L71.92968750000001,154.30683740655064L74.25,154.30802540164316L76.5703125,154.22434117434005L78.890625,154.25852766231682L81.2109375,154.27903955510286L83.53125,154.2913466907745L85.8515625,154.29873097217748L88.171875,154.30316154101928L90.4921875,154.30581988232436L92.8125,154.22301786274875L95.1328125,154.1733366510034L97.453125,154.1435279239562L99.7734375,154.12520082312935L102.09374999999999,154.11464642723178L104.4140625,154.10831378969323L106.73437500000001,154.18891123152872L109.0546875,154.1528726722714L111.375,154.1637099354562L113.6953125,154.2221489189865L116.015625,154.12104234931368L118.3359375,154.11215134294238L120.65625,154.10681673911958L122.9765625,154.18801300118454L125.296875,154.0999862345369L127.6171875,154.0995176740763L129.9375,154.18363356215858L132.2578125,154.15007080881657L134.578125,154.2139654430027L136.8984375,154.25230222351442L139.21875,154.2753042918214L141.5390625,154.20291284110698L143.85937500000003,154.24567066237697L146.1796875,154.27132535513897L148.5,154.28671817079618L150.8203125,154.29595386019048L153.140625,154.30149527382707L155.4609375,154.2204230976504L157.78125,154.1717797919444L160.1015625,154.14259380852081L162.421875,153.52931581347374L164.7421875,153.80993742469587L167.0625,153.65637077915602L169.38281249999997,151.98742563890178L171.703125,149.06141406218265L174.0234375,149.41365158901397L176.34375,149.61910966542828L178.66406250000003,144.9566280872075L180.984375,139.4532160561054L183.3046875,136.26470224116855L185.625,134.21011881488332L187.9453125,127.2666147482858L190.265625,115.73760571077263L192.5859375,104.76674727496382L194.90625,90.04784415004774L197.2265625,79.55253696047144L199.546875,68.14953492643161L201.8671875,56.044965944062014L204.18749999999997,44.111044008356544L206.5078125,38.20400182534588L208.828125,31.054744280155482L211.1484375,24.72648237751483L213.46875000000003,18.73116437558269L215.7890625,16.0175115523573L218.109375,13.303321680893653L220.4296875,9.317352564019052L222.75,8.693532801200208L225.0703125,5.534019277411252L227.390625,6.911091551731572L229.7109375,7.045016089409911L232.03125,5.655314904052208L234.3515625,3.4897596249569673L236.671875,-0.16678608598775324L238.99218749999997,-0.806832403793748L241.3125,0.5383992070824967L243.6328125,-0.3154045596795678L252.9140625,-2.852203054898795L23.203125,59.928204100414874L25.523437499999996,97.59644839360308L27.84375,120.50786903616186L30.1640625,134.02864437940988L32.484375,142.14110958535872L34.8046875,147.00858870892802L37.125,149.84467915871096L39.4453125,151.54633342858074L41.765625,152.65172301486123L44.0859375,153.54103380891675L46.40625,153.84854324306284L48.7265625,154.03304890355048L51.04687499999999,154.14375229984307L53.36718750000001,154.2101743376186L55.6875,154.25002756028397L58.0078125,154.27393949388318L60.328125,154.20388962968406L62.6484375,154.24625673552322L64.96875,154.2716769990267L67.2890625,154.2869291571288L69.609375,154.21168342763144L71.92968750000001,154.25093301429166L74.25,154.27448276628778L76.5703125,154.28861261748546L78.890625,154.29709052820405L81.2109375,154.3021772746352L83.53125,154.30522932249391L85.8515625,154.30706055120913L88.171875,154.30815928843825L90.4921875,154.30881853077574L92.8125,154.22481705181963L95.1328125,154.25881318880454L97.453125,154.2792108709955L99.7734375,154.2914494803101L102.09374999999999,154.29879264589883L104.4140625,154.3031985452521L106.73437500000001,154.22144506050543L109.0546875,154.25678999401603L111.375,154.2779969541224L113.6953125,154.29072113018623L116.015625,154.29835563582452L118.3359375,154.21853931484887L120.65625,154.2550465466221L122.9765625,154.19255386132744L125.296875,154.23945527450923L127.6171875,154.1831990980597L129.9375,154.2338424165486L132.2578125,154.26422840764195L134.578125,154.28246000229794L136.8984375,154.29339895909155L139.21875,154.2999623331677L141.5390625,154.29822001552495L143.85937500000003,154.07677792474055L146.1796875,154.1113771277222L148.5,153.86449433333556L150.8203125,152.64088126587498L153.140625,152.18746583371686L155.4609375,146.86550853153662L157.78125,143.11249854490515L160.1015625,142.3286249392501L162.421875,137.72659264375397L164.7421875,130.7281678802945L167.0625,121.15204763932094" style="fill: none;" fill="none"></path></g></g></g></g><g opacity="0.2"><g><g><g><path stroke="rgb(0, 119, 187)" stroke-width="2px" d="M23.203125,154.6394908206712L25.523437499999996,154.6394908206712L27.84375,154.53836646320997L30.1640625,154.70350993124885L32.484375,154.6394908206712L34.8046875,154.6377790950355L37.125,154.70350993124885L39.4453125,154.70350993124885L41.765625,154.6394908206712L44.0859375,154.70350993124885L46.40625,154.6394908206712L48.7265625,154.6394908206712L51.04687499999999,154.6394908206712L53.36718750000001,154.6394908206712L55.6875,154.6394908206712L58.0078125,154.6394908206712L60.328125,154.6394908206712L62.6484375,154.6394908206712L64.96875,154.70350993124885L67.2890625,154.6394908206712L69.609375,154.6394908206712L71.92968750000001,154.6394908206712L74.25,154.6394908206712L76.5703125,154.6394908206712L78.890625,154.6394908206712L81.2109375,154.6394908206712L83.53125,154.70350993124885L85.8515625,154.70350993124885L88.171875,154.70350993124885L90.4921875,154.70350993124885L92.8125,154.70350993124885L95.1328125,154.66661187278805L97.453125,154.70350993124885L99.7734375,154.70350993124885L102.09374999999999,154.70350993124885L104.4140625,154.55804642708972L106.73437500000001,154.617656241433L109.0546875,154.69183783596964L111.375,154.504932242824L113.6953125,152.98778401874006L116.015625,152.67046140111051L118.3359375,147.14836490526795L120.65625,141.76009276136756L122.9765625,134.33412340655923L125.296875,126.95926561206579L127.6171875,127.48651615530252L129.9375,119.0823817178607L132.2578125,116.37092712521553L134.578125,113.23645620793104L136.8984375,110.808833476156L139.21875,111.96212562918663L141.5390625,109.4638078585267L143.85937500000003,110.79528988525271L146.1796875,110.62405972927809L148.5,110.66957648098469L150.8203125,110.25561009719968L153.140625,109.03603083640337L155.4609375,110.39468576386571L157.78125,109.48991586640477L160.1015625,109.87053758651018L162.421875,109.11977823078632L164.7421875,109.29877913743258L167.0625,108.75361993163824L169.38281249999997,108.22685403004289L171.703125,108.14852341264486L174.0234375,108.69798175245523L176.34375,107.36047961935401L178.66406250000003,108.93214938417077L180.984375,106.73998995870352L183.3046875,106.36625872179866L185.625,106.76198345795274L187.9453125,104.76064755767584L190.265625,106.94905183464289L192.5859375,106.515037111938L194.90625,107.10158537328243L197.2265625,106.4897137619555L199.546875,105.94101370498538L201.8671875,102.70696046948433L204.18749999999997,103.64044950529933L206.5078125,104.9272455945611L208.828125,106.9318223297596L211.1484375,105.33084328472614L213.46875000000003,104.6731021553278L215.7890625,105.07603057846427L218.109375,103.48607300966978L220.4296875,102.07864401116967L222.75,104.74533024430275L225.0703125,101.71193513274193L227.390625,103.00068297609687L229.7109375,100.30539629235864L232.03125,103.30538409948349L234.3515625,101.65546284243464L236.671875,101.61549474298954L238.99218749999997,101.71381105855107L241.3125,102.51997451484203L243.6328125,100.48590057715774L245.953125,104.04214819148183L248.27343750000003,103.77147748321295L250.59375,101.91581760719419L252.9140625,102.11617241799831L23.203125,154.30980739428196L25.523437499999996,154.30980739428196L27.84375,154.09432566503529L30.1640625,154.0988148333854L32.484375,154.30980739428196L34.8046875,154.30980739428196L37.125,154.30980739428196L39.4453125,154.30980739428196L41.765625,154.30980739428196L44.0859375,154.30980739428196L46.40625,154.30980739428196L48.7265625,154.05616343265865L51.04687499999999,154.875L53.36718750000001,154.30980739428196L55.6875,154.30980739428196L58.0078125,154.0988148333854L60.328125,154.30980739428196L62.6484375,154.30980739428196L64.96875,154.30980739428196L67.2890625,154.30980739428196L69.609375,154.30980739428196L71.92968750000001,154.30980739428196L74.25,154.30980739428196L76.5703125,154.0988148333854L78.890625,154.30980739428196L81.2109375,154.30980739428196L83.53125,154.30980739428196L85.8515625,154.30980739428196L88.171875,154.30980739428196L90.4921875,154.30980739428196L92.8125,154.0988148333854L95.1328125,154.0988148333854L97.453125,154.0988148333854L99.7734375,154.09771017188905L102.09374999999999,154.0988148333854L104.4140625,154.0988148333854L106.73437500000001,154.30980739428196L109.0546875,154.0988148333854L111.375,154.1799658302334L113.6953125,154.30980739428196L116.015625,153.96938249480445L118.3359375,154.0988148333854L120.65625,154.0988148333854L122.9765625,154.30980739428196L125.296875,153.96794608456548L127.6171875,154.0988148333854L129.9375,154.30980739428196L132.2578125,154.09972667880356L134.578125,154.30980739428196L136.8984375,154.30980739428196L139.21875,154.30980739428196L141.5390625,154.09432566503529L143.85937500000003,154.30980739428196L146.1796875,154.30980739428196L148.5,154.30980739428196L150.8203125,154.30980739428196L153.140625,154.30980739428196L155.4609375,154.0988148333854L157.78125,154.0988148333854L160.1015625,154.0988148333854L162.421875,152.60939882090315L164.7421875,154.23086984152906L167.0625,153.42602081084624L169.38281249999997,149.48400792852044L171.703125,144.67239669710398L174.0234375,149.94200787926093L176.34375,149.9272967800498L178.66406250000003,137.9629057198763L180.984375,131.19809800945222L183.3046875,131.4819315187633L185.625,131.12824367545545L187.9453125,116.85135864838958L190.265625,98.44409215450287L192.5859375,88.31045962125063L194.90625,67.96948946267366L197.2265625,63.80957617610693L199.546875,51.04503187537193L201.8671875,37.88811247050762L204.18749999999997,26.210161104798317L206.5078125,29.343438550829887L208.828125,20.33085796236992L211.1484375,15.234089523553848L213.46875000000003,9.738187372684479L215.7890625,11.947032317519188L218.109375,9.232036873698235L220.4296875,3.338398888707161L222.75,7.7578031569719315L225.0703125,0.794748991727829L227.390625,8.976699963212013L229.7109375,7.245902895927429L232.03125,3.570763126015663L234.3515625,0.24142670631408691L236.671875,-5.651604652404785L238.99218749999997,-1.7669018805027008L241.3125,2.5562466233968735L243.6328125,-1.5961102098226547L250.59375,-5.421310856938362L252.9140625,1.2674691081047058L23.203125,154.0988148333854L25.523437499999996,154.0988148333854L27.84375,154.875L30.1640625,154.30980739428196L32.484375,154.30980739428196L34.8046875,154.30980739428196L37.125,154.0988148333854L39.4453125,154.0988148333854L41.765625,154.30980739428196L44.0859375,154.875L46.40625,154.30980739428196L48.7265625,154.30980739428196L51.04687499999999,154.30980739428196L53.36718750000001,154.30980739428196L55.6875,154.30980739428196L58.0078125,154.30980739428196L60.328125,154.0988148333854L62.6484375,154.30980739428196L64.96875,154.30980739428196L67.2890625,154.30980739428196L69.609375,154.0988148333854L71.92968750000001,154.30980739428196L74.25,154.30980739428196L76.5703125,154.30980739428196L78.890625,154.30980739428196L81.2109375,154.30980739428196L83.53125,154.30980739428196L85.8515625,154.30980739428196L88.171875,154.30980739428196L90.4921875,154.30980739428196L92.8125,154.0988148333854L95.1328125,154.30980739428196L97.453125,154.30980739428196L99.7734375,154.30980739428196L102.09374999999999,154.30980739428196L104.4140625,154.30980739428196L106.73437500000001,154.0988148333854L109.0546875,154.30980739428196L111.375,154.30980739428196L113.6953125,154.30980739428196L116.015625,154.30980739428196L118.3359375,154.0988148333854L120.65625,154.30980739428196L122.9765625,154.0988148333854L125.296875,154.30980739428196L127.6171875,154.0988148333854L129.9375,154.30980739428196L132.2578125,154.30980739428196L134.578125,154.30980739428196L136.8984375,154.30980739428196L139.21875,154.30980739428196L141.5390625,154.29560653906083L143.85937500000003,153.74461478856392L146.1796875,154.16327593219467L148.5,153.4941701417556L150.8203125,150.80546166468412L153.140625,151.50734268547967L155.4609375,138.88257257826626L157.78125,137.48298356495798L160.1015625,141.1528145307675L162.421875,130.8235442005098L164.7421875,120.23053073510528L167.0625,106.78786727786064" style="fill: none;" fill="none"></path></g></g></g></g></g></g><g transform="translate(51, 177)" clip-path="url(#clip_1)"><clipPath id="clip_1"><rect width="278" height="22"></rect></clipPath><g><g><line x1="0" y1="0" x2="0" y2="5" style="visibility: inherit;" fill="rgb(0, 0, 0)" stroke="rgb(204, 204, 204)" stroke-width="1px"></line><line x1="23.203125" y1="0" x2="23.203125" y2="5" style="visibility: inherit;" fill="rgb(0, 0, 0)" stroke="rgb(204, 204, 204)" stroke-width="1px"></line><line x1="46.40625" y1="0" x2="46.40625" y2="5" style="visibility: inherit;" fill="rgb(0, 0, 0)" stroke="rgb(204, 204, 204)" stroke-width="1px"></line><line x1="69.609375" y1="0" x2="69.609375" y2="5" style="visibility: inherit;" fill="rgb(0, 0, 0)" stroke="rgb(204, 204, 204)" stroke-width="1px"></line><line x1="92.8125" y1="0" x2="92.8125" y2="5" style="visibility: inherit;" fill="rgb(0, 0, 0)" stroke="rgb(204, 204, 204)" stroke-width="1px"></line><line x1="116.015625" y1="0" x2="116.015625" y2="5" style="visibility: inherit;" fill="rgb(0, 0, 0)" stroke="rgb(204, 204, 204)" stroke-width="1px"></line><line x1="139.21875" y1="0" x2="139.21875" y2="5" style="visibility: inherit;" fill="rgb(0, 0, 0)" stroke="rgb(204, 204, 204)" stroke-width="1px"></line><line x1="162.421875" y1="0" x2="162.421875" y2="5" style="visibility: inherit;" fill="rgb(0, 0, 0)" stroke="rgb(204, 204, 204)" stroke-width="1px"></line><line x1="185.625" y1="0" x2="185.625" y2="5" style="visibility: inherit;" fill="rgb(0, 0, 0)" stroke="rgb(204, 204, 204)" stroke-width="1px"></line><line x1="208.828125" y1="0" x2="208.828125" y2="5" style="visibility: inherit;" fill="rgb(0, 0, 0)" stroke="rgb(204, 204, 204)" stroke-width="1px"></line><line x1="232.03125" y1="0" x2="232.03125" y2="5" style="visibility: inherit;" fill="rgb(0, 0, 0)" stroke="rgb(204, 204, 204)" stroke-width="1px"></line><line x1="255.234375" y1="0" x2="255.234375" y2="5" style="visibility: inherit;" fill="rgb(0, 0, 0)" stroke="rgb(204, 204, 204)" stroke-width="1px"></line><line x1="278.4375" y1="0" x2="278.4375" y2="5" style="visibility: inherit;" fill="rgb(0, 0, 0)" stroke="rgb(204, 204, 204)" stroke-width="1px"></line></g><g transform="translate(0, 8)"><text x="0" y="0" dx="0em" dy="0.95em" style="text-anchor: middle; visibility: hidden; font-family: Roboto, sans-serif; font-size: 12px; font-weight: 200;" fill="rgb(255, 255, 255)" stroke="none" stroke-width="1px">-10</text><text x="23.203125" y="0" dx="0em" dy="0.95em" style="text-anchor: middle; visibility: inherit; font-family: Roboto, sans-serif; font-size: 12px; font-weight: 200;" fill="rgb(255, 255, 255)" stroke="none" stroke-width="1px">0</text><text x="46.40625" y="0" dx="0em" dy="0.95em" style="text-anchor: middle; visibility: inherit; font-family: Roboto, sans-serif; font-size: 12px; font-weight: 200;" fill="rgb(255, 255, 255)" stroke="none" stroke-width="1px">10</text><text x="69.609375" y="0" dx="0em" dy="0.95em" style="text-anchor: middle; visibility: inherit; font-family: Roboto, sans-serif; font-size: 12px; font-weight: 200;" fill="rgb(255, 255, 255)" stroke="none" stroke-width="1px">20</text><text x="92.8125" y="0" dx="0em" dy="0.95em" style="text-anchor: middle; visibility: inherit; font-family: Roboto, sans-serif; font-size: 12px; font-weight: 200;" fill="rgb(255, 255, 255)" stroke="none" stroke-width="1px">30</text><text x="116.015625" y="0" dx="0em" dy="0.95em" style="text-anchor: middle; visibility: inherit; font-family: Roboto, sans-serif; font-size: 12px; font-weight: 200;" fill="rgb(255, 255, 255)" stroke="none" stroke-width="1px">40</text><text x="139.21875" y="0" dx="0em" dy="0.95em" style="text-anchor: middle; visibility: inherit; font-family: Roboto, sans-serif; font-size: 12px; font-weight: 200;" fill="rgb(255, 255, 255)" stroke="none" stroke-width="1px">50</text><text x="162.421875" y="0" dx="0em" dy="0.95em" style="text-anchor: middle; visibility: inherit; font-family: Roboto, sans-serif; font-size: 12px; font-weight: 200;" fill="rgb(255, 255, 255)" stroke="none" stroke-width="1px">60</text><text x="185.625" y="0" dx="0em" dy="0.95em" style="text-anchor: middle; visibility: inherit; font-family: Roboto, sans-serif; font-size: 12px; font-weight: 200;" fill="rgb(255, 255, 255)" stroke="none" stroke-width="1px">70</text><text x="208.828125" y="0" dx="0em" dy="0.95em" style="text-anchor: middle; visibility: inherit; font-family: Roboto, sans-serif; font-size: 12px; font-weight: 200;" fill="rgb(255, 255, 255)" stroke="none" stroke-width="1px">80</text><text x="232.03125" y="0" dx="0em" dy="0.95em" style="text-anchor: middle; visibility: inherit; font-family: Roboto, sans-serif; font-size: 12px; font-weight: 200;" fill="rgb(255, 255, 255)" stroke="none" stroke-width="1px">90</text><text x="255.234375" y="0" dx="0em" dy="0.95em" style="text-anchor: middle; visibility: inherit; font-family: Roboto, sans-serif; font-size: 12px; font-weight: 200;" fill="rgb(255, 255, 255)" stroke="none" stroke-width="1px">100</text><text x="278.4375" y="0" dx="0em" dy="0.95em" style="text-anchor: middle; visibility: hidden; font-family: Roboto, sans-serif; font-size: 12px; font-weight: 200;" fill="rgb(255, 255, 255)" stroke="none" stroke-width="1px">110</text></g><line x1="0" y1="0" x2="278.4375" y2="0" fill="rgb(0, 0, 0)" stroke="rgb(204, 204, 204)" stroke-width="1px"></line></g></g></g></g></svg>