<svg viewBox="0 0 330.0000305175781 200.00001525878906" xmlns="http://www.w3.org/2000/svg"><g><g><g><g><g><line x1="41.171875" y1="177" x2="36.171875" y2="177" style="visibility: inherit;" fill="rgb(0, 0, 0)" stroke="rgb(204, 204, 204)" stroke-width="1px"></line><line x1="41.171875" y1="159.3" x2="36.171875" y2="159.3" style="visibility: inherit;" fill="rgb(0, 0, 0)" stroke="rgb(204, 204, 204)" stroke-width="1px"></line><line x1="41.171875" y1="141.6" x2="36.171875" y2="141.6" style="visibility: inherit;" fill="rgb(0, 0, 0)" stroke="rgb(204, 204, 204)" stroke-width="1px"></line><line x1="41.171875" y1="123.89999999999999" x2="36.171875" y2="123.89999999999999" style="visibility: inherit;" fill="rgb(0, 0, 0)" stroke="rgb(204, 204, 204)" stroke-width="1px"></line><line x1="41.171875" y1="106.2" x2="36.171875" y2="106.2" style="visibility: inherit;" fill="rgb(0, 0, 0)" stroke="rgb(204, 204, 204)" stroke-width="1px"></line><line x1="41.171875" y1="88.5" x2="36.171875" y2="88.5" style="visibility: inherit;" fill="rgb(0, 0, 0)" stroke="rgb(204, 204, 204)" stroke-width="1px"></line><line x1="41.171875" y1="70.8" x2="36.171875" y2="70.8" style="visibility: inherit;" fill="rgb(0, 0, 0)" stroke="rgb(204, 204, 204)" stroke-width="1px"></line><line x1="41.171875" y1="53.10000000000001" x2="36.171875" y2="53.10000000000001" style="visibility: inherit;" fill="rgb(0, 0, 0)" stroke="rgb(204, 204, 204)" stroke-width="1px"></line><line x1="41.171875" y1="35.39999999999999" x2="36.171875" y2="35.39999999999999" style="visibility: inherit;" fill="rgb(0, 0, 0)" stroke="rgb(204, 204, 204)" stroke-width="1px"></line><line x1="41.171875" y1="17.699999999999996" x2="36.171875" y2="17.699999999999996" style="visibility: inherit;" fill="rgb(0, 0, 0)" stroke="rgb(204, 204, 204)" stroke-width="1px"></line><line x1="41.171875" y1="0" x2="36.171875" y2="0" style="visibility: inherit;" fill="rgb(0, 0, 0)" stroke="rgb(204, 204, 204)" stroke-width="1px"></line></g><g transform="translate(31.171875, 0)"><text x="0" y="177" dx="0em" dy="0.3em" style="text-anchor: end; visibility: hidden; font-family: Roboto, sans-serif; font-size: 12px; font-weight: 200;" fill="rgb(255, 255, 255)" stroke="none" stroke-width="1px">0</text><text x="0" y="159.3" dx="0em" dy="0.3em" style="text-anchor: end; visibility: inherit; font-family: Roboto, sans-serif; font-size: 12px; font-weight: 200;" fill="rgb(255, 255, 255)" stroke="none" stroke-width="1px">0.1</text><text x="0" y="141.6" dx="0em" dy="0.3em" style="text-anchor: end; visibility: hidden; font-family: Roboto, sans-serif; font-size: 12px; font-weight: 200;" fill="rgb(255, 255, 255)" stroke="none" stroke-width="1px">0.2</text><text x="0" y="123.89999999999999" dx="0em" dy="0.3em" style="text-anchor: end; visibility: inherit; font-family: Roboto, sans-serif; font-size: 12px; font-weight: 200;" fill="rgb(255, 255, 255)" stroke="none" stroke-width="1px">0.3</text><text x="0" y="106.2" dx="0em" dy="0.3em" style="text-anchor: end; visibility: hidden; font-family: Roboto, sans-serif; font-size: 12px; font-weight: 200;" fill="rgb(255, 255, 255)" stroke="none" stroke-width="1px">0.4</text><text x="0" y="88.5" dx="0em" dy="0.3em" style="text-anchor: end; visibility: inherit; font-family: Roboto, sans-serif; font-size: 12px; font-weight: 200;" fill="rgb(255, 255, 255)" stroke="none" stroke-width="1px">0.5</text><text x="0" y="70.8" dx="0em" dy="0.3em" style="text-anchor: end; visibility: hidden; font-family: Roboto, sans-serif; font-size: 12px; font-weight: 200;" fill="rgb(255, 255, 255)" stroke="none" stroke-width="1px">0.6</text><text x="0" y="53.10000000000001" dx="0em" dy="0.3em" style="text-anchor: end; visibility: inherit; font-family: Roboto, sans-serif; font-size: 12px; font-weight: 200;" fill="rgb(255, 255, 255)" stroke="none" stroke-width="1px">0.7</text><text x="0" y="35.39999999999999" dx="0em" dy="0.3em" style="text-anchor: end; visibility: hidden; font-family: Roboto, sans-serif; font-size: 12px; font-weight: 200;" fill="rgb(255, 255, 255)" stroke="none" stroke-width="1px">0.8</text><text x="0" y="17.699999999999996" dx="0em" dy="0.3em" style="text-anchor: end; visibility: inherit; font-family: Roboto, sans-serif; font-size: 12px; font-weight: 200;" fill="rgb(255, 255, 255)" stroke="none" stroke-width="1px">0.9</text><text x="0" y="0" dx="0em" dy="0.3em" style="text-anchor: end; visibility: hidden; font-family: Roboto, sans-serif; font-size: 12px; font-weight: 200;" fill="rgb(255, 255, 255)" stroke="none" stroke-width="1px">1</text></g><line x1="41.171875" y1="0" x2="41.171875" y2="177" fill="rgb(0, 0, 0)" stroke="rgb(204, 204, 204)" stroke-width="1px"></line></g></g><g transform="translate(41, 0)" clip-path="url(#clip_0)"><clipPath id="clip_0"><rect width="288" height="176"></rect></clipPath><g><g><g><line x1="0" y1="0" x2="0" y2="177" fill="rgb(0, 0, 0)" stroke="rgb(189, 189, 189)" stroke-width="1px" opacity="0.25"></line><line x1="24.069010416666664" y1="0" x2="24.069010416666664" y2="177" fill="rgb(0, 0, 0)" stroke="rgb(189, 189, 189)" stroke-width="1px" opacity="0.25"></line><line x1="48.13802083333333" y1="0" x2="48.13802083333333" y2="177" fill="rgb(0, 0, 0)" stroke="rgb(189, 189, 189)" stroke-width="1px" opacity="0.25"></line><line x1="72.20703125" y1="0" x2="72.20703125" y2="177" fill="rgb(0, 0, 0)" stroke="rgb(189, 189, 189)" stroke-width="1px" opacity="0.25"></line><line x1="96.27604166666666" y1="0" x2="96.27604166666666" y2="177" fill="rgb(0, 0, 0)" stroke="rgb(189, 189, 189)" stroke-width="1px" opacity="0.25"></line><line x1="120.34505208333334" y1="0" x2="120.34505208333334" y2="177" fill="rgb(0, 0, 0)" stroke="rgb(189, 189, 189)" stroke-width="1px" opacity="0.25"></line><line x1="144.4140625" y1="0" x2="144.4140625" y2="177" fill="rgb(0, 0, 0)" stroke="rgb(189, 189, 189)" stroke-width="1px" opacity="0.25"></line><line x1="168.48307291666669" y1="0" x2="168.48307291666669" y2="177" fill="rgb(0, 0, 0)" stroke="rgb(189, 189, 189)" stroke-width="1px" opacity="0.25"></line><line x1="192.55208333333331" y1="0" x2="192.55208333333331" y2="177" fill="rgb(0, 0, 0)" stroke="rgb(189, 189, 189)" stroke-width="1px" opacity="0.25"></line><line x1="216.62109375" y1="0" x2="216.62109375" y2="177" fill="rgb(0, 0, 0)" stroke="rgb(189, 189, 189)" stroke-width="1px" opacity="0.25"></line><line x1="240.69010416666669" y1="0" x2="240.69010416666669" y2="177" fill="rgb(0, 0, 0)" stroke="rgb(189, 189, 189)" stroke-width="1px" opacity="0.25"></line><line x1="264.7591145833333" y1="0" x2="264.7591145833333" y2="177" fill="rgb(0, 0, 0)" stroke="rgb(189, 189, 189)" stroke-width="1px" opacity="0.25"></line><line x1="288.828125" y1="0" x2="288.828125" y2="177" fill="rgb(0, 0, 0)" stroke="rgb(189, 189, 189)" stroke-width="1px" opacity="0.25"></line></g><g><line x1="0" y1="177" x2="288.828125" y2="177" fill="rgb(0, 0, 0)" stroke="rgb(189, 189, 189)" stroke-width="1px" opacity="0.25"></line><line x1="0" y1="159.3" x2="288.828125" y2="159.3" fill="rgb(0, 0, 0)" stroke="rgb(189, 189, 189)" stroke-width="1px" opacity="0.25"></line><line x1="0" y1="141.6" x2="288.828125" y2="141.6" fill="rgb(0, 0, 0)" stroke="rgb(189, 189, 189)" stroke-width="1px" opacity="0.25"></line><line x1="0" y1="123.89999999999999" x2="288.828125" y2="123.89999999999999" fill="rgb(0, 0, 0)" stroke="rgb(189, 189, 189)" stroke-width="1px" opacity="0.25"></line><line x1="0" y1="106.2" x2="288.828125" y2="106.2" fill="rgb(0, 0, 0)" stroke="rgb(189, 189, 189)" stroke-width="1px" opacity="0.25"></line><line x1="0" y1="88.5" x2="288.828125" y2="88.5" fill="rgb(0, 0, 0)" stroke="rgb(189, 189, 189)" stroke-width="1px" opacity="0.25"></line><line x1="0" y1="70.8" x2="288.828125" y2="70.8" fill="rgb(0, 0, 0)" stroke="rgb(189, 189, 189)" stroke-width="1px" opacity="0.25"></line><line x1="0" y1="53.10000000000001" x2="288.828125" y2="53.10000000000001" fill="rgb(0, 0, 0)" stroke="rgb(189, 189, 189)" stroke-width="1px" opacity="0.25"></line><line x1="0" y1="35.39999999999999" x2="288.828125" y2="35.39999999999999" fill="rgb(0, 0, 0)" stroke="rgb(189, 189, 189)" stroke-width="1px" opacity="0.25"></line><line x1="0" y1="17.699999999999996" x2="288.828125" y2="17.699999999999996" fill="rgb(0, 0, 0)" stroke="rgb(189, 189, 189)" stroke-width="1px" opacity="0.25"></line><line x1="0" y1="0" x2="288.828125" y2="0" fill="rgb(0, 0, 0)" stroke="rgb(189, 189, 189)" stroke-width="1px" opacity="0.25"></line></g></g></g><g><g><line x1="0" y1="177" x2="288.828125" y2="177" fill="rgb(0, 0, 0)" stroke="rgb(153, 153, 153)" stroke-width="1.5px"></line></g></g><g><g><line x1="24.069010416666664" y1="0" x2="24.069010416666664" y2="177" fill="rgb(0, 0, 0)" stroke="rgb(153, 153, 153)" stroke-width="1.5px"></line></g></g><g><g><g><g><g><path stroke="rgb(0, 119, 187)" stroke-width="2px" d="M24.069010416666664,165.07277666777372L26.475911458333332,165.07277666777372L28.8828125,165.39036799389487L31.289713541666668,162.61341039332396L33.696614583333336,163.68010291347045L36.103515625,164.19606886860825L38.510416666666664,162.20087187667252L40.917317708333336,161.04011008728816L43.32421875,162.66959820537204L45.731119791666664,161.33275886898448L48.13802083333333,162.83421322068534L50.544921875,163.73159199779138L52.951822916666664,164.26876745421123L55.358723958333336,164.5906233593259L57.765625,164.78357540586003L60.17252604166667,164.89928855457654L62.579427083333336,164.96869554814086L64.986328125,165.01033222461305L67.39322916666667,162.74514460537497L69.80013020833333,163.67623147234553L72.20703125,164.23486180516286L74.61393229166667,164.57003216177654L77.02083333333333,164.77113155231808L79.427734375,164.89179017022687L81.83463541666667,164.96418497506613L84.24153645833334,165.00762172624434L86.6484375,162.74365402061846L89.05533854166667,161.38527488021933L91.46223958333333,160.5702479298506L93.869140625,160.08123195182273L96.27604166666666,161.57791455577734L98.68294270833333,162.59079844364746L101.08984375,161.29356230626394L103.49674479166667,160.51522066347897L105.90364583333333,160.95983678958075L108.310546875,160.24240068864674L110.71744791666667,160.84915866197252L113.12434895833333,159.88853208805716L115.53125,158.36088280388466L117.93815104166667,155.46883693254088L120.34505208333334,151.7682584489473L122.751953125,124.23653775112662L125.15885416666667,98.22620747325918L127.56575520833333,77.24720798270903L129.97265625,65.79756909690698L132.37955729166666,56.771643984246L134.78645833333334,46.85089186865384L137.193359375,39.87889912135619L139.60026041666666,33.8150860690684L142.00716145833331,27.18824705020858L144.4140625,22.84619291146244L146.82096354166666,19.921543738354554L149.22786458333334,18.380822623434533L151.634765625,17.125423100388446L154.04166666666666,16.703150240657287L156.44856770833331,16.212816147850294L158.85546875,16.1097905330934L161.26236979166666,15.878841429536191L163.66927083333334,15.796056264391343L166.076171875,15.7545551024382L168.48307291666669,15.472352025658155L170.88997395833334,15.43993148669619L173.296875,14.913141259342543L175.70377604166666,14.643373280042477L178.11067708333334,14.20701357679013L180.517578125,14.481936460473797L182.92447916666666,13.716103938662227L185.33138020833334,13.736845652725254L187.73828125,13.124864411631783L190.14518229166666,12.935409779715268L192.55208333333331,12.292446610550698L194.958984375,12.372566126120466L197.36588541666666,12.068469656903941L199.77278645833334,11.861518844008115L202.1796875,11.05815903189161L204.58658854166669,11.226822089209428L206.99348958333334,11.610849136742498L209.400390625,12.036820575375867L211.80729166666666,11.38129930781097L214.21419270833334,12.950075442116098L216.62109375,12.035106929850958L219.02799479166666,11.555755968518481L221.43489583333334,12.814749095217834L223.841796875,11.517152865753438L226.24869791666666,11.581913256660604L228.65559895833331,11.041906657228175L231.0625,12.057253326421568L233.46940104166666,12.849833372500894L235.87630208333334,12.29878828720294L238.283203125,12.055625139451273L240.69010416666669,12.014674650893351L243.09700520833334,11.980807678261845L245.50390625,11.101356992935793L247.91080729166666,11.164158660063551L250.31770833333334,11.959736369782336L252.724609375,11.853042210777788L255.13151041666666,12.920351007962347L257.53841145833337,12.564759337534976L259.9453125,12.213030245083868L262.3522135416667,11.580489865647733L24.069010416666664,70.68737722140966L26.475911458333332,106.15150963486683L28.8828125,129.6680174989787L31.289713541666668,143.8299211664967L33.696614583333336,150.03703600191906L36.103515625,153.76130490317246L38.510416666666664,155.9958662439245L40.917317708333336,157.33660304837574L43.32421875,158.14104513104647L45.731119791666664,158.6237103806489L48.13802083333333,158.91330953041037L50.544921875,160.27024978160452L52.951822916666664,166.9621498689627L55.358723958333336,163.91637322339864L57.765625,162.08890723606024L60.17252604166667,163.28245500874561L62.579427083333336,161.7085563072684L64.986328125,160.76421708638208L67.39322916666667,160.19761355385026L69.80013020833333,159.8576514343312L72.20703125,162.25948900996988L74.61393229166667,161.99192896198835L77.02083333333333,160.93424067921404L79.427734375,162.5896550746379L81.83463541666667,161.33073668370352L84.24153645833334,160.53752531224313L86.6484375,160.06159848936693L89.05533854166667,159.77604239564116L91.46223958333333,159.60470873940574L93.869140625,159.50190854566446L96.27604166666666,161.73025579450817L98.68294270833333,163.06726414381438L101.08984375,163.86946915339811L103.49674479166667,164.3378979221069L105.90364583333333,164.63184942037364L108.310546875,164.80822031933366L110.71744791666667,162.62401549362122L113.12434895833333,163.60351996328222L115.53125,164.2494186771261L117.93815104166667,162.2887345082967L120.34505208333334,162.23364313110162L122.751953125,163.36929654577048L125.15885416666667,164.05068859457177L127.56575520833333,162.1694964587641L129.97265625,162.15211787044714L132.37955729166666,163.3203813893778L134.78645833333334,161.76917247254747L137.193359375,163.00267971622407L139.60026041666666,161.54069113175544L142.00716145833331,160.6634979810743L144.4140625,160.17504242756536L146.82096354166666,162.0821371745978L149.22786458333334,161.3323591006943L151.634765625,160.5384987624376L154.04166666666666,160.0621825594836L156.44856770833331,159.77639283771117L158.85546875,159.60491900464774L161.26236979166666,161.79206206989812L163.66927083333334,163.10434790904839L166.076171875,163.89171941253852L168.48307291666669,161.89180423720663L170.88997395833334,159.7743350053071L173.296875,157.54089017416473L175.70377604166666,152.27301944318674L178.11067708333334,145.07415682091272L180.517578125,147.63713246592258L182.92447916666666,154.29547606413587L185.33138020833334,155.70437903705255L187.73828125,154.90683761538872L190.14518229166666,154.22024522603635L192.55208333333331,154.99868413139035L194.958984375,152.32494522529035L197.36588541666666,138.88277103541606L199.77278645833334,115.04667521738001L202.1796875,90.49099546207779L204.58658854166669,73.96924069841978L206.99348958333334,61.38070222926305L209.400390625,50.637872798396145L211.80729166666666,42.596467413397434L214.21419270833334,34.6042458998512L216.62109375,32.66654684468215L219.02799479166666,29.82457488968436L221.43489583333334,27.31895731803457L223.841796875,24.480084794263124L226.24869791666666,21.51330751031643L228.65559895833331,18.96133400112394L231.0625,19.1042358464599L233.46940104166666,18.097079061663155L235.87630208333334,16.970824756143095L238.283203125,16.05879809732294L240.69010416666669,15.574249233454806L243.09700520833334,15.772623160869076L245.50390625,16.386240994566794L247.91080729166666,15.220328757544825L250.31770833333334,14.664979117739465L252.724609375,13.741807876603762L255.13151041666666,13.790775596247292L257.53841145833337,13.331610023466453L259.9453125,12.228701984576995L262.3522135416667,11.528027579601174L24.069010416666664,72.9459272148702L26.475911458333332,109.79666699603162L28.8828125,136.67800019761896L31.289713541666668,145.78374375749218L33.696614583333336,151.2093295565163L36.103515625,154.46468103593082L38.510416666666664,158.70791928866797L40.917317708333336,161.25386224031027L43.32421875,160.49140064620718L45.731119791666664,167.0948403877243L48.13802083333333,163.9959875346556L50.544921875,162.1366758228144L52.951822916666664,161.02108879570966L55.358723958333336,160.35173657944682L57.765625,159.95012524968914L60.17252604166667,159.7091584518345L62.579427083333336,161.85460573821018L64.986328125,160.85184674494712L67.39322916666667,160.2501913489893L69.80013020833333,159.8891981114146L72.20703125,161.96262953395825L74.61393229166667,160.91666102239597L77.02083333333333,160.28907991545861L79.427734375,159.9125312512962L81.83463541666667,159.68660205279875L84.24153645833334,159.55104453370026L86.6484375,159.46971002224117L89.05533854166667,159.42090931536575L91.46223958333333,159.3916288912405L93.869140625,159.3740606367653L96.27604166666666,161.65354704916868L98.68294270833333,160.73121153152223L101.08984375,160.17781022093436L103.49674479166667,159.84576943458165L105.90364583333333,159.64654496277L108.310546875,159.52701027968303L110.71744791666667,161.74531683491932L113.12434895833333,160.78627340297263L115.53125,160.2108473438046L117.93815104166667,159.86559170830378L120.34505208333334,159.6584383270033L122.751953125,161.82417366331146L125.15885416666667,160.8335875000079L127.56575520833333,162.52926316711424L129.97265625,161.25664120228956L132.37955729166666,162.78309538848325L134.78645833333334,161.40894053511096L137.193359375,160.5844476230876L139.60026041666666,160.0897518758736L142.00716145833331,159.79293442754516L144.4140625,161.04221236698967L146.82096354166666,160.40227105911458L149.22786458333334,151.4485058945172L151.634765625,152.78910349379498L154.04166666666666,143.49085370642257L156.44856770833331,148.44078107739873L158.85546875,151.51272614637247L161.26236979166666,151.87430188560026L163.66927083333334,146.9227513998958L166.076171875,133.02689128698185L168.48307291666669,131.45746339309974L170.88997395833334,130.26382781832675L173.296875,126.9394383535937" style="fill: none;" fill="none"></path></g></g></g></g><g opacity="0.2"><g><g><g><path stroke="rgb(0, 119, 187)" stroke-width="2px" d="M24.069010416666664,165.07277666777372L26.475911458333332,165.07277666777372L28.8828125,165.6952556669712L31.289713541666668,159.34770825505257L33.696614583333336,165.07277666777372L36.103515625,164.90983553230762L38.510416666666664,159.34770825505257L40.917317708333336,159.34770825505257L43.32421875,165.07277666777372L45.731119791666664,159.34770825505257L48.13802083333333,165.07277666777372L50.544921875,165.07277666777372L52.951822916666664,165.07277666777372L55.358723958333336,165.07277666777372L57.765625,165.07277666777372L60.17252604166667,165.07277666777372L62.579427083333336,165.07277666777372L64.986328125,165.07277666777372L67.39322916666667,159.34770825505257L69.80013020833333,165.07277666777372L72.20703125,165.07277666777372L74.61393229166667,165.07277666777372L77.02083333333333,165.07277666777372L79.427734375,165.07277666777372L81.83463541666667,165.07277666777372L84.24153645833334,165.07277666777372L86.6484375,159.34770825505257L89.05533854166667,159.34770825505257L91.46223958333333,159.34770825505257L93.869140625,159.34770825505257L96.27604166666666,163.82293796539307L98.68294270833333,164.11012407392263L101.08984375,159.34770825505257L103.49674479166667,159.34770825505257L105.90364583333333,161.62676095962524L108.310546875,159.1662465557456L110.71744791666667,161.75929561257362L113.12434895833333,158.44759223610163L115.53125,156.06940888613462L117.93815104166667,151.13076813519L120.34505208333334,146.21739073097706L122.751953125,82.93895673751831L125.15885416666667,59.21071207523346L127.56575520833333,45.77870875597L129.97265625,48.6231107711792L132.37955729166666,43.232756316661835L134.78645833333334,31.969763696193695L137.193359375,29.420910000801086L139.60026041666666,24.719366490840912L142.00716145833331,17.247988522052765L144.4140625,16.333111703395844L146.82096354166666,15.53456997871399L149.22786458333334,16.06974095106125L151.634765625,15.242323815822601L154.04166666666666,16.06974095106125L156.44856770833331,15.47731500864029L158.85546875,15.9552521109581L161.26236979166666,15.53241777420044L163.66927083333334,15.671878516674042L166.076171875,15.692303359508514L168.48307291666669,15.049047410488129L170.88997395833334,15.391300678253174L173.296875,14.122955918312073L175.70377604166666,14.238721311092377L178.11067708333334,13.552474021911621L180.517578125,14.894320785999298L182.92447916666666,12.567355155944824L185.33138020833334,13.767958223819733L187.73828125,12.206892549991608L190.14518229166666,12.651227831840515L192.55208333333331,11.328001856803894L194.958984375,12.492745399475098L197.36588541666666,11.612324953079224L199.77278645833334,11.551092624664307L202.1796875,9.853119313716888L204.58658854166669,11.479816675186157L206.99348958333334,12.186889708042145L209.400390625,12.675777733325958L211.80729166666666,10.398017406463623L214.21419270833334,15.303239643573761L216.62109375,10.662654161453247L219.02799479166666,10.836729526519775L221.43489583333334,14.703238785266876L223.841796875,9.570758521556854L226.24869791666666,11.679053843021393L228.65559895833331,10.231896758079529L231.0625,13.58027333021164L233.46940104166666,14.038703441619873L235.87630208333334,11.472220659255981L238.283203125,11.690880417823792L240.69010416666669,11.953248918056488L243.09700520833334,11.930007219314575L245.50390625,9.782180964946747L247.91080729166666,11.258361160755157L250.31770833333334,13.153102934360504L252.724609375,11.693000972270966L255.13151041666666,14.521314203739166L257.53841145833337,12.031371831893921L259.9453125,11.685436606407166L262.3522135416667,10.63167929649353L24.069010416666664,159.34770825505257L26.475911458333332,159.34770825505257L28.8828125,164.94277929514647L31.289713541666668,165.07277666777372L33.696614583333336,159.34770825505257L36.103515625,159.34770825505257L38.510416666666664,159.34770825505257L40.917317708333336,159.34770825505257L43.32421875,159.34770825505257L45.731119791666664,159.34770825505257L48.13802083333333,159.34770825505257L50.544921875,162.30566015839577L52.951822916666664,177L55.358723958333336,159.34770825505257L57.765625,159.34770825505257L60.17252604166667,165.07277666777372L62.579427083333336,159.34770825505257L64.986328125,159.34770825505257L67.39322916666667,159.34770825505257L69.80013020833333,159.34770825505257L72.20703125,165.86224537342787L74.61393229166667,161.59058889001608L77.02083333333333,159.34770825505257L79.427734375,165.07277666777372L81.83463541666667,159.44235909730196L84.24153645833334,159.34770825505257L86.6484375,159.34770825505257L89.05533854166667,159.34770825505257L91.46223958333333,159.34770825505257L93.869140625,159.34770825505257L96.27604166666666,165.07277666777372L98.68294270833333,165.07277666777372L101.08984375,165.07277666777372L103.49674479166667,165.04054107517004L105.90364583333333,165.07277666777372L108.310546875,165.07277666777372L110.71744791666667,159.34770825505257L113.12434895833333,165.07277666777372L115.53125,165.2182667478919L117.93815104166667,159.34770825505257L120.34505208333334,162.15100606530905L122.751953125,165.07277666777372L125.15885416666667,165.07277666777372L127.56575520833333,159.34770825505257L129.97265625,162.12604998797178L132.37955729166666,165.07277666777372L134.78645833333334,159.44235909730196L137.193359375,164.85294058173895L139.60026041666666,159.34770825505257L142.00716145833331,159.34770825505257L144.4140625,159.44235909730196L146.82096354166666,164.94277929514647L149.22786458333334,160.20769198983908L151.634765625,159.34770825505257L154.04166666666666,159.34770825505257L156.44856770833331,159.34770825505257L158.85546875,159.34770825505257L161.26236979166666,165.07277666777372L163.66927083333334,165.07277666777372L166.076171875,165.07277666777372L168.48307291666669,158.89193147420883L170.88997395833334,156.59813115745783L173.296875,154.19072292745113L175.70377604166666,144.37121334671974L178.11067708333334,134.27586288750172L180.517578125,151.48159593343735L182.92447916666666,164.28299146145582L185.33138020833334,157.81773349642754L187.73828125,153.710525482893L190.14518229166666,153.19035664200783L192.55208333333331,156.16634248942137L194.958984375,148.31433686614037L197.36588541666666,118.71950975060463L199.77278645833334,79.29253149032593L202.1796875,53.65747582912445L204.58658854166669,49.18660855293274L206.99348958333334,42.497894525527954L209.400390625,34.523628652095795L211.80729166666666,30.534359335899353L214.21419270833334,22.61591362953186L216.62109375,29.75999826192856L219.02799479166666,25.561616957187653L221.43489583333334,23.560530960559845L223.841796875,20.221776008605957L226.24869791666666,17.063141584396362L228.65559895833331,15.133373737335205L231.0625,19.318588614463806L233.46940104166666,16.58634388446808L235.87630208333334,15.281443297863007L238.283203125,14.690758109092712L240.69010416666669,14.847425937652588L243.09700520833334,16.07018405199051L245.50390625,17.306667745113373L247.91080729166666,13.471460402011871L250.31770833333334,13.831954658031464L252.724609375,12.357051014900208L255.13151041666666,13.864227175712585L257.53841145833337,12.642861664295197L259.9453125,10.574339926242828L262.3522135416667,10.477015972137451L24.069010416666664,165.07277666777372L26.475911458333332,165.07277666777372L28.8828125,177L31.289713541666668,159.44235909730196L33.696614583333336,159.34770825505257L36.103515625,159.34770825505257L38.510416666666664,165.07277666777372L40.917317708333336,165.07277666777372L43.32421875,159.34770825505257L45.731119791666664,177L48.13802083333333,159.34770825505257L50.544921875,159.34770825505257L52.951822916666664,159.34770825505257L55.358723958333336,159.34770825505257L57.765625,159.34770825505257L60.17252604166667,159.34770825505257L62.579427083333336,165.07277666777372L64.986328125,159.34770825505257L67.39322916666667,159.34770825505257L69.80013020833333,159.34770825505257L72.20703125,165.07277666777372L74.61393229166667,159.34770825505257L77.02083333333333,159.34770825505257L79.427734375,159.34770825505257L81.83463541666667,159.34770825505257L84.24153645833334,159.34770825505257L86.6484375,159.34770825505257L89.05533854166667,159.34770825505257L91.46223958333333,159.34770825505257L93.869140625,159.34770825505257L96.27604166666666,165.07277666777372L98.68294270833333,159.34770825505257L101.08984375,159.34770825505257L103.49674479166667,159.34770825505257L105.90364583333333,159.34770825505257L108.310546875,159.34770825505257L110.71744791666667,165.07277666777372L113.12434895833333,159.34770825505257L115.53125,159.34770825505257L117.93815104166667,159.34770825505257L120.34505208333334,159.34770825505257L122.751953125,165.07277666777372L125.15885416666667,159.34770825505257L127.56575520833333,165.07277666777372L129.97265625,159.34770825505257L132.37955729166666,165.07277666777372L134.78645833333334,159.34770825505257L137.193359375,159.34770825505257L139.60026041666666,159.34770825505257L142.00716145833331,159.34770825505257L144.4140625,162.91612927615643L146.82096354166666,159.44235909730196L149.22786458333334,138.01785814762115L151.634765625,154.79999989271164L154.04166666666666,129.54347902536392L156.44856770833331,155.86567213386297L158.85546875,156.1206437498331L161.26236979166666,152.416665494442L163.66927083333334,139.49542567133904L166.076171875,112.18310111761093L168.48307291666669,129.1033215522766L170.88997395833334,128.47337445616722L173.296875,121.95285415649414" style="fill: none;" fill="none"></path></g></g></g></g></g></g><g transform="translate(41, 177)" clip-path="url(#clip_1)"><clipPath id="clip_1"><rect width="288" height="22"></rect></clipPath><g><g><line x1="0" y1="0" x2="0" y2="5" style="visibility: inherit;" fill="rgb(0, 0, 0)" stroke="rgb(204, 204, 204)" stroke-width="1px"></line><line x1="24.069010416666664" y1="0" x2="24.069010416666664" y2="5" style="visibility: inherit;" fill="rgb(0, 0, 0)" stroke="rgb(204, 204, 204)" stroke-width="1px"></line><line x1="48.13802083333333" y1="0" x2="48.13802083333333" y2="5" style="visibility: inherit;" fill="rgb(0, 0, 0)" stroke="rgb(204, 204, 204)" stroke-width="1px"></line><line x1="72.20703125" y1="0" x2="72.20703125" y2="5" style="visibility: inherit;" fill="rgb(0, 0, 0)" stroke="rgb(204, 204, 204)" stroke-width="1px"></line><line x1="96.27604166666666" y1="0" x2="96.27604166666666" y2="5" style="visibility: inherit;" fill="rgb(0, 0, 0)" stroke="rgb(204, 204, 204)" stroke-width="1px"></line><line x1="120.34505208333334" y1="0" x2="120.34505208333334" y2="5" style="visibility: inherit;" fill="rgb(0, 0, 0)" stroke="rgb(204, 204, 204)" stroke-width="1px"></line><line x1="144.4140625" y1="0" x2="144.4140625" y2="5" style="visibility: inherit;" fill="rgb(0, 0, 0)" stroke="rgb(204, 204, 204)" stroke-width="1px"></line><line x1="168.48307291666669" y1="0" x2="168.48307291666669" y2="5" style="visibility: inherit;" fill="rgb(0, 0, 0)" stroke="rgb(204, 204, 204)" stroke-width="1px"></line><line x1="192.55208333333331" y1="0" x2="192.55208333333331" y2="5" style="visibility: inherit;" fill="rgb(0, 0, 0)" stroke="rgb(204, 204, 204)" stroke-width="1px"></line><line x1="216.62109375" y1="0" x2="216.62109375" y2="5" style="visibility: inherit;" fill="rgb(0, 0, 0)" stroke="rgb(204, 204, 204)" stroke-width="1px"></line><line x1="240.69010416666669" y1="0" x2="240.69010416666669" y2="5" style="visibility: inherit;" fill="rgb(0, 0, 0)" stroke="rgb(204, 204, 204)" stroke-width="1px"></line><line x1="264.7591145833333" y1="0" x2="264.7591145833333" y2="5" style="visibility: inherit;" fill="rgb(0, 0, 0)" stroke="rgb(204, 204, 204)" stroke-width="1px"></line><line x1="288.828125" y1="0" x2="288.828125" y2="5" style="visibility: inherit;" fill="rgb(0, 0, 0)" stroke="rgb(204, 204, 204)" stroke-width="1px"></line></g><g transform="translate(0, 8)"><text x="0" y="0" dx="0em" dy="0.95em" style="text-anchor: middle; visibility: hidden; font-family: Roboto, sans-serif; font-size: 12px; font-weight: 200;" fill="rgb(255, 255, 255)" stroke="none" stroke-width="1px">-10</text><text x="24.069010416666664" y="0" dx="0em" dy="0.95em" style="text-anchor: middle; visibility: inherit; font-family: Roboto, sans-serif; font-size: 12px; font-weight: 200;" fill="rgb(255, 255, 255)" stroke="none" stroke-width="1px">0</text><text x="48.13802083333333" y="0" dx="0em" dy="0.95em" style="text-anchor: middle; visibility: inherit; font-family: Roboto, sans-serif; font-size: 12px; font-weight: 200;" fill="rgb(255, 255, 255)" stroke="none" stroke-width="1px">10</text><text x="72.20703125" y="0" dx="0em" dy="0.95em" style="text-anchor: middle; visibility: inherit; font-family: Roboto, sans-serif; font-size: 12px; font-weight: 200;" fill="rgb(255, 255, 255)" stroke="none" stroke-width="1px">20</text><text x="96.27604166666666" y="0" dx="0em" dy="0.95em" style="text-anchor: middle; visibility: inherit; font-family: Roboto, sans-serif; font-size: 12px; font-weight: 200;" fill="rgb(255, 255, 255)" stroke="none" stroke-width="1px">30</text><text x="120.34505208333334" y="0" dx="0em" dy="0.95em" style="text-anchor: middle; visibility: inherit; font-family: Roboto, sans-serif; font-size: 12px; font-weight: 200;" fill="rgb(255, 255, 255)" stroke="none" stroke-width="1px">40</text><text x="144.4140625" y="0" dx="0em" dy="0.95em" style="text-anchor: middle; visibility: inherit; font-family: Roboto, sans-serif; font-size: 12px; font-weight: 200;" fill="rgb(255, 255, 255)" stroke="none" stroke-width="1px">50</text><text x="168.48307291666669" y="0" dx="0em" dy="0.95em" style="text-anchor: middle; visibility: inherit; font-family: Roboto, sans-serif; font-size: 12px; font-weight: 200;" fill="rgb(255, 255, 255)" stroke="none" stroke-width="1px">60</text><text x="192.55208333333331" y="0" dx="0em" dy="0.95em" style="text-anchor: middle; visibility: inherit; font-family: Roboto, sans-serif; font-size: 12px; font-weight: 200;" fill="rgb(255, 255, 255)" stroke="none" stroke-width="1px">70</text><text x="216.62109375" y="0" dx="0em" dy="0.95em" style="text-anchor: middle; visibility: inherit; font-family: Roboto, sans-serif; font-size: 12px; font-weight: 200;" fill="rgb(255, 255, 255)" stroke="none" stroke-width="1px">80</text><text x="240.69010416666669" y="0" dx="0em" dy="0.95em" style="text-anchor: middle; visibility: inherit; font-family: Roboto, sans-serif; font-size: 12px; font-weight: 200;" fill="rgb(255, 255, 255)" stroke="none" stroke-width="1px">90</text><text x="264.7591145833333" y="0" dx="0em" dy="0.95em" style="text-anchor: middle; visibility: inherit; font-family: Roboto, sans-serif; font-size: 12px; font-weight: 200;" fill="rgb(255, 255, 255)" stroke="none" stroke-width="1px">100</text><text x="288.828125" y="0" dx="0em" dy="0.95em" style="text-anchor: middle; visibility: hidden; font-family: Roboto, sans-serif; font-size: 12px; font-weight: 200;" fill="rgb(255, 255, 255)" stroke="none" stroke-width="1px">110</text></g><line x1="0" y1="0" x2="288.828125" y2="0" fill="rgb(0, 0, 0)" stroke="rgb(204, 204, 204)" stroke-width="1px"></line></g></g></g></g></svg>