<svg viewBox="0 0 330.0000305175781 200.00001525878906" xmlns="http://www.w3.org/2000/svg"><g><g><g><g><g><line x1="51.5625" y1="177" x2="46.5625" y2="177" style="visibility: inherit;" fill="rgb(0, 0, 0)" stroke="rgb(204, 204, 204)" stroke-width="1px"></line><line x1="51.5625" y1="157.33333333333331" x2="46.5625" y2="157.33333333333331" style="visibility: inherit;" fill="rgb(0, 0, 0)" stroke="rgb(204, 204, 204)" stroke-width="1px"></line><line x1="51.5625" y1="137.66666666666666" x2="46.5625" y2="137.66666666666666" style="visibility: inherit;" fill="rgb(0, 0, 0)" stroke="rgb(204, 204, 204)" stroke-width="1px"></line><line x1="51.5625" y1="118" x2="46.5625" y2="118" style="visibility: inherit;" fill="rgb(0, 0, 0)" stroke="rgb(204, 204, 204)" stroke-width="1px"></line><line x1="51.5625" y1="98.33333333333334" x2="46.5625" y2="98.33333333333334" style="visibility: inherit;" fill="rgb(0, 0, 0)" stroke="rgb(204, 204, 204)" stroke-width="1px"></line><line x1="51.5625" y1="78.66666666666666" x2="46.5625" y2="78.66666666666666" style="visibility: inherit;" fill="rgb(0, 0, 0)" stroke="rgb(204, 204, 204)" stroke-width="1px"></line><line x1="51.5625" y1="59.00000000000001" x2="46.5625" y2="59.00000000000001" style="visibility: inherit;" fill="rgb(0, 0, 0)" stroke="rgb(204, 204, 204)" stroke-width="1px"></line><line x1="51.5625" y1="39.33333333333335" x2="46.5625" y2="39.33333333333335" style="visibility: inherit;" fill="rgb(0, 0, 0)" stroke="rgb(204, 204, 204)" stroke-width="1px"></line><line x1="51.5625" y1="19.666666666666675" x2="46.5625" y2="19.666666666666675" style="visibility: inherit;" fill="rgb(0, 0, 0)" stroke="rgb(204, 204, 204)" stroke-width="1px"></line><line x1="51.5625" y1="0" x2="46.5625" y2="0" style="visibility: inherit;" fill="rgb(0, 0, 0)" stroke="rgb(204, 204, 204)" stroke-width="1px"></line></g><g transform="translate(41.5625, 0)"><text x="0" y="177" dx="0em" dy="0.3em" style="text-anchor: end; visibility: hidden; font-family: Roboto, sans-serif; font-size: 12px; font-weight: 200;" fill="rgb(255, 255, 255)" stroke="none" stroke-width="1px">-0.1</text><text x="0" y="157.33333333333331" dx="0em" dy="0.3em" style="text-anchor: end; visibility: inherit; font-family: Roboto, sans-serif; font-size: 12px; font-weight: 200;" fill="rgb(255, 255, 255)" stroke="none" stroke-width="1px">0</text><text x="0" y="137.66666666666666" dx="0em" dy="0.3em" style="text-anchor: end; visibility: hidden; font-family: Roboto, sans-serif; font-size: 12px; font-weight: 200;" fill="rgb(255, 255, 255)" stroke="none" stroke-width="1px">0.1</text><text x="0" y="118" dx="0em" dy="0.3em" style="text-anchor: end; visibility: inherit; font-family: Roboto, sans-serif; font-size: 12px; font-weight: 200;" fill="rgb(255, 255, 255)" stroke="none" stroke-width="1px">0.2</text><text x="0" y="98.33333333333334" dx="0em" dy="0.3em" style="text-anchor: end; visibility: hidden; font-family: Roboto, sans-serif; font-size: 12px; font-weight: 200;" fill="rgb(255, 255, 255)" stroke="none" stroke-width="1px">0.3</text><text x="0" y="78.66666666666666" dx="0em" dy="0.3em" style="text-anchor: end; visibility: inherit; font-family: Roboto, sans-serif; font-size: 12px; font-weight: 200;" fill="rgb(255, 255, 255)" stroke="none" stroke-width="1px">0.4</text><text x="0" y="59.00000000000001" dx="0em" dy="0.3em" style="text-anchor: end; visibility: hidden; font-family: Roboto, sans-serif; font-size: 12px; font-weight: 200;" fill="rgb(255, 255, 255)" stroke="none" stroke-width="1px">0.5</text><text x="0" y="39.33333333333335" dx="0em" dy="0.3em" style="text-anchor: end; visibility: inherit; font-family: Roboto, sans-serif; font-size: 12px; font-weight: 200;" fill="rgb(255, 255, 255)" stroke="none" stroke-width="1px">0.6</text><text x="0" y="19.666666666666675" dx="0em" dy="0.3em" style="text-anchor: end; visibility: hidden; font-family: Roboto, sans-serif; font-size: 12px; font-weight: 200;" fill="rgb(255, 255, 255)" stroke="none" stroke-width="1px">0.7</text><text x="0" y="0" dx="0em" dy="0.3em" style="text-anchor: end; visibility: hidden; font-family: Roboto, sans-serif; font-size: 12px; font-weight: 200;" fill="rgb(255, 255, 255)" stroke="none" stroke-width="1px">0.8</text></g><line x1="51.5625" y1="0" x2="51.5625" y2="177" fill="rgb(0, 0, 0)" stroke="rgb(204, 204, 204)" stroke-width="1px"></line></g></g><g transform="translate(51, 0)" clip-path="url(#clip_0)"><clipPath id="clip_0"><rect width="278" height="176"></rect></clipPath><g><g><g><line x1="0" y1="0" x2="0" y2="177" fill="rgb(0, 0, 0)" stroke="rgb(189, 189, 189)" stroke-width="1px" opacity="0.25"></line><line x1="23.203125" y1="0" x2="23.203125" y2="177" fill="rgb(0, 0, 0)" stroke="rgb(189, 189, 189)" stroke-width="1px" opacity="0.25"></line><line x1="46.40625" y1="0" x2="46.40625" y2="177" fill="rgb(0, 0, 0)" stroke="rgb(189, 189, 189)" stroke-width="1px" opacity="0.25"></line><line x1="69.609375" y1="0" x2="69.609375" y2="177" fill="rgb(0, 0, 0)" stroke="rgb(189, 189, 189)" stroke-width="1px" opacity="0.25"></line><line x1="92.8125" y1="0" x2="92.8125" y2="177" fill="rgb(0, 0, 0)" stroke="rgb(189, 189, 189)" stroke-width="1px" opacity="0.25"></line><line x1="116.015625" y1="0" x2="116.015625" y2="177" fill="rgb(0, 0, 0)" stroke="rgb(189, 189, 189)" stroke-width="1px" opacity="0.25"></line><line x1="139.21875" y1="0" x2="139.21875" y2="177" fill="rgb(0, 0, 0)" stroke="rgb(189, 189, 189)" stroke-width="1px" opacity="0.25"></line><line x1="162.421875" y1="0" x2="162.421875" y2="177" fill="rgb(0, 0, 0)" stroke="rgb(189, 189, 189)" stroke-width="1px" opacity="0.25"></line><line x1="185.625" y1="0" x2="185.625" y2="177" fill="rgb(0, 0, 0)" stroke="rgb(189, 189, 189)" stroke-width="1px" opacity="0.25"></line><line x1="208.828125" y1="0" x2="208.828125" y2="177" fill="rgb(0, 0, 0)" stroke="rgb(189, 189, 189)" stroke-width="1px" opacity="0.25"></line><line x1="232.03125" y1="0" x2="232.03125" y2="177" fill="rgb(0, 0, 0)" stroke="rgb(189, 189, 189)" stroke-width="1px" opacity="0.25"></line><line x1="255.234375" y1="0" x2="255.234375" y2="177" fill="rgb(0, 0, 0)" stroke="rgb(189, 189, 189)" stroke-width="1px" opacity="0.25"></line><line x1="278.4375" y1="0" x2="278.4375" y2="177" fill="rgb(0, 0, 0)" stroke="rgb(189, 189, 189)" stroke-width="1px" opacity="0.25"></line></g><g><line x1="0" y1="177" x2="278.4375" y2="177" fill="rgb(0, 0, 0)" stroke="rgb(189, 189, 189)" stroke-width="1px" opacity="0.25"></line><line x1="0" y1="157.33333333333331" x2="278.4375" y2="157.33333333333331" fill="rgb(0, 0, 0)" stroke="rgb(189, 189, 189)" stroke-width="1px" opacity="0.25"></line><line x1="0" y1="137.66666666666666" x2="278.4375" y2="137.66666666666666" fill="rgb(0, 0, 0)" stroke="rgb(189, 189, 189)" stroke-width="1px" opacity="0.25"></line><line x1="0" y1="118" x2="278.4375" y2="118" fill="rgb(0, 0, 0)" stroke="rgb(189, 189, 189)" stroke-width="1px" opacity="0.25"></line><line x1="0" y1="98.33333333333334" x2="278.4375" y2="98.33333333333334" fill="rgb(0, 0, 0)" stroke="rgb(189, 189, 189)" stroke-width="1px" opacity="0.25"></line><line x1="0" y1="78.66666666666666" x2="278.4375" y2="78.66666666666666" fill="rgb(0, 0, 0)" stroke="rgb(189, 189, 189)" stroke-width="1px" opacity="0.25"></line><line x1="0" y1="59.00000000000001" x2="278.4375" y2="59.00000000000001" fill="rgb(0, 0, 0)" stroke="rgb(189, 189, 189)" stroke-width="1px" opacity="0.25"></line><line x1="0" y1="39.33333333333335" x2="278.4375" y2="39.33333333333335" fill="rgb(0, 0, 0)" stroke="rgb(189, 189, 189)" stroke-width="1px" opacity="0.25"></line><line x1="0" y1="19.666666666666675" x2="278.4375" y2="19.666666666666675" fill="rgb(0, 0, 0)" stroke="rgb(189, 189, 189)" stroke-width="1px" opacity="0.25"></line><line x1="0" y1="0" x2="278.4375" y2="0" fill="rgb(0, 0, 0)" stroke="rgb(189, 189, 189)" stroke-width="1px" opacity="0.25"></line></g></g></g><g><g><line x1="0" y1="157.33333333333331" x2="278.4375" y2="157.33333333333331" fill="rgb(0, 0, 0)" stroke="rgb(153, 153, 153)" stroke-width="1.5px"></line></g></g><g><g><line x1="23.203125" y1="0" x2="23.203125" y2="177" fill="rgb(0, 0, 0)" stroke="rgb(153, 153, 153)" stroke-width="1.5px"></line></g></g><g><g><g><g><g><path stroke="rgb(0, 119, 187)" stroke-width="2px" d="M23.203125,157.22006435327543L25.523437499999996,157.22006435327543L27.84375,157.19583813513339L30.1640625,157.2205054852588L32.484375,157.22031415459284L34.8046875,157.2198670610008L37.125,157.23206748602084L39.4453125,157.23916542533948L41.765625,157.23144721473372L44.0859375,157.23871800815016L46.40625,157.23122937766937L48.7265625,157.22675362517282L51.04687499999999,157.22407441718227L53.36718750000001,157.2224691336525L55.6875,157.22150676901225L58.0078125,157.22092963990306L60.328125,157.22058346665645L62.6484375,157.22037580021345L64.96875,157.23203190600674L67.2890625,157.22724470988672L69.609375,157.22437250423476L71.92968750000001,157.2226492211689L74.25,157.22161526584605L76.5703125,157.22099489787826L78.890625,157.2206226789789L81.2109375,157.22039934831653L83.53125,157.232045336512L85.8515625,157.23903292180074L88.171875,157.24322547022774L90.4921875,157.24574099829525L92.8125,157.24725031477988L95.1328125,157.24115210420575L97.453125,157.2444969782857L99.7734375,157.24650390263142L102.09374999999999,157.24770805720206L104.4140625,157.20964027946584L106.73437500000001,157.20882218454878L109.0546875,157.22257230753135L111.375,157.19230293853886L113.6953125,156.58718892601988L116.015625,156.0102842450553L118.3359375,152.27018862089818L120.65625,148.00438098061875L122.9765625,141.9233916169726L125.296875,137.47222792457902L127.6171875,135.3165583451319L129.9375,130.5939434113163L132.2578125,126.64242142879385L134.578125,123.54820223909472L136.8984375,120.49096098497138L139.21875,119.83742511443751L141.5390625,118.137960089276L143.85937500000003,117.72054432612369L146.1796875,117.10251099734468L148.5,117.07722180804984L150.8203125,117.26020467115275L153.140625,116.81081859965809L155.4609375,116.87760254561717L157.78125,116.73454680136729L160.1015625,116.94467195327215L162.421875,116.78284983508864L164.7421875,116.84129905704506L167.0625,116.48059974911124L169.38281249999997,115.95621329626823L171.703125,115.6588916664206L174.0234375,116.0648468306591L176.34375,115.16452909137388L178.66406250000003,115.56627138431219L180.984375,115.18422893668422L183.3046875,114.70098706872388L185.625,114.35754278575058L187.9453125,113.70526068573001L190.265625,114.00746746360146L192.5859375,113.9600869784686L194.90625,114.02174649854102L197.2265625,113.84163330526908L199.546875,113.78384562253015L201.8671875,112.07888413222068L204.18749999999997,111.55065638672171L206.5078125,112.35913983295873L208.828125,113.39592220769634L211.1484375,113.33821502359496L213.46875000000003,112.95263250489108L215.7890625,112.61614030094388L218.109375,112.44822308316694L220.4296875,111.47161460456172L222.75,112.21130668642273L225.0703125,111.26741774194728L227.390625,110.9237168032723L229.7109375,110.13137100530449L232.03125,110.31119961177977L234.3515625,110.40235857945088L236.671875,109.93853092261993L238.99218749999997,109.86930177252796L241.3125,110.13821626687827L243.6328125,109.10099804988374L245.953125,110.39430965934716L248.27343750000003,110.95551458570074L250.59375,110.28324045880265L252.9140625,110.11019820457872L23.203125,128.8889527804636L25.523437499999996,140.15620552599452L27.84375,146.87687740450738L30.1640625,150.9101361640519L32.484375,153.3689155561475L34.8046875,154.84418319140488L37.125,155.7293437725593L39.4453125,156.26044012125195L41.765625,156.57909793046753L44.0859375,156.77029261599688L46.40625,156.88500942731451L48.7265625,156.9050604702704L51.04687499999999,157.0763696154956L53.36718750000001,157.06865562701373L55.6875,157.0640272339246L58.0078125,157.0224260617022L60.328125,157.0362894947377L62.6484375,157.04460755455898L64.96875,157.04959839045176L67.2890625,157.05259289198742L69.609375,157.05438959290885L71.92968750000001,157.05546761346167L74.25,157.0561144257934L76.5703125,157.01767837682345L78.890625,157.03344088381044L81.2109375,157.04289838800264L83.53125,157.04857289051796L85.8515625,157.05197759202713L88.171875,157.05402041293266L90.4921875,157.05524610547596L92.8125,157.01715738463304L95.1328125,156.99430415212726L97.453125,156.98059221262378L99.7734375,156.97215461627553L102.09374999999999,156.96730249111278L104.4140625,156.9643912160151L106.73437500000001,157.00146858732543L109.0546875,156.9848908737427L111.375,156.98959424259272L113.6953125,157.016590403272L116.015625,156.96877139880206L118.3359375,156.96527256062868L120.65625,156.96317325772463L122.9765625,157.00073781235116L125.296875,156.95897405953565L127.6171875,156.95939415706883L129.9375,156.99847035195768L132.2578125,156.98315287904742L134.578125,157.0127255851448L136.8984375,157.03046920880328L139.21875,157.04111538299833L141.5390625,157.00782331870965L143.85937500000003,157.02752784894219L146.1796875,157.03935056708167L148.5,157.04644419796537L150.8203125,157.0507003764956L153.140625,157.05325408361372L155.4609375,157.01596217151567L157.78125,156.99358702425684L160.1015625,156.98016193590155L162.421875,156.6345816643184L164.7421875,156.78637109963842L167.0625,156.71362179187437L169.38281249999997,154.80187321405114L171.703125,153.1722376289L174.0234375,152.30286537460665L176.34375,151.72445975155938L178.66406250000003,146.5419851744849L180.984375,142.06946160026462L183.3046875,139.43053067700905L185.625,136.11216002887593L187.9453125,128.32322176408434L190.265625,116.79413206643858L192.5859375,106.26476798415383L194.90625,92.10069483494877L197.2265625,83.92144772594841L199.546875,73.84386580697104L201.8671875,64.48191359149259L204.18749999999997,54.565045578321886L206.5078125,47.651318571790696L208.828125,41.61295447060941L211.1484375,37.38852379307835L213.46875000000003,32.396685522312076L215.7890625,31.283490817654624L218.109375,27.844031604672583L220.4296875,23.03697521242207L222.75,20.875858649130898L225.0703125,19.361370609909063L227.390625,21.884679694996144L229.7109375,23.459128495072843L232.03125,22.760831107307798L234.3515625,21.26664130863112L236.671875,19.090780168632033L238.99218749999997,17.048374917026L241.3125,15.973600148707018L243.6328125,16.26419871621294L245.953125,14.105638497509345L248.27343750000003,12.04697616503901L250.59375,11.586736501890028L252.9140625,13.871786408605733L23.203125,71.10708156651087L25.523437499999996,105.44825866125399L27.84375,126.20228853008572L30.1640625,138.5442069757678L32.484375,145.94935804317706L34.8046875,150.3924486836226L37.125,153.019478931521L39.4453125,154.59569708026004L41.765625,155.5802521058724L44.0859375,156.28148459685679L46.40625,156.59172461583043L48.7265625,156.77786862721464L51.04687499999999,156.88955503404515L53.36718750000001,156.95656687814346L55.6875,156.99677398460244L58.0078125,157.02089824847783L60.328125,156.99654867043415L62.6484375,157.02076305997684L64.96875,157.03529169370248L67.2890625,157.04400887393786L69.609375,157.01041504571015L71.92968750000001,157.02908288514246L74.25,157.04028358880183L76.5703125,157.04700401099748L78.890625,157.05103626431486L81.2109375,157.05345561630529L83.53125,157.05490722749954L85.8515625,157.0557781942161L88.171875,157.056300774246L90.4921875,157.05661432226398L92.8125,157.01797831470583L95.1328125,157.0336208465399L97.453125,157.04300636564028L99.7734375,157.04863767710054L102.09374999999999,157.05201646397668L104.4140625,157.0540437361024L106.73437500000001,157.0164359630089L109.0546875,157.0326954355217L111.375,157.0424511190294L113.6953125,157.04830452913401L116.015625,157.05181657519677L118.3359375,157.0150996664655L120.65625,157.03189365759567L122.9765625,157.00314591590487L125.296875,157.02472140725928L127.6171875,156.998842565703L129.9375,157.02213939713818L132.2578125,157.03611749599926L134.578125,157.04450435531592L136.8984375,157.04953647090593L139.21875,157.05255574025992L141.5390625,157.0513063759652L143.85937500000003,156.91863629522456L146.1796875,156.94167432223404L148.5,156.78298941324937L150.8203125,155.28516416244182L153.140625,153.6278539925365L155.4609375,145.0877614992588L157.78125,142.37725683715317L160.1015625,139.09652711748902L162.421875,133.7369388210763L164.7421875,125.61992220886486L167.0625,115.4926010497884" style="fill: none;" fill="none"></path></g></g></g></g><g opacity="0.2"><g><g><g><path stroke="rgb(0, 119, 187)" stroke-width="2px" d="M23.203125,157.22006435327543L25.523437499999996,157.22006435327543L27.84375,157.172580965717L30.1640625,157.2495142890063L32.484375,157.22006435327543L34.8046875,157.21924856960928L37.125,157.2495142890063L39.4453125,157.2495142890063L41.765625,157.22006435327543L44.0859375,157.2495142890063L46.40625,157.22006435327543L48.7265625,157.22006435327543L51.04687499999999,157.22006435327543L53.36718750000001,157.22006435327543L55.6875,157.22006435327543L58.0078125,157.22006435327543L60.328125,157.22006435327543L62.6484375,157.22006435327543L64.96875,157.2495142890063L67.2890625,157.22006435327543L69.609375,157.22006435327543L71.92968750000001,157.22006435327543L74.25,157.22006435327543L76.5703125,157.22006435327543L78.890625,157.22006435327543L81.2109375,157.22006435327543L83.53125,157.2495142890063L85.8515625,157.2495142890063L88.171875,157.2495142890063L90.4921875,157.2495142890063L92.8125,157.2495142890063L95.1328125,157.23200478955792L97.453125,157.2495142890063L99.7734375,157.2495142890063L102.09374999999999,157.2495142890063L104.4140625,157.1525386138431L106.73437500000001,157.20759504218586L109.0546875,157.24319749187757L111.375,157.14689888521872L113.6953125,155.67951790926358L116.015625,155.1449272247652L118.3359375,146.6600451891621L120.65625,141.60566952327886L122.9765625,132.80190757413703L125.296875,130.79548238714537L127.6171875,132.08305397629738L129.9375,123.51002101103464L132.2578125,120.71513845523201L134.578125,118.90687345465025L136.8984375,115.90509910384814L139.21875,118.85712130864464L141.5390625,115.5887625515461L143.85937500000003,117.09442068139711L146.1796875,116.17546100417772L148.5,117.03928802410762L150.8203125,117.53467896580696L153.140625,116.1367394924164L155.4609375,116.97777846455574L157.78125,116.51996318499248L160.1015625,117.25985968112946L162.421875,116.54011665781339L164.7421875,116.9289728899797L167.0625,115.93955078721046L169.38281249999997,115.16963361700377L171.703125,115.21290922164917L174.0234375,116.67377957701683L176.34375,113.81405248244606L178.66406250000003,116.16888482371967L180.984375,114.61116526524226L183.3046875,113.97612426678339L185.625,113.8423763612906L187.9453125,112.7268375356992L190.265625,114.46077763040861L192.5859375,113.8890162507693L194.90625,114.11423577864966L197.2265625,113.57146351536116L199.546875,113.69716409842174L201.8671875,109.5214418967565L204.18749999999997,110.7583147684733L206.5078125,113.57186500231425L208.828125,114.95109576980273L211.1484375,113.25165424744287L213.46875000000003,112.37425872683527L215.7890625,112.11140199502309L218.109375,112.19634725650153L220.4296875,110.00670188665391L222.75,113.32084480921428L225.0703125,109.8515843252341L227.390625,110.40816539525986L229.7109375,108.9428523083528L232.03125,110.58094252149263L234.3515625,110.53909703095755L236.671875,109.24278943737349L238.99218749999997,109.76545804738998L241.3125,110.54158800840379L243.6328125,107.54517072439195L245.953125,112.33427707354227L248.27343750000003,111.79732197523117L250.59375,109.2748292684555L252.9140625,109.85063482324283L23.203125,157.05708464429094L25.523437499999996,157.05708464429094L27.84375,156.95788522227667L30.1640625,156.96002430336858L32.484375,157.05708464429094L34.8046875,157.05708464429094L37.125,157.05708464429094L39.4453125,157.05708464429094L41.765625,157.05708464429094L44.0859375,157.05708464429094L46.40625,157.05708464429094L48.7265625,156.9351370347043L51.04687499999999,157.33333333333331L53.36718750000001,157.05708464429094L55.6875,157.05708464429094L58.0078125,156.96002430336858L60.328125,157.05708464429094L62.6484375,157.05708464429094L64.96875,157.05708464429094L67.2890625,157.05708464429094L69.609375,157.05708464429094L71.92968750000001,157.05708464429094L74.25,157.05708464429094L76.5703125,156.96002430336858L78.890625,157.05708464429094L81.2109375,157.05708464429094L83.53125,157.05708464429094L85.8515625,157.05708464429094L88.171875,157.05708464429094L90.4921875,157.05708464429094L92.8125,156.96002430336858L95.1328125,156.96002430336858L97.453125,156.96002430336858L99.7734375,156.95949822175317L102.09374999999999,156.96002430336858L104.4140625,156.96002430336858L106.73437500000001,157.05708464429094L109.0546875,156.96002430336858L111.375,156.99664929586774L113.6953125,157.05708464429094L116.015625,156.8970428920972L118.3359375,156.96002430336858L120.65625,156.96002430336858L122.9765625,157.05708464429094L125.296875,156.89632843031237L127.6171875,156.96002430336858L129.9375,157.05708464429094L132.2578125,156.96017666968206L134.578125,157.05708464429094L136.8984375,157.05708464429094L139.21875,157.05708464429094L141.5390625,156.95788522227667L143.85937500000003,157.05708464429094L146.1796875,157.05708464429094L148.5,157.05708464429094L150.8203125,157.05708464429094L153.140625,157.05708464429094L155.4609375,156.96002430336858L157.78125,156.96002430336858L160.1015625,156.96002430336858L162.421875,156.11621125694364L164.7421875,157.01405525261845L167.0625,156.60449783022824L169.38281249999997,151.93425034731627L171.703125,150.72778425117335L174.0234375,150.99880699316662L176.34375,150.85685131698847L178.66406250000003,138.76827330887318L180.984375,135.3606762389342L183.3046875,135.4721342921257L185.625,131.13460405667624L187.9453125,116.63981436689694L190.265625,99.50049751996994L192.5859375,90.47072186072668L194.90625,70.8545851111412L197.2265625,71.65257706244786L199.546875,58.72749292850495L201.8671875,50.438985268274955L204.18749999999997,39.68974355856579L206.5078125,37.280728061993926L208.828125,32.5554083188375L211.1484375,31.05187777678172L213.46875000000003,24.908928116162627L215.7890625,29.613698760668438L218.109375,22.68484278519949L220.4296875,15.826390624046338L222.75,17.63418380419414L225.0703125,17.08963855107626L227.390625,25.669643322626765L229.7109375,25.820801695187903L232.03125,21.713385025660212L234.3515625,19.025356610616054L236.671875,15.82698845863343L238.99218749999997,13.984767039616907L241.3125,14.361437996228547L243.6328125,16.70009656747184L245.953125,10.86779816945395L248.27343750000003,8.958982666333528L250.59375,10.896377007166548L252.9140625,17.299361268679316L23.203125,156.96002430336858L25.523437499999996,156.96002430336858L27.84375,157.33333333333331L30.1640625,157.05708464429094L32.484375,157.05708464429094L34.8046875,157.05708464429094L37.125,156.96002430336858L39.4453125,156.96002430336858L41.765625,157.05708464429094L44.0859375,157.33333333333331L46.40625,157.05708464429094L48.7265625,157.05708464429094L51.04687499999999,157.05708464429094L53.36718750000001,157.05708464429094L55.6875,157.05708464429094L58.0078125,157.05708464429094L60.328125,156.96002430336858L62.6484375,157.05708464429094L64.96875,157.05708464429094L67.2890625,157.05708464429094L69.609375,156.96002430336858L71.92968750000001,157.05708464429094L74.25,157.05708464429094L76.5703125,157.05708464429094L78.890625,157.05708464429094L81.2109375,157.05708464429094L83.53125,157.05708464429094L85.8515625,157.05708464429094L88.171875,157.05708464429094L90.4921875,157.05708464429094L92.8125,156.96002430336858L95.1328125,157.05708464429094L97.453125,157.05708464429094L99.7734375,157.05708464429094L102.09374999999999,157.05708464429094L104.4140625,157.05708464429094L106.73437500000001,156.96002430336858L109.0546875,157.05708464429094L111.375,157.05708464429094L113.6953125,157.05708464429094L116.015625,157.05708464429094L118.3359375,156.96002430336858L120.65625,157.05708464429094L122.9765625,156.96002430336858L125.296875,157.05708464429094L127.6171875,156.96002430336858L129.9375,157.05708464429094L132.2578125,157.05708464429094L134.578125,157.05708464429094L136.8984375,157.05708464429094L139.21875,157.05708464429094L141.5390625,157.04943232952306L143.85937500000003,156.7196311741136L146.1796875,156.97623136274825L148.5,156.54496204977235L150.8203125,153.0384262862305L153.140625,151.14188873767853L155.4609375,132.2776227593422L157.78125,138.31149984399477L160.1015625,134.1754325379928L162.421875,125.69755637645721L164.7421875,113.44439729054768L167.0625,100.30161931117377" style="fill: none;" fill="none"></path></g></g></g></g></g></g><g transform="translate(51, 177)" clip-path="url(#clip_1)"><clipPath id="clip_1"><rect width="278" height="22"></rect></clipPath><g><g><line x1="0" y1="0" x2="0" y2="5" style="visibility: inherit;" fill="rgb(0, 0, 0)" stroke="rgb(204, 204, 204)" stroke-width="1px"></line><line x1="23.203125" y1="0" x2="23.203125" y2="5" style="visibility: inherit;" fill="rgb(0, 0, 0)" stroke="rgb(204, 204, 204)" stroke-width="1px"></line><line x1="46.40625" y1="0" x2="46.40625" y2="5" style="visibility: inherit;" fill="rgb(0, 0, 0)" stroke="rgb(204, 204, 204)" stroke-width="1px"></line><line x1="69.609375" y1="0" x2="69.609375" y2="5" style="visibility: inherit;" fill="rgb(0, 0, 0)" stroke="rgb(204, 204, 204)" stroke-width="1px"></line><line x1="92.8125" y1="0" x2="92.8125" y2="5" style="visibility: inherit;" fill="rgb(0, 0, 0)" stroke="rgb(204, 204, 204)" stroke-width="1px"></line><line x1="116.015625" y1="0" x2="116.015625" y2="5" style="visibility: inherit;" fill="rgb(0, 0, 0)" stroke="rgb(204, 204, 204)" stroke-width="1px"></line><line x1="139.21875" y1="0" x2="139.21875" y2="5" style="visibility: inherit;" fill="rgb(0, 0, 0)" stroke="rgb(204, 204, 204)" stroke-width="1px"></line><line x1="162.421875" y1="0" x2="162.421875" y2="5" style="visibility: inherit;" fill="rgb(0, 0, 0)" stroke="rgb(204, 204, 204)" stroke-width="1px"></line><line x1="185.625" y1="0" x2="185.625" y2="5" style="visibility: inherit;" fill="rgb(0, 0, 0)" stroke="rgb(204, 204, 204)" stroke-width="1px"></line><line x1="208.828125" y1="0" x2="208.828125" y2="5" style="visibility: inherit;" fill="rgb(0, 0, 0)" stroke="rgb(204, 204, 204)" stroke-width="1px"></line><line x1="232.03125" y1="0" x2="232.03125" y2="5" style="visibility: inherit;" fill="rgb(0, 0, 0)" stroke="rgb(204, 204, 204)" stroke-width="1px"></line><line x1="255.234375" y1="0" x2="255.234375" y2="5" style="visibility: inherit;" fill="rgb(0, 0, 0)" stroke="rgb(204, 204, 204)" stroke-width="1px"></line><line x1="278.4375" y1="0" x2="278.4375" y2="5" style="visibility: inherit;" fill="rgb(0, 0, 0)" stroke="rgb(204, 204, 204)" stroke-width="1px"></line></g><g transform="translate(0, 8)"><text x="0" y="0" dx="0em" dy="0.95em" style="text-anchor: middle; visibility: hidden; font-family: Roboto, sans-serif; font-size: 12px; font-weight: 200;" fill="rgb(255, 255, 255)" stroke="none" stroke-width="1px">-10</text><text x="23.203125" y="0" dx="0em" dy="0.95em" style="text-anchor: middle; visibility: inherit; font-family: Roboto, sans-serif; font-size: 12px; font-weight: 200;" fill="rgb(255, 255, 255)" stroke="none" stroke-width="1px">0</text><text x="46.40625" y="0" dx="0em" dy="0.95em" style="text-anchor: middle; visibility: inherit; font-family: Roboto, sans-serif; font-size: 12px; font-weight: 200;" fill="rgb(255, 255, 255)" stroke="none" stroke-width="1px">10</text><text x="69.609375" y="0" dx="0em" dy="0.95em" style="text-anchor: middle; visibility: inherit; font-family: Roboto, sans-serif; font-size: 12px; font-weight: 200;" fill="rgb(255, 255, 255)" stroke="none" stroke-width="1px">20</text><text x="92.8125" y="0" dx="0em" dy="0.95em" style="text-anchor: middle; visibility: inherit; font-family: Roboto, sans-serif; font-size: 12px; font-weight: 200;" fill="rgb(255, 255, 255)" stroke="none" stroke-width="1px">30</text><text x="116.015625" y="0" dx="0em" dy="0.95em" style="text-anchor: middle; visibility: inherit; font-family: Roboto, sans-serif; font-size: 12px; font-weight: 200;" fill="rgb(255, 255, 255)" stroke="none" stroke-width="1px">40</text><text x="139.21875" y="0" dx="0em" dy="0.95em" style="text-anchor: middle; visibility: inherit; font-family: Roboto, sans-serif; font-size: 12px; font-weight: 200;" fill="rgb(255, 255, 255)" stroke="none" stroke-width="1px">50</text><text x="162.421875" y="0" dx="0em" dy="0.95em" style="text-anchor: middle; visibility: inherit; font-family: Roboto, sans-serif; font-size: 12px; font-weight: 200;" fill="rgb(255, 255, 255)" stroke="none" stroke-width="1px">60</text><text x="185.625" y="0" dx="0em" dy="0.95em" style="text-anchor: middle; visibility: inherit; font-family: Roboto, sans-serif; font-size: 12px; font-weight: 200;" fill="rgb(255, 255, 255)" stroke="none" stroke-width="1px">70</text><text x="208.828125" y="0" dx="0em" dy="0.95em" style="text-anchor: middle; visibility: inherit; font-family: Roboto, sans-serif; font-size: 12px; font-weight: 200;" fill="rgb(255, 255, 255)" stroke="none" stroke-width="1px">80</text><text x="232.03125" y="0" dx="0em" dy="0.95em" style="text-anchor: middle; visibility: inherit; font-family: Roboto, sans-serif; font-size: 12px; font-weight: 200;" fill="rgb(255, 255, 255)" stroke="none" stroke-width="1px">90</text><text x="255.234375" y="0" dx="0em" dy="0.95em" style="text-anchor: middle; visibility: inherit; font-family: Roboto, sans-serif; font-size: 12px; font-weight: 200;" fill="rgb(255, 255, 255)" stroke="none" stroke-width="1px">100</text><text x="278.4375" y="0" dx="0em" dy="0.95em" style="text-anchor: middle; visibility: hidden; font-family: Roboto, sans-serif; font-size: 12px; font-weight: 200;" fill="rgb(255, 255, 255)" stroke="none" stroke-width="1px">110</text></g><line x1="0" y1="0" x2="278.4375" y2="0" fill="rgb(0, 0, 0)" stroke="rgb(204, 204, 204)" stroke-width="1px"></line></g></g></g></g></svg>