<svg viewBox="0 0 330.0000305175781 200.00001525878906" xmlns="http://www.w3.org/2000/svg"><g><g><g><g><g><line x1="51.5625" y1="177" x2="46.5625" y2="177" style="visibility: inherit;" fill="rgb(0, 0, 0)" stroke="rgb(204, 204, 204)" stroke-width="1px"></line><line x1="51.5625" y1="154.875" x2="46.5625" y2="154.875" style="visibility: inherit;" fill="rgb(0, 0, 0)" stroke="rgb(204, 204, 204)" stroke-width="1px"></line><line x1="51.5625" y1="132.75" x2="46.5625" y2="132.75" style="visibility: inherit;" fill="rgb(0, 0, 0)" stroke="rgb(204, 204, 204)" stroke-width="1px"></line><line x1="51.5625" y1="110.62499999999999" x2="46.5625" y2="110.62499999999999" style="visibility: inherit;" fill="rgb(0, 0, 0)" stroke="rgb(204, 204, 204)" stroke-width="1px"></line><line x1="51.5625" y1="88.49999999999999" x2="46.5625" y2="88.49999999999999" style="visibility: inherit;" fill="rgb(0, 0, 0)" stroke="rgb(204, 204, 204)" stroke-width="1px"></line><line x1="51.5625" y1="66.375" x2="46.5625" y2="66.375" style="visibility: inherit;" fill="rgb(0, 0, 0)" stroke="rgb(204, 204, 204)" stroke-width="1px"></line><line x1="51.5625" y1="44.25" x2="46.5625" y2="44.25" style="visibility: inherit;" fill="rgb(0, 0, 0)" stroke="rgb(204, 204, 204)" stroke-width="1px"></line><line x1="51.5625" y1="22.125" x2="46.5625" y2="22.125" style="visibility: inherit;" fill="rgb(0, 0, 0)" stroke="rgb(204, 204, 204)" stroke-width="1px"></line><line x1="51.5625" y1="0" x2="46.5625" y2="0" style="visibility: inherit;" fill="rgb(0, 0, 0)" stroke="rgb(204, 204, 204)" stroke-width="1px"></line></g><g transform="translate(41.5625, 0)"><text x="0" y="177" dx="0em" dy="0.3em" style="text-anchor: end; visibility: hidden; font-family: Roboto, sans-serif; font-size: 12px; font-weight: 200;" fill="rgb(255, 255, 255)" stroke="none" stroke-width="1px">-0.1</text><text x="0" y="154.875" dx="0em" dy="0.3em" style="text-anchor: end; visibility: inherit; font-family: Roboto, sans-serif; font-size: 12px; font-weight: 200;" fill="rgb(255, 255, 255)" stroke="none" stroke-width="1px">0</text><text x="0" y="132.75" dx="0em" dy="0.3em" style="text-anchor: end; visibility: hidden; font-family: Roboto, sans-serif; font-size: 12px; font-weight: 200;" fill="rgb(255, 255, 255)" stroke="none" stroke-width="1px">0.1</text><text x="0" y="110.62499999999999" dx="0em" dy="0.3em" style="text-anchor: end; visibility: inherit; font-family: Roboto, sans-serif; font-size: 12px; font-weight: 200;" fill="rgb(255, 255, 255)" stroke="none" stroke-width="1px">0.2</text><text x="0" y="88.49999999999999" dx="0em" dy="0.3em" style="text-anchor: end; visibility: hidden; font-family: Roboto, sans-serif; font-size: 12px; font-weight: 200;" fill="rgb(255, 255, 255)" stroke="none" stroke-width="1px">0.3</text><text x="0" y="66.375" dx="0em" dy="0.3em" style="text-anchor: end; visibility: inherit; font-family: Roboto, sans-serif; font-size: 12px; font-weight: 200;" fill="rgb(255, 255, 255)" stroke="none" stroke-width="1px">0.4</text><text x="0" y="44.25" dx="0em" dy="0.3em" style="text-anchor: end; visibility: hidden; font-family: Roboto, sans-serif; font-size: 12px; font-weight: 200;" fill="rgb(255, 255, 255)" stroke="none" stroke-width="1px">0.5</text><text x="0" y="22.125" dx="0em" dy="0.3em" style="text-anchor: end; visibility: inherit; font-family: Roboto, sans-serif; font-size: 12px; font-weight: 200;" fill="rgb(255, 255, 255)" stroke="none" stroke-width="1px">0.6</text><text x="0" y="0" dx="0em" dy="0.3em" style="text-anchor: end; visibility: hidden; font-family: Roboto, sans-serif; font-size: 12px; font-weight: 200;" fill="rgb(255, 255, 255)" stroke="none" stroke-width="1px">0.7</text></g><line x1="51.5625" y1="0" x2="51.5625" y2="177" fill="rgb(0, 0, 0)" stroke="rgb(204, 204, 204)" stroke-width="1px"></line></g></g><g transform="translate(51, 0)" clip-path="url(#clip_0)"><clipPath id="clip_0"><rect width="278" height="176"></rect></clipPath><g><g><g><line x1="0" y1="0" x2="0" y2="177" fill="rgb(0, 0, 0)" stroke="rgb(189, 189, 189)" stroke-width="1px" opacity="0.25"></line><line x1="23.203125" y1="0" x2="23.203125" y2="177" fill="rgb(0, 0, 0)" stroke="rgb(189, 189, 189)" stroke-width="1px" opacity="0.25"></line><line x1="46.40625" y1="0" x2="46.40625" y2="177" fill="rgb(0, 0, 0)" stroke="rgb(189, 189, 189)" stroke-width="1px" opacity="0.25"></line><line x1="69.609375" y1="0" x2="69.609375" y2="177" fill="rgb(0, 0, 0)" stroke="rgb(189, 189, 189)" stroke-width="1px" opacity="0.25"></line><line x1="92.8125" y1="0" x2="92.8125" y2="177" fill="rgb(0, 0, 0)" stroke="rgb(189, 189, 189)" stroke-width="1px" opacity="0.25"></line><line x1="116.015625" y1="0" x2="116.015625" y2="177" fill="rgb(0, 0, 0)" stroke="rgb(189, 189, 189)" stroke-width="1px" opacity="0.25"></line><line x1="139.21875" y1="0" x2="139.21875" y2="177" fill="rgb(0, 0, 0)" stroke="rgb(189, 189, 189)" stroke-width="1px" opacity="0.25"></line><line x1="162.421875" y1="0" x2="162.421875" y2="177" fill="rgb(0, 0, 0)" stroke="rgb(189, 189, 189)" stroke-width="1px" opacity="0.25"></line><line x1="185.625" y1="0" x2="185.625" y2="177" fill="rgb(0, 0, 0)" stroke="rgb(189, 189, 189)" stroke-width="1px" opacity="0.25"></line><line x1="208.828125" y1="0" x2="208.828125" y2="177" fill="rgb(0, 0, 0)" stroke="rgb(189, 189, 189)" stroke-width="1px" opacity="0.25"></line><line x1="232.03125" y1="0" x2="232.03125" y2="177" fill="rgb(0, 0, 0)" stroke="rgb(189, 189, 189)" stroke-width="1px" opacity="0.25"></line><line x1="255.234375" y1="0" x2="255.234375" y2="177" fill="rgb(0, 0, 0)" stroke="rgb(189, 189, 189)" stroke-width="1px" opacity="0.25"></line><line x1="278.4375" y1="0" x2="278.4375" y2="177" fill="rgb(0, 0, 0)" stroke="rgb(189, 189, 189)" stroke-width="1px" opacity="0.25"></line></g><g><line x1="0" y1="177" x2="278.4375" y2="177" fill="rgb(0, 0, 0)" stroke="rgb(189, 189, 189)" stroke-width="1px" opacity="0.25"></line><line x1="0" y1="154.875" x2="278.4375" y2="154.875" fill="rgb(0, 0, 0)" stroke="rgb(189, 189, 189)" stroke-width="1px" opacity="0.25"></line><line x1="0" y1="132.75" x2="278.4375" y2="132.75" fill="rgb(0, 0, 0)" stroke="rgb(189, 189, 189)" stroke-width="1px" opacity="0.25"></line><line x1="0" y1="110.62499999999999" x2="278.4375" y2="110.62499999999999" fill="rgb(0, 0, 0)" stroke="rgb(189, 189, 189)" stroke-width="1px" opacity="0.25"></line><line x1="0" y1="88.49999999999999" x2="278.4375" y2="88.49999999999999" fill="rgb(0, 0, 0)" stroke="rgb(189, 189, 189)" stroke-width="1px" opacity="0.25"></line><line x1="0" y1="66.375" x2="278.4375" y2="66.375" fill="rgb(0, 0, 0)" stroke="rgb(189, 189, 189)" stroke-width="1px" opacity="0.25"></line><line x1="0" y1="44.25" x2="278.4375" y2="44.25" fill="rgb(0, 0, 0)" stroke="rgb(189, 189, 189)" stroke-width="1px" opacity="0.25"></line><line x1="0" y1="22.125" x2="278.4375" y2="22.125" fill="rgb(0, 0, 0)" stroke="rgb(189, 189, 189)" stroke-width="1px" opacity="0.25"></line><line x1="0" y1="0" x2="278.4375" y2="0" fill="rgb(0, 0, 0)" stroke="rgb(189, 189, 189)" stroke-width="1px" opacity="0.25"></line></g></g></g><g><g><line x1="0" y1="154.875" x2="278.4375" y2="154.875" fill="rgb(0, 0, 0)" stroke="rgb(153, 153, 153)" stroke-width="1.5px"></line></g></g><g><g><line x1="23.203125" y1="0" x2="23.203125" y2="177" fill="rgb(0, 0, 0)" stroke="rgb(153, 153, 153)" stroke-width="1.5px"></line></g></g><g><g><g><g><g><path stroke="rgb(0, 119, 187)" stroke-width="2px" d="M23.203125,152.98397426563315L25.523437499999996,152.98397426563315L27.84375,152.50156979412506L30.1640625,153.1577818063914L32.484375,153.0823968563748L34.8046875,153.04110112650534L37.125,153.40668966843725L39.4453125,153.61938105270985L41.765625,153.36263088776894L44.0859375,153.59075275146395L46.40625,153.34715760109756L48.7265625,153.2015673486219L51.04687499999999,153.11441629009553L53.36718750000001,153.06219856032314L55.6875,153.03089412357102L58.0078125,153.01212088425874L60.328125,153.00086033077295L62.6484375,152.99410521866815L64.96875,153.3682807850801L67.2890625,153.21455255675372L69.609375,153.12231921698728L71.92968750000001,153.0669805080681L74.25,153.0337777488819L76.5703125,153.0138562611868L78.890625,153.0019034289831L81.2109375,152.99473175140955L83.53125,153.368634286658L85.8515625,153.5929755628881L88.171875,153.72758024045547L90.4921875,153.80834301525445L92.8125,153.85680066870694L95.1328125,153.7695044646814L97.453125,153.83349753499127L99.7734375,153.87189337522148L102.09374999999999,153.89493087865554L104.4140625,153.82147527191546L106.73437500000001,153.6610311249143L109.0546875,153.76841352847396L111.375,153.57100868804167L113.6953125,153.1049996730515L116.015625,152.5323697075098L118.3359375,150.62135334600032L120.65625,146.97476610794587L122.9765625,142.5862634457789L125.296875,135.73115376923607L127.6171875,131.76273536087635L129.9375,126.78989730549061L132.2578125,122.50607832077782L134.578125,118.57430261847229L136.8984375,115.44725229276781L139.21875,113.70238569785442L141.5390625,111.69694611822551L143.85937500000003,110.9862629034804L146.1796875,110.5297946428465L148.5,110.30336109222202L150.8203125,109.6310415680479L153.140625,108.91651519478967L155.4609375,109.10526183451184L157.78125,108.88752793046811L160.1015625,108.63736243112669L162.421875,108.43962978162638L164.7421875,108.09216680579347L167.0625,107.98242403985833L169.38281249999997,107.73746933592426L171.703125,107.57940052779357L174.0234375,107.3953588058462L176.34375,107.303041566903L178.66406250000003,107.66568134396948L180.984375,106.95479468804405L183.3046875,106.42382011295439L185.625,106.35052997607636L187.9453125,105.25178050690086L190.265625,105.75170395638459L192.5859375,105.77951493034311L194.90625,106.13324966531722L197.2265625,106.28229851127702L199.546875,105.9326556792917L201.8671875,104.12956211990486L204.18749999999997,103.98692170397265L206.5078125,103.43581904688968L208.828125,104.51778563391859L211.1484375,104.41879362333833L213.46875000000003,103.9485937429608L215.7890625,104.25576640058404L218.109375,103.29698037289884L220.4296875,102.76824754138771L222.75,102.73012054657927L225.0703125,101.9515172523021L227.390625,102.15893424044606L229.7109375,100.71066626006696L232.03125,101.47878009882172L234.3515625,100.86036135737062L236.671875,100.86954345991586L238.99218749999997,100.93792030328736L241.3125,101.18402169563903L243.6328125,100.72139144491277L245.953125,101.35988226563406L248.27343750000003,102.1170449363033L250.59375,101.82469637285712L252.9140625,101.68531292284155L23.203125,121.71470890368298L25.523437499999996,133.73234649218784L27.84375,139.69645019526877L30.1640625,143.27491241711735L32.484375,146.66846860024845L34.8046875,148.70460231012711L37.125,149.92628253605432L39.4453125,150.65929067161062L41.765625,151.09909555294442L44.0859375,151.3629784817447L46.40625,151.52130823902485L48.7265625,150.94512506002752L51.04687499999999,152.5170750360165L53.36718750000001,152.21376617158793L55.6875,152.0317808529308L58.0078125,150.67611081171458L60.328125,151.10918763700678L62.6484375,151.36903373218212L64.96875,151.5249413892873L67.2890625,151.6184859835504L69.609375,151.6746127401083L71.92968750000001,151.708288794043L74.25,151.72849442640384L76.5703125,150.4941389557984L78.890625,151.00000452345708L81.2109375,151.3035238640523L83.53125,151.4856354684094L85.8515625,151.59490243102368L88.171875,151.66046260859227L90.4921875,151.6997987151334L92.8125,150.47692152903613L95.1328125,149.74319521737775L97.453125,149.3029594303827L99.7734375,149.03881795818572L102.09374999999999,148.8803330748675L104.4140625,148.78524214487658L106.73437500000001,149.974666436904L109.0546875,149.44184216209848L111.375,149.79332846573652L113.6953125,150.57951822941993L116.015625,149.80475323760803L118.3359375,149.3398942425209L120.65625,149.06097884546864L122.9765625,150.1401084572592L125.296875,149.54110737431162L127.6171875,149.18170672454306L129.9375,150.21254518470388L132.2578125,149.68045229779912L134.578125,150.5117925286575L136.8984375,151.01059666717254L139.21875,151.30987915028157L141.5390625,150.24296979012502L143.85937500000003,150.84930302405306L146.1796875,151.21310296440987L148.5,151.43138292862398L150.8203125,151.56235090715242L153.140625,151.6409316942695L155.4609375,150.4416013165178L157.78125,149.72200308986675L160.1015625,149.29024415387613L162.421875,147.7847099422598L164.7421875,149.37434711533393L167.0625,149.08165056915644L169.38281249999997,146.76278641543723L171.703125,143.19997928796374L174.0234375,145.77664591861165L176.34375,146.7685171942705L178.66406250000003,137.72576780204736L180.984375,130.28808256587243L183.3046875,127.18039098442111L185.625,125.8338625658185L187.9453125,119.28524856291L190.265625,108.00697826756111L192.5859375,98.28538744397801L194.90625,85.37188582568075L197.2265625,75.20678533583106L199.546875,64.65281994920505L201.8671875,52.12617193926294L204.18749999999997,40.85797808926655L206.5078125,36.71277623988003L208.828125,29.566617659430545L211.1484375,22.99827675324729L213.46875000000003,17.195773555648625L215.7890625,13.73713353503482L218.109375,11.843093402556999L220.4296875,8.426081590278416L222.75,8.30571092511622L225.0703125,4.591747488650114L227.390625,5.70956741933373L229.7109375,5.526773137833759L232.03125,4.0829407709754015L234.3515625,2.0104151211927395L236.671875,-3.828932556942141L252.9140625,-3.8009437122808154L23.203125,57.17647607258759L25.523437499999996,93.76292794350864L27.84375,118.20775676610518L30.1640625,131.62817520964117L32.484375,139.68042627576273L34.8046875,144.51177691543566L37.125,146.16410844921748L39.4453125,147.15550736948657L41.765625,148.99682557166997L44.0859375,151.34809534300197L46.40625,151.51237835577922L48.7265625,151.61094816344558L51.04687499999999,151.67009004804538L53.36718750000001,151.70557517880528L55.6875,151.7268662572612L58.0078125,151.73964090433475L60.328125,150.50082684255696L62.6484375,151.0040172555122L64.96875,151.30593150328536L67.2890625,151.48708005194925L69.609375,150.34929033112564L71.92968750000001,150.91309534865343L74.25,151.2513783591701L76.5703125,151.4543481654801L78.890625,151.57613004926608L81.2109375,151.6491991795377L83.53125,151.69304065770066L85.8515625,151.71934554459844L88.171875,151.7351284767371L90.4921875,151.7445982360203L92.8125,150.50380124156825L95.1328125,151.005801894919L97.453125,151.30700228692945L99.7734375,151.4877225221357L102.09374999999999,151.59615466325945L104.4140625,151.6612139479337L106.73437500000001,150.45377066871632L109.0546875,150.97578355120783L111.375,151.28899128070273L113.6953125,151.47691591839967L116.015625,151.58967070101784L118.3359375,150.41084472056679L120.65625,150.9500279823181L122.9765625,150.02705908934695L125.296875,150.7197566035862L127.6171875,149.8888962621078L129.9375,150.63685890724273L132.2578125,151.08563649432367L134.578125,151.35490304657225L136.8984375,151.51646297792138L139.21875,151.61339893673087L141.5390625,151.67156051201658L143.85937500000003,151.70645745718798L146.1796875,151.72739562429084L148.5,151.73995852455255L150.8203125,150.98499819608634L153.140625,150.96854531915994L155.4609375,145.88003322423705L157.78125,141.6027185436559L160.1015625,141.51735536032749L162.421875,136.7416812704434L164.7421875,128.5158303559679L167.0625,116.18673902039872" style="fill: none;" fill="none"></path></g></g></g></g><g opacity="0.2"><g><g><g><path stroke="rgb(0, 119, 187)" stroke-width="2px" d="M23.203125,152.98397426563315L25.523437499999996,152.98397426563315L27.84375,152.0384615014773L30.1640625,153.92948713281658L32.484375,152.98397426563315L34.8046875,152.98397426563315L37.125,153.92948713281658L39.4453125,153.92948713281658L41.765625,152.98397426563315L44.0859375,153.92948713281658L46.40625,152.98397426563315L48.7265625,152.98397426563315L51.04687499999999,152.98397426563315L53.36718750000001,152.98397426563315L55.6875,152.98397426563315L58.0078125,152.98397426563315L60.328125,152.98397426563315L62.6484375,152.98397426563315L64.96875,153.92948713281658L67.2890625,152.98397426563315L69.609375,152.98397426563315L71.92968750000001,152.98397426563315L74.25,152.98397426563315L76.5703125,152.98397426563315L78.890625,152.98397426563315L81.2109375,152.98397426563315L83.53125,153.92948713281658L85.8515625,153.92948713281658L88.171875,153.92948713281658L90.4921875,153.92948713281658L92.8125,153.92948713281658L95.1328125,153.6385601760121L97.453125,153.92948713281658L99.7734375,153.92948713281658L102.09374999999999,153.92948713281658L104.4140625,153.71129186369944L106.73437500000001,153.42036490689497L109.0546875,153.92948713281658L111.375,153.27490142849274L113.6953125,152.40598615212366L116.015625,151.67342476034537L118.3359375,147.75482880603522L120.65625,141.50488525349647L122.9765625,136.00350945442915L125.296875,125.44848925620317L127.6171875,125.81010774895549L129.9375,119.33064022287726L132.2578125,116.08034984394908L134.578125,112.67663906514645L136.8984375,110.75667680427432L139.21875,111.08508580550551L141.5390625,108.6887867487967L143.85937500000003,109.92023808136582L146.1796875,109.84509225189686L148.5,109.96371076628566L150.8203125,108.6225622817874L153.140625,107.84472563490272L155.4609375,109.38838179409504L157.78125,108.56092707440257L160.1015625,108.2621141821146L162.421875,108.14303080737591L164.7421875,107.57097234204412L167.0625,107.81780989095569L169.38281249999997,107.3700372800231L171.703125,107.34229731559753L174.0234375,107.11929622292519L176.34375,107.16456570848823L178.66406250000003,108.20964100956917L180.984375,105.88846470415592L183.3046875,105.62735825031996L185.625,106.24059477075934L187.9453125,103.60365630313754L190.265625,106.50158913061023L192.5859375,105.82123139128089L194.90625,106.6638517677784L197.2265625,106.5058717802167L199.546875,105.40819143131375L201.8671875,101.42492178082466L204.18749999999997,103.77296108007431L206.5078125,102.60916506126523L208.828125,106.140735514462L211.1484375,104.27030560746789L213.46875000000003,103.24329392239451L215.7890625,104.71652538701892L218.109375,101.85880133137107L220.4296875,101.97514829412103L222.75,102.67293005436659L225.0703125,100.78361231088638L227.390625,102.47005972266197L229.7109375,98.53826428949833L232.03125,102.63095085695386L234.3515625,99.93273324519396L236.671875,100.88331661373377L238.99218749999997,101.0404855683446L241.3125,101.55317378416657L243.6328125,100.02744606882334L245.953125,102.31761849671602L248.27343750000003,103.25278894230723L250.59375,101.38617352768779L252.9140625,101.47623774781823L23.203125,151.7588028749451L25.523437499999996,151.7588028749451L27.84375,148.6426057498902L30.1640625,148.6426057498902L32.484375,151.7588028749451L34.8046875,151.7588028749451L37.125,151.7588028749451L39.4453125,151.7588028749451L41.765625,151.7588028749451L44.0859375,151.7588028749451L46.40625,151.7588028749451L48.7265625,150.08085029153153L51.04687499999999,154.875L53.36718750000001,151.7588028749451L55.6875,151.7588028749451L58.0078125,148.6426057498902L60.328125,151.7588028749451L62.6484375,151.7588028749451L64.96875,151.7588028749451L67.2890625,151.7588028749451L69.609375,151.7588028749451L71.92968750000001,151.7588028749451L74.25,151.7588028749451L76.5703125,148.6426057498902L78.890625,151.7588028749451L81.2109375,151.7588028749451L83.53125,151.7588028749451L85.8515625,151.7588028749451L88.171875,151.7588028749451L90.4921875,151.7588028749451L92.8125,148.6426057498902L95.1328125,148.6426057498902L97.453125,148.6426057498902L99.7734375,148.6426057498902L102.09374999999999,148.6426057498902L104.4140625,148.6426057498902L106.73437500000001,151.7588028749451L109.0546875,148.6426057498902L111.375,150.32055792119354L113.6953125,151.7588028749451L116.015625,148.6426057498902L118.3359375,148.6426057498902L120.65625,148.6426057498902L122.9765625,151.7588028749451L125.296875,148.6426057498902L127.6171875,148.6426057498902L129.9375,151.7588028749451L132.2578125,148.88231296744198L134.578125,151.7588028749451L136.8984375,151.7588028749451L139.21875,151.7588028749451L141.5390625,148.6426057498902L143.85937500000003,151.7588028749451L146.1796875,151.7588028749451L148.5,151.7588028749451L150.8203125,151.7588028749451L153.140625,151.7588028749451L155.4609375,148.6426057498902L157.78125,148.6426057498902L160.1015625,148.6426057498902L162.421875,145.5264086248353L164.7421875,151.7588028749451L167.0625,148.6426057498902L169.38281249999997,143.28449018485844L171.703125,137.85576859675348L174.0234375,149.64164586458355L176.34375,148.2563241077587L178.66406250000003,124.16164371371269L180.984375,119.13155471161008L183.3046875,122.51885361224413L185.625,123.81406993791461L187.9453125,109.46232755854726L190.265625,91.08957282453775L192.5859375,83.70300120860338L194.90625,66.00163339823484L197.2265625,59.959134601056576L199.546875,48.82187186926603L201.8671875,33.336199924349785L204.18749999999997,23.955687314271927L206.5078125,30.494973465800285L208.828125,18.84737978875637L211.1484375,13.145765393972397L213.46875000000003,8.49201875925064L215.7890625,8.549173504114151L218.109375,9.002033203840256L220.4296875,3.300563871860504L222.75,8.125154927372932L225.0703125,-0.9791976660490036L227.390625,7.386297315359116L229.7109375,5.252581715583801L232.03125,1.9171922206878662L234.3515625,-1.0983733534812927L238.99218749999997,-4.0812734216451645L241.3125,3.8687880635261536L243.6328125,-3.8812845647335052L250.59375,-5.291255459189415L252.9140625,0.9262945801019669L23.203125,148.6426057498902L25.523437499999996,148.6426057498902L27.84375,154.875L30.1640625,151.7588028749451L32.484375,151.7588028749451L34.8046875,151.7588028749451L37.125,148.6426057498902L39.4453125,148.6426057498902L41.765625,151.7588028749451L44.0859375,154.875L46.40625,151.7588028749451L48.7265625,151.7588028749451L51.04687499999999,151.7588028749451L53.36718750000001,151.7588028749451L55.6875,151.7588028749451L58.0078125,151.7588028749451L60.328125,148.6426057498902L62.6484375,151.7588028749451L64.96875,151.7588028749451L67.2890625,151.7588028749451L69.609375,148.6426057498902L71.92968750000001,151.7588028749451L74.25,151.7588028749451L76.5703125,151.7588028749451L78.890625,151.7588028749451L81.2109375,151.7588028749451L83.53125,151.7588028749451L85.8515625,151.7588028749451L88.171875,151.7588028749451L90.4921875,151.7588028749451L92.8125,148.6426057498902L95.1328125,151.7588028749451L97.453125,151.7588028749451L99.7734375,151.7588028749451L102.09374999999999,151.7588028749451L104.4140625,151.7588028749451L106.73437500000001,148.6426057498902L109.0546875,151.7588028749451L111.375,151.7588028749451L113.6953125,151.7588028749451L116.015625,151.7588028749451L118.3359375,148.6426057498902L120.65625,151.7588028749451L122.9765625,148.6426057498902L125.296875,151.7588028749451L127.6171875,148.6426057498902L129.9375,151.7588028749451L132.2578125,151.7588028749451L134.578125,151.7588028749451L136.8984375,151.7588028749451L139.21875,151.7588028749451L141.5390625,151.7588028749451L143.85937500000003,151.7588028749451L146.1796875,151.7588028749451L148.5,151.7588028749451L150.8203125,149.852557703387L153.140625,150.94386600377038L155.4609375,138.24726508185267L157.78125,135.18674652278423L160.1015625,141.3893105853349L162.421875,129.57817013561726L164.7421875,116.1770539842546L167.0625,97.69310201704502" style="fill: none;" fill="none"></path></g></g></g></g></g></g><g transform="translate(51, 177)" clip-path="url(#clip_1)"><clipPath id="clip_1"><rect width="278" height="22"></rect></clipPath><g><g><line x1="0" y1="0" x2="0" y2="5" style="visibility: inherit;" fill="rgb(0, 0, 0)" stroke="rgb(204, 204, 204)" stroke-width="1px"></line><line x1="23.203125" y1="0" x2="23.203125" y2="5" style="visibility: inherit;" fill="rgb(0, 0, 0)" stroke="rgb(204, 204, 204)" stroke-width="1px"></line><line x1="46.40625" y1="0" x2="46.40625" y2="5" style="visibility: inherit;" fill="rgb(0, 0, 0)" stroke="rgb(204, 204, 204)" stroke-width="1px"></line><line x1="69.609375" y1="0" x2="69.609375" y2="5" style="visibility: inherit;" fill="rgb(0, 0, 0)" stroke="rgb(204, 204, 204)" stroke-width="1px"></line><line x1="92.8125" y1="0" x2="92.8125" y2="5" style="visibility: inherit;" fill="rgb(0, 0, 0)" stroke="rgb(204, 204, 204)" stroke-width="1px"></line><line x1="116.015625" y1="0" x2="116.015625" y2="5" style="visibility: inherit;" fill="rgb(0, 0, 0)" stroke="rgb(204, 204, 204)" stroke-width="1px"></line><line x1="139.21875" y1="0" x2="139.21875" y2="5" style="visibility: inherit;" fill="rgb(0, 0, 0)" stroke="rgb(204, 204, 204)" stroke-width="1px"></line><line x1="162.421875" y1="0" x2="162.421875" y2="5" style="visibility: inherit;" fill="rgb(0, 0, 0)" stroke="rgb(204, 204, 204)" stroke-width="1px"></line><line x1="185.625" y1="0" x2="185.625" y2="5" style="visibility: inherit;" fill="rgb(0, 0, 0)" stroke="rgb(204, 204, 204)" stroke-width="1px"></line><line x1="208.828125" y1="0" x2="208.828125" y2="5" style="visibility: inherit;" fill="rgb(0, 0, 0)" stroke="rgb(204, 204, 204)" stroke-width="1px"></line><line x1="232.03125" y1="0" x2="232.03125" y2="5" style="visibility: inherit;" fill="rgb(0, 0, 0)" stroke="rgb(204, 204, 204)" stroke-width="1px"></line><line x1="255.234375" y1="0" x2="255.234375" y2="5" style="visibility: inherit;" fill="rgb(0, 0, 0)" stroke="rgb(204, 204, 204)" stroke-width="1px"></line><line x1="278.4375" y1="0" x2="278.4375" y2="5" style="visibility: inherit;" fill="rgb(0, 0, 0)" stroke="rgb(204, 204, 204)" stroke-width="1px"></line></g><g transform="translate(0, 8)"><text x="0" y="0" dx="0em" dy="0.95em" style="text-anchor: middle; visibility: hidden; font-family: Roboto, sans-serif; font-size: 12px; font-weight: 200;" fill="rgb(255, 255, 255)" stroke="none" stroke-width="1px">-10</text><text x="23.203125" y="0" dx="0em" dy="0.95em" style="text-anchor: middle; visibility: inherit; font-family: Roboto, sans-serif; font-size: 12px; font-weight: 200;" fill="rgb(255, 255, 255)" stroke="none" stroke-width="1px">0</text><text x="46.40625" y="0" dx="0em" dy="0.95em" style="text-anchor: middle; visibility: inherit; font-family: Roboto, sans-serif; font-size: 12px; font-weight: 200;" fill="rgb(255, 255, 255)" stroke="none" stroke-width="1px">10</text><text x="69.609375" y="0" dx="0em" dy="0.95em" style="text-anchor: middle; visibility: inherit; font-family: Roboto, sans-serif; font-size: 12px; font-weight: 200;" fill="rgb(255, 255, 255)" stroke="none" stroke-width="1px">20</text><text x="92.8125" y="0" dx="0em" dy="0.95em" style="text-anchor: middle; visibility: inherit; font-family: Roboto, sans-serif; font-size: 12px; font-weight: 200;" fill="rgb(255, 255, 255)" stroke="none" stroke-width="1px">30</text><text x="116.015625" y="0" dx="0em" dy="0.95em" style="text-anchor: middle; visibility: inherit; font-family: Roboto, sans-serif; font-size: 12px; font-weight: 200;" fill="rgb(255, 255, 255)" stroke="none" stroke-width="1px">40</text><text x="139.21875" y="0" dx="0em" dy="0.95em" style="text-anchor: middle; visibility: inherit; font-family: Roboto, sans-serif; font-size: 12px; font-weight: 200;" fill="rgb(255, 255, 255)" stroke="none" stroke-width="1px">50</text><text x="162.421875" y="0" dx="0em" dy="0.95em" style="text-anchor: middle; visibility: inherit; font-family: Roboto, sans-serif; font-size: 12px; font-weight: 200;" fill="rgb(255, 255, 255)" stroke="none" stroke-width="1px">60</text><text x="185.625" y="0" dx="0em" dy="0.95em" style="text-anchor: middle; visibility: inherit; font-family: Roboto, sans-serif; font-size: 12px; font-weight: 200;" fill="rgb(255, 255, 255)" stroke="none" stroke-width="1px">70</text><text x="208.828125" y="0" dx="0em" dy="0.95em" style="text-anchor: middle; visibility: inherit; font-family: Roboto, sans-serif; font-size: 12px; font-weight: 200;" fill="rgb(255, 255, 255)" stroke="none" stroke-width="1px">80</text><text x="232.03125" y="0" dx="0em" dy="0.95em" style="text-anchor: middle; visibility: inherit; font-family: Roboto, sans-serif; font-size: 12px; font-weight: 200;" fill="rgb(255, 255, 255)" stroke="none" stroke-width="1px">90</text><text x="255.234375" y="0" dx="0em" dy="0.95em" style="text-anchor: middle; visibility: inherit; font-family: Roboto, sans-serif; font-size: 12px; font-weight: 200;" fill="rgb(255, 255, 255)" stroke="none" stroke-width="1px">100</text><text x="278.4375" y="0" dx="0em" dy="0.95em" style="text-anchor: middle; visibility: hidden; font-family: Roboto, sans-serif; font-size: 12px; font-weight: 200;" fill="rgb(255, 255, 255)" stroke="none" stroke-width="1px">110</text></g><line x1="0" y1="0" x2="278.4375" y2="0" fill="rgb(0, 0, 0)" stroke="rgb(204, 204, 204)" stroke-width="1px"></line></g></g></g></g></svg>