<svg viewBox="0 0 330.0000305175781 200.00001525878906" xmlns="http://www.w3.org/2000/svg"><g><g><g><g><g><line x1="51.5625" y1="177" x2="46.5625" y2="177" style="visibility: inherit;" fill="rgb(0, 0, 0)" stroke="rgb(204, 204, 204)" stroke-width="1px"></line><line x1="51.5625" y1="160.9090909090909" x2="46.5625" y2="160.9090909090909" style="visibility: inherit;" fill="rgb(0, 0, 0)" stroke="rgb(204, 204, 204)" stroke-width="1px"></line><line x1="51.5625" y1="144.8181818181818" x2="46.5625" y2="144.8181818181818" style="visibility: inherit;" fill="rgb(0, 0, 0)" stroke="rgb(204, 204, 204)" stroke-width="1px"></line><line x1="51.5625" y1="128.72727272727272" x2="46.5625" y2="128.72727272727272" style="visibility: inherit;" fill="rgb(0, 0, 0)" stroke="rgb(204, 204, 204)" stroke-width="1px"></line><line x1="51.5625" y1="112.63636363636364" x2="46.5625" y2="112.63636363636364" style="visibility: inherit;" fill="rgb(0, 0, 0)" stroke="rgb(204, 204, 204)" stroke-width="1px"></line><line x1="51.5625" y1="96.54545454545453" x2="46.5625" y2="96.54545454545453" style="visibility: inherit;" fill="rgb(0, 0, 0)" stroke="rgb(204, 204, 204)" stroke-width="1px"></line><line x1="51.5625" y1="80.45454545454547" x2="46.5625" y2="80.45454545454547" style="visibility: inherit;" fill="rgb(0, 0, 0)" stroke="rgb(204, 204, 204)" stroke-width="1px"></line><line x1="51.5625" y1="64.36363636363639" x2="46.5625" y2="64.36363636363639" style="visibility: inherit;" fill="rgb(0, 0, 0)" stroke="rgb(204, 204, 204)" stroke-width="1px"></line><line x1="51.5625" y1="48.27272727272729" x2="46.5625" y2="48.27272727272729" style="visibility: inherit;" fill="rgb(0, 0, 0)" stroke="rgb(204, 204, 204)" stroke-width="1px"></line><line x1="51.5625" y1="32.181818181818194" x2="46.5625" y2="32.181818181818194" style="visibility: inherit;" fill="rgb(0, 0, 0)" stroke="rgb(204, 204, 204)" stroke-width="1px"></line><line x1="51.5625" y1="16.090909090909097" x2="46.5625" y2="16.090909090909097" style="visibility: inherit;" fill="rgb(0, 0, 0)" stroke="rgb(204, 204, 204)" stroke-width="1px"></line><line x1="51.5625" y1="0" x2="46.5625" y2="0" style="visibility: inherit;" fill="rgb(0, 0, 0)" stroke="rgb(204, 204, 204)" stroke-width="1px"></line></g><g transform="translate(41.5625, 0)"><text x="0" y="177" dx="0em" dy="0.3em" style="text-anchor: end; visibility: hidden; font-family: Roboto, sans-serif; font-size: 12px; font-weight: 200;" fill="rgb(255, 255, 255)" stroke="none" stroke-width="1px">-0.1</text><text x="0" y="160.9090909090909" dx="0em" dy="0.3em" style="text-anchor: end; visibility: inherit; font-family: Roboto, sans-serif; font-size: 12px; font-weight: 200;" fill="rgb(255, 255, 255)" stroke="none" stroke-width="1px">0</text><text x="0" y="144.8181818181818" dx="0em" dy="0.3em" style="text-anchor: end; visibility: hidden; font-family: Roboto, sans-serif; font-size: 12px; font-weight: 200;" fill="rgb(255, 255, 255)" stroke="none" stroke-width="1px">0.1</text><text x="0" y="128.72727272727272" dx="0em" dy="0.3em" style="text-anchor: end; visibility: inherit; font-family: Roboto, sans-serif; font-size: 12px; font-weight: 200;" fill="rgb(255, 255, 255)" stroke="none" stroke-width="1px">0.2</text><text x="0" y="112.63636363636364" dx="0em" dy="0.3em" style="text-anchor: end; visibility: hidden; font-family: Roboto, sans-serif; font-size: 12px; font-weight: 200;" fill="rgb(255, 255, 255)" stroke="none" stroke-width="1px">0.3</text><text x="0" y="96.54545454545453" dx="0em" dy="0.3em" style="text-anchor: end; visibility: inherit; font-family: Roboto, sans-serif; font-size: 12px; font-weight: 200;" fill="rgb(255, 255, 255)" stroke="none" stroke-width="1px">0.4</text><text x="0" y="80.45454545454547" dx="0em" dy="0.3em" style="text-anchor: end; visibility: hidden; font-family: Roboto, sans-serif; font-size: 12px; font-weight: 200;" fill="rgb(255, 255, 255)" stroke="none" stroke-width="1px">0.5</text><text x="0" y="64.36363636363639" dx="0em" dy="0.3em" style="text-anchor: end; visibility: inherit; font-family: Roboto, sans-serif; font-size: 12px; font-weight: 200;" fill="rgb(255, 255, 255)" stroke="none" stroke-width="1px">0.6</text><text x="0" y="48.27272727272729" dx="0em" dy="0.3em" style="text-anchor: end; visibility: hidden; font-family: Roboto, sans-serif; font-size: 12px; font-weight: 200;" fill="rgb(255, 255, 255)" stroke="none" stroke-width="1px">0.7</text><text x="0" y="32.181818181818194" dx="0em" dy="0.3em" style="text-anchor: end; visibility: inherit; font-family: Roboto, sans-serif; font-size: 12px; font-weight: 200;" fill="rgb(255, 255, 255)" stroke="none" stroke-width="1px">0.8</text><text x="0" y="16.090909090909097" dx="0em" dy="0.3em" style="text-anchor: end; visibility: hidden; font-family: Roboto, sans-serif; font-size: 12px; font-weight: 200;" fill="rgb(255, 255, 255)" stroke="none" stroke-width="1px">0.9</text><text x="0" y="0" dx="0em" dy="0.3em" style="text-anchor: end; visibility: hidden; font-family: Roboto, sans-serif; font-size: 12px; font-weight: 200;" fill="rgb(255, 255, 255)" stroke="none" stroke-width="1px">1</text></g><line x1="51.5625" y1="0" x2="51.5625" y2="177" fill="rgb(0, 0, 0)" stroke="rgb(204, 204, 204)" stroke-width="1px"></line></g></g><g transform="translate(51, 0)" clip-path="url(#clip_0)"><clipPath id="clip_0"><rect width="278" height="176"></rect></clipPath><g><g><g><line x1="0" y1="0" x2="0" y2="177" fill="rgb(0, 0, 0)" stroke="rgb(189, 189, 189)" stroke-width="1px" opacity="0.25"></line><line x1="23.203125" y1="0" x2="23.203125" y2="177" fill="rgb(0, 0, 0)" stroke="rgb(189, 189, 189)" stroke-width="1px" opacity="0.25"></line><line x1="46.40625" y1="0" x2="46.40625" y2="177" fill="rgb(0, 0, 0)" stroke="rgb(189, 189, 189)" stroke-width="1px" opacity="0.25"></line><line x1="69.609375" y1="0" x2="69.609375" y2="177" fill="rgb(0, 0, 0)" stroke="rgb(189, 189, 189)" stroke-width="1px" opacity="0.25"></line><line x1="92.8125" y1="0" x2="92.8125" y2="177" fill="rgb(0, 0, 0)" stroke="rgb(189, 189, 189)" stroke-width="1px" opacity="0.25"></line><line x1="116.015625" y1="0" x2="116.015625" y2="177" fill="rgb(0, 0, 0)" stroke="rgb(189, 189, 189)" stroke-width="1px" opacity="0.25"></line><line x1="139.21875" y1="0" x2="139.21875" y2="177" fill="rgb(0, 0, 0)" stroke="rgb(189, 189, 189)" stroke-width="1px" opacity="0.25"></line><line x1="162.421875" y1="0" x2="162.421875" y2="177" fill="rgb(0, 0, 0)" stroke="rgb(189, 189, 189)" stroke-width="1px" opacity="0.25"></line><line x1="185.625" y1="0" x2="185.625" y2="177" fill="rgb(0, 0, 0)" stroke="rgb(189, 189, 189)" stroke-width="1px" opacity="0.25"></line><line x1="208.828125" y1="0" x2="208.828125" y2="177" fill="rgb(0, 0, 0)" stroke="rgb(189, 189, 189)" stroke-width="1px" opacity="0.25"></line><line x1="232.03125" y1="0" x2="232.03125" y2="177" fill="rgb(0, 0, 0)" stroke="rgb(189, 189, 189)" stroke-width="1px" opacity="0.25"></line><line x1="255.234375" y1="0" x2="255.234375" y2="177" fill="rgb(0, 0, 0)" stroke="rgb(189, 189, 189)" stroke-width="1px" opacity="0.25"></line><line x1="278.4375" y1="0" x2="278.4375" y2="177" fill="rgb(0, 0, 0)" stroke="rgb(189, 189, 189)" stroke-width="1px" opacity="0.25"></line></g><g><line x1="0" y1="177" x2="278.4375" y2="177" fill="rgb(0, 0, 0)" stroke="rgb(189, 189, 189)" stroke-width="1px" opacity="0.25"></line><line x1="0" y1="160.9090909090909" x2="278.4375" y2="160.9090909090909" fill="rgb(0, 0, 0)" stroke="rgb(189, 189, 189)" stroke-width="1px" opacity="0.25"></line><line x1="0" y1="144.8181818181818" x2="278.4375" y2="144.8181818181818" fill="rgb(0, 0, 0)" stroke="rgb(189, 189, 189)" stroke-width="1px" opacity="0.25"></line><line x1="0" y1="128.72727272727272" x2="278.4375" y2="128.72727272727272" fill="rgb(0, 0, 0)" stroke="rgb(189, 189, 189)" stroke-width="1px" opacity="0.25"></line><line x1="0" y1="112.63636363636364" x2="278.4375" y2="112.63636363636364" fill="rgb(0, 0, 0)" stroke="rgb(189, 189, 189)" stroke-width="1px" opacity="0.25"></line><line x1="0" y1="96.54545454545453" x2="278.4375" y2="96.54545454545453" fill="rgb(0, 0, 0)" stroke="rgb(189, 189, 189)" stroke-width="1px" opacity="0.25"></line><line x1="0" y1="80.45454545454547" x2="278.4375" y2="80.45454545454547" fill="rgb(0, 0, 0)" stroke="rgb(189, 189, 189)" stroke-width="1px" opacity="0.25"></line><line x1="0" y1="64.36363636363639" x2="278.4375" y2="64.36363636363639" fill="rgb(0, 0, 0)" stroke="rgb(189, 189, 189)" stroke-width="1px" opacity="0.25"></line><line x1="0" y1="48.27272727272729" x2="278.4375" y2="48.27272727272729" fill="rgb(0, 0, 0)" stroke="rgb(189, 189, 189)" stroke-width="1px" opacity="0.25"></line><line x1="0" y1="32.181818181818194" x2="278.4375" y2="32.181818181818194" fill="rgb(0, 0, 0)" stroke="rgb(189, 189, 189)" stroke-width="1px" opacity="0.25"></line><line x1="0" y1="16.090909090909097" x2="278.4375" y2="16.090909090909097" fill="rgb(0, 0, 0)" stroke="rgb(189, 189, 189)" stroke-width="1px" opacity="0.25"></line><line x1="0" y1="0" x2="278.4375" y2="0" fill="rgb(0, 0, 0)" stroke="rgb(189, 189, 189)" stroke-width="1px" opacity="0.25"></line></g></g></g><g><g><line x1="0" y1="160.9090909090909" x2="278.4375" y2="160.9090909090909" fill="rgb(0, 0, 0)" stroke="rgb(153, 153, 153)" stroke-width="1.5px"></line></g></g><g><g><line x1="23.203125" y1="0" x2="23.203125" y2="177" fill="rgb(0, 0, 0)" stroke="rgb(153, 153, 153)" stroke-width="1.5px"></line></g></g><g><g><g><g><g><path stroke="rgb(0, 119, 187)" stroke-width="2px" d="M23.203125,155.7050455293872L25.523437499999996,155.7050455293872L27.84375,154.64299539073002L30.1640625,155.75287676271907L32.484375,155.73213108552795L34.8046875,155.72076664367245L37.125,156.2711048358925L39.4453125,156.591279509045L41.765625,156.2331770696609L44.0859375,156.5651524725819L46.40625,156.2198569733985L48.7265625,156.01348316493312L51.04687499999999,155.88994676360096L53.36718750000001,155.8159282659385L55.6875,155.77155430734896L58.0078125,155.7449432889035L60.328125,155.7289814832965L62.6484375,155.71940612926025L64.96875,156.25491521179495L67.2890625,156.03495929689512L69.609375,155.90299089490765L71.92968750000001,155.82381170652948L74.25,155.77630486049665L76.5703125,155.7478009929907L78.890625,155.73069875892716L81.2109375,155.72043744960726L83.53125,156.25550191986898L85.8515625,156.57654025154045L88.171875,156.7691631243687L90.4921875,156.88473680264283L92.8125,156.9540809932551L95.1328125,156.82915802674069L97.453125,156.92073372288863L99.7734375,156.97567913777868L102.09374999999999,157.00864638570522L104.4140625,156.90352957656083L106.73437500000001,156.673930028996L109.0546875,156.82759692043948L111.375,156.54510570524405L113.6953125,156.7086699004577L116.015625,156.3904847627584L118.3359375,145.87474752691028L120.65625,128.6159934955816L122.9765625,108.4771358603451L125.296875,93.3962914493249L127.6171875,87.55347616317587L129.9375,72.89031377394487L132.2578125,56.3071637044534L134.578125,43.776066886083015L136.8984375,34.71700965557864L139.21875,27.449750039291974L141.5390625,23.71388268829682L143.85937500000003,21.056039222785408L146.1796875,20.0025531148788L148.5,18.829241478738496L150.8203125,17.8754568277307L153.140625,16.678701454745305L155.4609375,16.376971285874813L157.78125,15.904507046108145L160.1015625,15.70429311323231L162.421875,15.54253244801475L164.7421875,15.112417604947758L167.0625,14.854348699107563L169.38281249999997,14.74113966109548L171.703125,14.964640376732675L174.0234375,14.890579278654666L176.34375,15.012671841776095L178.66406250000003,15.127559685141014L180.984375,14.988330863699689L183.3046875,14.946425876326952L185.625,14.879650578411256L187.9453125,14.631423872201564L190.265625,14.440855542983693L192.5859375,13.993456101516557L194.90625,14.14133949155679L197.2265625,14.021907998120678L199.546875,13.658822963614636L201.8671875,13.19117810995864L204.18749999999997,12.910591197765058L206.5078125,12.284283690036327L208.828125,13.282365266636905L211.1484375,12.965303491772017L213.46875000000003,11.942420317012019L215.7890625,12.536027271425578L218.109375,11.185263082527799L220.4296875,12.04010062524301L222.75,11.970150873983368L225.0703125,11.137163382506877L227.390625,12.177770027198674L229.7109375,12.802134014013733L232.03125,12.260841685277589L234.3515625,11.811169371559767L236.671875,10.958509870068578L238.99218749999997,11.487725642846929L241.3125,11.097505913149014L243.6328125,10.988270991806434L245.953125,11.797008454334014L248.27343750000003,12.07408940439031L250.59375,11.53258878105914L252.9140625,11.998702211409494L23.203125,70.02246022931699L25.523437499999996,104.83671504006146L27.84375,125.18404723579178L30.1640625,137.39244655322995L32.484375,145.25870683440925L34.8046875,149.97846300311684L37.125,152.81031670434137L39.4453125,154.50942892507612L41.765625,155.52889625751695L44.0859375,156.14057665698144L46.40625,156.50758489666015L48.7265625,156.43636322247653L51.04687499999999,158.22545429712227L53.36718750000001,157.75851148074466L55.6875,157.4783457909181L58.0078125,156.76902568630572L60.328125,156.8846543142547L62.6484375,156.95403149102412L64.96875,156.99565779708576L67.2890625,157.02063358072274L69.609375,157.03561905090493L71.92968750000001,157.04461033301425L74.25,157.05000510227984L76.5703125,156.5120212731228L78.890625,156.73045166634495L81.2109375,156.86150990227824L83.53125,156.94014484383825L85.8515625,156.98732580877424L88.171875,157.01563438773582L90.4921875,157.0326195351128L92.8125,156.50158993282255L95.1328125,156.1829721714484L97.453125,155.99180151462394L99.7734375,155.87709912052924L102.09374999999999,155.80827768407244L104.4140625,155.76698482219834L106.73437500000001,156.28342979579028L109.0546875,156.05207608922908L111.375,156.20469036339654L113.6953125,156.5460531205092L116.015625,156.2096500840604L118.3359375,156.00780826219113L120.65625,155.88670316906956L122.9765625,156.355260803913L125.296875,156.0951746941027L127.6171875,155.9391230282165L129.9375,156.3867127194012L132.2578125,156.15567814888766L134.578125,156.51664579180388L136.8984375,156.7332263775536L139.21875,156.86317472900345L141.5390625,156.39992304915694L143.85937500000003,156.66319273196547L146.1796875,156.82115454165057L148.5,156.91593162746162L150.8203125,156.97279787894826L153.140625,157.00691762984025L155.4609375,156.48616878965902L157.78125,156.1737194855503L160.1015625,155.98624990308508L162.421875,154.9994882996334L164.7421875,155.8229318822513L167.0625,155.77577734110568L169.38281249999997,154.78994015146165L171.703125,152.86620214374366L174.0234375,154.12663653436388L176.34375,154.79963243786526L178.66406250000003,153.57976766804367L180.984375,151.72377511922588L183.3046875,150.98487081891014L185.625,149.91704269724696L187.9453125,146.73677135286206L190.265625,140.0408871805409L192.5859375,129.61197204044262L194.90625,112.65510509943897L197.2265625,102.31445571286855L199.546875,88.19991652832095L201.8671875,72.61205726933605L204.18749999999997,58.80468118992363L206.5078125,52.185547761958325L208.828125,44.59205329099874L211.1484375,35.62292455352187L213.46875000000003,31.781846450613447L215.7890625,28.561288868043196L218.109375,26.087730510732648L220.4296875,24.353801663393998L222.75,28.684019436209176L225.0703125,25.203825825314993L227.390625,23.532032713699017L229.7109375,21.446516903936015L232.03125,19.487454388341632L234.3515625,17.271209241683636L236.671875,15.566771404260331L238.99218749999997,19.123669978675704L241.3125,20.341894566128055L243.6328125,18.325093319752195L245.953125,16.573792600529977L248.27343750000003,15.856070612933078L250.59375,16.21645122472397L252.9140625,17.84818181490002L23.203125,72.9909273006949L25.523437499999996,106.07657459217184L27.84375,128.00958111893948L30.1640625,139.62898757383496L32.484375,146.60063144677227L34.8046875,150.78361777053465L37.125,152.75218887407567L39.4453125,153.93333153620028L41.765625,155.18323782419145L44.0859375,157.47357905815122L46.40625,157.30738633736203L48.7265625,157.2076707048885L51.04687499999999,157.14784132540439L53.36718750000001,157.1119436977139L55.6875,157.09040512109962L58.0078125,157.07748197513106L60.328125,156.52850739683353L62.6484375,156.7403433405714L64.96875,156.86744490681411L67.2890625,156.94370584655977L69.609375,156.44824171969074L71.92968750000001,156.69218393428574L74.25,156.83854926304272L76.5703125,156.9263684602969L78.890625,156.97905997864945L81.2109375,157.01067488966095L83.53125,157.02964383626784L85.8515625,157.041025204232L88.171875,157.04785402501048L90.4921875,157.05195131747757L92.8125,156.5131890022414L95.1328125,156.73115230381615L97.453125,156.86193028476097L99.7734375,156.94039707332786L102.09374999999999,156.987477146468L104.4140625,157.0157251903521L106.73437500000001,156.49145332596615L109.0546875,156.71811089805098L111.375,156.85410544130187L113.6953125,156.9357021672524L116.015625,156.9846602028227L118.3359375,156.47281433344853L120.65625,156.7069275025404L122.9765625,156.30617471327912L125.296875,156.60694373043876L127.6171875,156.24618445001812L129.9375,156.57094957248216L132.2578125,156.7658086459606L134.578125,156.88272409004765L136.8984375,156.95287335649985L139.21875,156.99496291637118L141.5390625,157.02021665229398L143.85937500000003,157.03536889384768L146.1796875,157.0444602387799L148.5,157.04991504573923L150.8203125,156.59523185018253L153.140625,156.48895139458995L155.4609375,153.6774468826139L157.78125,150.78320587751935L160.1015625,147.2564692610255L162.421875,143.55839728469883L164.7421875,138.9248775030849L167.0625,132.0647939413377" style="fill: none;" fill="none"></path></g></g></g></g><g opacity="0.2"><g><g><g><path stroke="rgb(0, 119, 187)" stroke-width="2px" d="M23.203125,155.7050455293872L25.523437499999996,155.7050455293872L27.84375,153.6234272576191L30.1640625,157.0580972561782L32.484375,155.7050455293872L34.8046875,155.7050455293872L37.125,157.0580972561782L39.4453125,157.0580972561782L41.765625,155.7050455293872L44.0859375,157.0580972561782L46.40625,155.7050455293872L48.7265625,155.7050455293872L51.04687499999999,155.7050455293872L53.36718750000001,155.7050455293872L55.6875,155.7050455293872L58.0078125,155.7050455293872L60.328125,155.7050455293872L62.6484375,155.7050455293872L64.96875,157.0580972561782L67.2890625,155.7050455293872L69.609375,155.7050455293872L71.92968750000001,155.7050455293872L74.25,155.7050455293872L76.5703125,155.7050455293872L78.890625,155.7050455293872L81.2109375,155.7050455293872L83.53125,157.0580972561782L85.8515625,157.0580972561782L88.171875,157.0580972561782L90.4921875,157.0580972561782L92.8125,157.0580972561782L95.1328125,156.64177360182458L97.453125,157.0580972561782L99.7734375,157.0580972561782L102.09374999999999,157.0580972561782L104.4140625,156.74585436555472L106.73437500000001,156.3295307112011L109.0546875,157.0580972561782L111.375,156.1213688840243L113.6953125,156.95401619273153L116.015625,155.91320705684748L118.3359375,130.1011416857893L120.65625,102.72786246104675L122.9765625,78.26884941621262L125.296875,70.77502483671363L127.6171875,78.7892532348633L129.9375,50.89557019147007L132.2578125,31.432438601147066L134.578125,24.97942165894943L136.8984375,21.12842381000521L139.21875,16.548860614950016L141.5390625,18.11008166183127L143.85937500000003,17.069274024529896L146.1796875,18.422323953021674L148.5,17.069274024529896L150.8203125,16.444779851219895L153.140625,14.883568395267835L155.4609375,15.924376032569189L157.78125,15.19581068645824L160.1015625,15.403972213918502L162.421875,15.29989145018838L164.7421875,14.46724534034729L167.0625,14.46724534034729L169.38281249999997,14.571326104077432L171.703125,15.29989145018838L174.0234375,14.779487631537695L176.34375,15.19581068645824L178.66406250000003,15.29989145018838L180.984375,14.779487631537695L183.3046875,14.883568395267835L185.625,14.779487631537695L187.9453125,14.259083812887008L190.265625,14.155003049156885L192.5859375,13.322356939315796L194.90625,14.363164576617148L197.2265625,13.842760757966483L199.546875,13.114195411855514L201.8671875,12.489710829474706L204.18749999999997,12.489710829474706L206.5078125,11.344822428443212L208.828125,14.779487631537695L211.1484375,12.489710829474706L213.46875000000003,10.408095554872L215.7890625,13.426437703045938L218.109375,9.159116799181149L220.4296875,13.322356939315796L222.75,11.865226247093897L225.0703125,9.887682145292118L227.390625,13.73867999423634L229.7109375,13.73867999423634L232.03125,11.448903192173352L234.3515625,11.13666090098295L236.671875,9.679520617831836L238.99218749999997,12.281549302014444L241.3125,10.51217631860212L243.6328125,10.824418609792545L245.953125,13.010114648125391L248.27343750000003,12.489710829474706L250.59375,10.720337846062403L252.9140625,12.697872356934989L23.203125,157.0580972561782L25.523437499999996,157.0580972561782L27.84375,155.7050455293872L30.1640625,155.7050455293872L32.484375,157.0580972561782L34.8046875,157.0580972561782L37.125,157.0580972561782L39.4453125,157.0580972561782L41.765625,157.0580972561782L44.0859375,157.0580972561782L46.40625,157.0580972561782L48.7265625,156.3295307112011L51.04687499999999,160.9090909090909L53.36718750000001,157.0580972561782L55.6875,157.0580972561782L58.0078125,155.7050455293872L60.328125,157.0580972561782L62.6484375,157.0580972561782L64.96875,157.0580972561782L67.2890625,157.0580972561782L69.609375,157.0580972561782L71.92968750000001,157.0580972561782L74.25,157.0580972561782L76.5703125,155.7050455293872L78.890625,157.0580972561782L81.2109375,157.0580972561782L83.53125,157.0580972561782L85.8515625,157.0580972561782L88.171875,157.0580972561782L90.4921875,157.0580972561782L92.8125,155.7050455293872L95.1328125,155.7050455293872L97.453125,155.7050455293872L99.7734375,155.7050455293872L102.09374999999999,155.7050455293872L104.4140625,155.7050455293872L106.73437500000001,157.0580972561782L109.0546875,155.7050455293872L111.375,156.43361177464777L113.6953125,157.0580972561782L116.015625,155.7050455293872L118.3359375,155.7050455293872L120.65625,155.7050455293872L122.9765625,157.0580972561782L125.296875,155.7050455293872L127.6171875,155.7050455293872L129.9375,157.0580972561782L132.2578125,155.80912629311734L134.578125,157.0580972561782L136.8984375,157.0580972561782L139.21875,157.0580972561782L141.5390625,155.7050455293872L143.85937500000003,157.0580972561782L146.1796875,157.0580972561782L148.5,157.0580972561782L150.8203125,157.0580972561782L153.140625,157.0580972561782L155.4609375,155.7050455293872L157.78125,155.7050455293872L160.1015625,155.7050455293872L162.421875,153.5193458944559L164.7421875,157.0580972561782L167.0625,155.7050455293872L169.38281249999997,153.31118436699563L171.703125,149.98059513216668L174.0234375,156.01728812029415L176.34375,155.80912629311734L178.66406250000003,151.7499705133113L180.984375,148.93978629599917L183.3046875,149.87651436843655L185.625,148.3153005147522L187.9453125,141.96636433628473L190.265625,129.99706092205915L192.5859375,113.96859933029523L194.90625,87.2198046879335L197.2265625,86.80348163301295L199.546875,67.02810775149955L201.8671875,49.230268380858696L204.18749999999997,38.09361707080497L206.5078125,42.2568476200104L208.828125,33.201811584559366L211.1484375,22.16923144730656L213.46875000000003,26.020229296250783L215.7890625,23.730452494187794L218.109375,22.377392974766842L220.4296875,21.752908392386015L222.75,35.17934609543195L225.0703125,19.983535408973715L227.390625,21.024343046275067L229.7109375,18.318243189291533L232.03125,16.548860614950016L234.3515625,13.946841521696603L236.671875,13.010114648125391L238.99218749999997,24.459017840298763L241.3125,22.16923144730656L243.6328125,15.29989145018838L245.953125,13.946841521696603L248.27343750000003,14.779487631537695L250.59375,16.7570221424103L252.9140625,20.295777700164116L23.203125,155.7050455293872L25.523437499999996,155.7050455293872L27.84375,160.9090909090909L30.1640625,157.0580972561782L32.484375,157.0580972561782L34.8046875,157.0580972561782L37.125,155.7050455293872L39.4453125,155.7050455293872L41.765625,157.0580972561782L44.0859375,160.9090909090909L46.40625,157.0580972561782L48.7265625,157.0580972561782L51.04687499999999,157.0580972561782L53.36718750000001,157.0580972561782L55.6875,157.0580972561782L58.0078125,157.0580972561782L60.328125,155.7050455293872L62.6484375,157.0580972561782L64.96875,157.0580972561782L67.2890625,157.0580972561782L69.609375,155.7050455293872L71.92968750000001,157.0580972561782L74.25,157.0580972561782L76.5703125,157.0580972561782L78.890625,157.0580972561782L81.2109375,157.0580972561782L83.53125,157.0580972561782L85.8515625,157.0580972561782L88.171875,157.0580972561782L90.4921875,157.0580972561782L92.8125,155.7050455293872L95.1328125,157.0580972561782L97.453125,157.0580972561782L99.7734375,157.0580972561782L102.09374999999999,157.0580972561782L104.4140625,157.0580972561782L106.73437500000001,155.7050455293872L109.0546875,157.0580972561782L111.375,157.0580972561782L113.6953125,157.0580972561782L116.015625,157.0580972561782L118.3359375,155.7050455293872L120.65625,157.0580972561782L122.9765625,155.7050455293872L125.296875,157.0580972561782L127.6171875,155.7050455293872L129.9375,157.0580972561782L132.2578125,157.0580972561782L134.578125,157.0580972561782L136.8984375,157.0580972561782L139.21875,157.0580972561782L141.5390625,157.0580972561782L143.85937500000003,157.0580972561782L146.1796875,157.0580972561782L148.5,157.0580972561782L150.8203125,155.91320705684748L153.140625,156.3295307112011L155.4609375,149.46019011464986L157.78125,146.44184436987746L160.1015625,141.96636433628473L162.421875,138.01128932020882L164.7421875,131.97459783066404L167.0625,121.77466859871691" style="fill: none;" fill="none"></path></g></g></g></g></g></g><g transform="translate(51, 177)" clip-path="url(#clip_1)"><clipPath id="clip_1"><rect width="278" height="22"></rect></clipPath><g><g><line x1="0" y1="0" x2="0" y2="5" style="visibility: inherit;" fill="rgb(0, 0, 0)" stroke="rgb(204, 204, 204)" stroke-width="1px"></line><line x1="23.203125" y1="0" x2="23.203125" y2="5" style="visibility: inherit;" fill="rgb(0, 0, 0)" stroke="rgb(204, 204, 204)" stroke-width="1px"></line><line x1="46.40625" y1="0" x2="46.40625" y2="5" style="visibility: inherit;" fill="rgb(0, 0, 0)" stroke="rgb(204, 204, 204)" stroke-width="1px"></line><line x1="69.609375" y1="0" x2="69.609375" y2="5" style="visibility: inherit;" fill="rgb(0, 0, 0)" stroke="rgb(204, 204, 204)" stroke-width="1px"></line><line x1="92.8125" y1="0" x2="92.8125" y2="5" style="visibility: inherit;" fill="rgb(0, 0, 0)" stroke="rgb(204, 204, 204)" stroke-width="1px"></line><line x1="116.015625" y1="0" x2="116.015625" y2="5" style="visibility: inherit;" fill="rgb(0, 0, 0)" stroke="rgb(204, 204, 204)" stroke-width="1px"></line><line x1="139.21875" y1="0" x2="139.21875" y2="5" style="visibility: inherit;" fill="rgb(0, 0, 0)" stroke="rgb(204, 204, 204)" stroke-width="1px"></line><line x1="162.421875" y1="0" x2="162.421875" y2="5" style="visibility: inherit;" fill="rgb(0, 0, 0)" stroke="rgb(204, 204, 204)" stroke-width="1px"></line><line x1="185.625" y1="0" x2="185.625" y2="5" style="visibility: inherit;" fill="rgb(0, 0, 0)" stroke="rgb(204, 204, 204)" stroke-width="1px"></line><line x1="208.828125" y1="0" x2="208.828125" y2="5" style="visibility: inherit;" fill="rgb(0, 0, 0)" stroke="rgb(204, 204, 204)" stroke-width="1px"></line><line x1="232.03125" y1="0" x2="232.03125" y2="5" style="visibility: inherit;" fill="rgb(0, 0, 0)" stroke="rgb(204, 204, 204)" stroke-width="1px"></line><line x1="255.234375" y1="0" x2="255.234375" y2="5" style="visibility: inherit;" fill="rgb(0, 0, 0)" stroke="rgb(204, 204, 204)" stroke-width="1px"></line><line x1="278.4375" y1="0" x2="278.4375" y2="5" style="visibility: inherit;" fill="rgb(0, 0, 0)" stroke="rgb(204, 204, 204)" stroke-width="1px"></line></g><g transform="translate(0, 8)"><text x="0" y="0" dx="0em" dy="0.95em" style="text-anchor: middle; visibility: hidden; font-family: Roboto, sans-serif; font-size: 12px; font-weight: 200;" fill="rgb(255, 255, 255)" stroke="none" stroke-width="1px">-10</text><text x="23.203125" y="0" dx="0em" dy="0.95em" style="text-anchor: middle; visibility: inherit; font-family: Roboto, sans-serif; font-size: 12px; font-weight: 200;" fill="rgb(255, 255, 255)" stroke="none" stroke-width="1px">0</text><text x="46.40625" y="0" dx="0em" dy="0.95em" style="text-anchor: middle; visibility: inherit; font-family: Roboto, sans-serif; font-size: 12px; font-weight: 200;" fill="rgb(255, 255, 255)" stroke="none" stroke-width="1px">10</text><text x="69.609375" y="0" dx="0em" dy="0.95em" style="text-anchor: middle; visibility: inherit; font-family: Roboto, sans-serif; font-size: 12px; font-weight: 200;" fill="rgb(255, 255, 255)" stroke="none" stroke-width="1px">20</text><text x="92.8125" y="0" dx="0em" dy="0.95em" style="text-anchor: middle; visibility: inherit; font-family: Roboto, sans-serif; font-size: 12px; font-weight: 200;" fill="rgb(255, 255, 255)" stroke="none" stroke-width="1px">30</text><text x="116.015625" y="0" dx="0em" dy="0.95em" style="text-anchor: middle; visibility: inherit; font-family: Roboto, sans-serif; font-size: 12px; font-weight: 200;" fill="rgb(255, 255, 255)" stroke="none" stroke-width="1px">40</text><text x="139.21875" y="0" dx="0em" dy="0.95em" style="text-anchor: middle; visibility: inherit; font-family: Roboto, sans-serif; font-size: 12px; font-weight: 200;" fill="rgb(255, 255, 255)" stroke="none" stroke-width="1px">50</text><text x="162.421875" y="0" dx="0em" dy="0.95em" style="text-anchor: middle; visibility: inherit; font-family: Roboto, sans-serif; font-size: 12px; font-weight: 200;" fill="rgb(255, 255, 255)" stroke="none" stroke-width="1px">60</text><text x="185.625" y="0" dx="0em" dy="0.95em" style="text-anchor: middle; visibility: inherit; font-family: Roboto, sans-serif; font-size: 12px; font-weight: 200;" fill="rgb(255, 255, 255)" stroke="none" stroke-width="1px">70</text><text x="208.828125" y="0" dx="0em" dy="0.95em" style="text-anchor: middle; visibility: inherit; font-family: Roboto, sans-serif; font-size: 12px; font-weight: 200;" fill="rgb(255, 255, 255)" stroke="none" stroke-width="1px">80</text><text x="232.03125" y="0" dx="0em" dy="0.95em" style="text-anchor: middle; visibility: inherit; font-family: Roboto, sans-serif; font-size: 12px; font-weight: 200;" fill="rgb(255, 255, 255)" stroke="none" stroke-width="1px">90</text><text x="255.234375" y="0" dx="0em" dy="0.95em" style="text-anchor: middle; visibility: inherit; font-family: Roboto, sans-serif; font-size: 12px; font-weight: 200;" fill="rgb(255, 255, 255)" stroke="none" stroke-width="1px">100</text><text x="278.4375" y="0" dx="0em" dy="0.95em" style="text-anchor: middle; visibility: hidden; font-family: Roboto, sans-serif; font-size: 12px; font-weight: 200;" fill="rgb(255, 255, 255)" stroke="none" stroke-width="1px">110</text></g><line x1="0" y1="0" x2="278.4375" y2="0" fill="rgb(0, 0, 0)" stroke="rgb(204, 204, 204)" stroke-width="1px"></line></g></g></g></g></svg>