<svg viewBox="0 0 330.0000305175781 200.00001525878906" xmlns="http://www.w3.org/2000/svg"><g><g><g><g><g><line x1="30.78125" y1="177" x2="25.78125" y2="177" style="visibility: inherit;" fill="rgb(0, 0, 0)" stroke="rgb(204, 204, 204)" stroke-width="1px"></line><line x1="30.78125" y1="165.2" x2="25.78125" y2="165.2" style="visibility: inherit;" fill="rgb(0, 0, 0)" stroke="rgb(204, 204, 204)" stroke-width="1px"></line><line x1="30.78125" y1="153.4" x2="25.78125" y2="153.4" style="visibility: inherit;" fill="rgb(0, 0, 0)" stroke="rgb(204, 204, 204)" stroke-width="1px"></line><line x1="30.78125" y1="141.6" x2="25.78125" y2="141.6" style="visibility: inherit;" fill="rgb(0, 0, 0)" stroke="rgb(204, 204, 204)" stroke-width="1px"></line><line x1="30.78125" y1="129.8" x2="25.78125" y2="129.8" style="visibility: inherit;" fill="rgb(0, 0, 0)" stroke="rgb(204, 204, 204)" stroke-width="1px"></line><line x1="30.78125" y1="118.00000000000001" x2="25.78125" y2="118.00000000000001" style="visibility: inherit;" fill="rgb(0, 0, 0)" stroke="rgb(204, 204, 204)" stroke-width="1px"></line><line x1="30.78125" y1="106.2" x2="25.78125" y2="106.2" style="visibility: inherit;" fill="rgb(0, 0, 0)" stroke="rgb(204, 204, 204)" stroke-width="1px"></line><line x1="30.78125" y1="94.4" x2="25.78125" y2="94.4" style="visibility: inherit;" fill="rgb(0, 0, 0)" stroke="rgb(204, 204, 204)" stroke-width="1px"></line><line x1="30.78125" y1="82.6" x2="25.78125" y2="82.6" style="visibility: inherit;" fill="rgb(0, 0, 0)" stroke="rgb(204, 204, 204)" stroke-width="1px"></line><line x1="30.78125" y1="70.8" x2="25.78125" y2="70.8" style="visibility: inherit;" fill="rgb(0, 0, 0)" stroke="rgb(204, 204, 204)" stroke-width="1px"></line><line x1="30.78125" y1="59.00000000000001" x2="25.78125" y2="59.00000000000001" style="visibility: inherit;" fill="rgb(0, 0, 0)" stroke="rgb(204, 204, 204)" stroke-width="1px"></line><line x1="30.78125" y1="47.20000000000001" x2="25.78125" y2="47.20000000000001" style="visibility: inherit;" fill="rgb(0, 0, 0)" stroke="rgb(204, 204, 204)" stroke-width="1px"></line><line x1="30.78125" y1="35.39999999999999" x2="25.78125" y2="35.39999999999999" style="visibility: inherit;" fill="rgb(0, 0, 0)" stroke="rgb(204, 204, 204)" stroke-width="1px"></line><line x1="30.78125" y1="23.599999999999994" x2="25.78125" y2="23.599999999999994" style="visibility: inherit;" fill="rgb(0, 0, 0)" stroke="rgb(204, 204, 204)" stroke-width="1px"></line><line x1="30.78125" y1="11.799999999999997" x2="25.78125" y2="11.799999999999997" style="visibility: inherit;" fill="rgb(0, 0, 0)" stroke="rgb(204, 204, 204)" stroke-width="1px"></line><line x1="30.78125" y1="0" x2="25.78125" y2="0" style="visibility: inherit;" fill="rgb(0, 0, 0)" stroke="rgb(204, 204, 204)" stroke-width="1px"></line></g><g transform="translate(20.78125, 0)"><text x="0" y="177" dx="0em" dy="0.3em" style="text-anchor: end; visibility: hidden; font-family: Roboto, sans-serif; font-size: 12px; font-weight: 200;" fill="rgb(255, 255, 255)" stroke="none" stroke-width="1px">0</text><text x="0" y="165.2" dx="0em" dy="0.3em" style="text-anchor: end; visibility: inherit; font-family: Roboto, sans-serif; font-size: 12px; font-weight: 200;" fill="rgb(255, 255, 255)" stroke="none" stroke-width="1px">2</text><text x="0" y="153.4" dx="0em" dy="0.3em" style="text-anchor: end; visibility: hidden; font-family: Roboto, sans-serif; font-size: 12px; font-weight: 200;" fill="rgb(255, 255, 255)" stroke="none" stroke-width="1px">4</text><text x="0" y="141.6" dx="0em" dy="0.3em" style="text-anchor: end; visibility: inherit; font-family: Roboto, sans-serif; font-size: 12px; font-weight: 200;" fill="rgb(255, 255, 255)" stroke="none" stroke-width="1px">6</text><text x="0" y="129.8" dx="0em" dy="0.3em" style="text-anchor: end; visibility: hidden; font-family: Roboto, sans-serif; font-size: 12px; font-weight: 200;" fill="rgb(255, 255, 255)" stroke="none" stroke-width="1px">8</text><text x="0" y="118.00000000000001" dx="0em" dy="0.3em" style="text-anchor: end; visibility: inherit; font-family: Roboto, sans-serif; font-size: 12px; font-weight: 200;" fill="rgb(255, 255, 255)" stroke="none" stroke-width="1px">10</text><text x="0" y="106.2" dx="0em" dy="0.3em" style="text-anchor: end; visibility: hidden; font-family: Roboto, sans-serif; font-size: 12px; font-weight: 200;" fill="rgb(255, 255, 255)" stroke="none" stroke-width="1px">12</text><text x="0" y="94.4" dx="0em" dy="0.3em" style="text-anchor: end; visibility: inherit; font-family: Roboto, sans-serif; font-size: 12px; font-weight: 200;" fill="rgb(255, 255, 255)" stroke="none" stroke-width="1px">14</text><text x="0" y="82.6" dx="0em" dy="0.3em" style="text-anchor: end; visibility: hidden; font-family: Roboto, sans-serif; font-size: 12px; font-weight: 200;" fill="rgb(255, 255, 255)" stroke="none" stroke-width="1px">16</text><text x="0" y="70.8" dx="0em" dy="0.3em" style="text-anchor: end; visibility: inherit; font-family: Roboto, sans-serif; font-size: 12px; font-weight: 200;" fill="rgb(255, 255, 255)" stroke="none" stroke-width="1px">18</text><text x="0" y="59.00000000000001" dx="0em" dy="0.3em" style="text-anchor: end; visibility: hidden; font-family: Roboto, sans-serif; font-size: 12px; font-weight: 200;" fill="rgb(255, 255, 255)" stroke="none" stroke-width="1px">20</text><text x="0" y="47.20000000000001" dx="0em" dy="0.3em" style="text-anchor: end; visibility: inherit; font-family: Roboto, sans-serif; font-size: 12px; font-weight: 200;" fill="rgb(255, 255, 255)" stroke="none" stroke-width="1px">22</text><text x="0" y="35.39999999999999" dx="0em" dy="0.3em" style="text-anchor: end; visibility: hidden; font-family: Roboto, sans-serif; font-size: 12px; font-weight: 200;" fill="rgb(255, 255, 255)" stroke="none" stroke-width="1px">24</text><text x="0" y="23.599999999999994" dx="0em" dy="0.3em" style="text-anchor: end; visibility: inherit; font-family: Roboto, sans-serif; font-size: 12px; font-weight: 200;" fill="rgb(255, 255, 255)" stroke="none" stroke-width="1px">26</text><text x="0" y="11.799999999999997" dx="0em" dy="0.3em" style="text-anchor: end; visibility: hidden; font-family: Roboto, sans-serif; font-size: 12px; font-weight: 200;" fill="rgb(255, 255, 255)" stroke="none" stroke-width="1px">28</text><text x="0" y="0" dx="0em" dy="0.3em" style="text-anchor: end; visibility: hidden; font-family: Roboto, sans-serif; font-size: 12px; font-weight: 200;" fill="rgb(255, 255, 255)" stroke="none" stroke-width="1px">30</text></g><line x1="30.78125" y1="0" x2="30.78125" y2="177" fill="rgb(0, 0, 0)" stroke="rgb(204, 204, 204)" stroke-width="1px"></line></g></g><g transform="translate(30, 0)" clip-path="url(#clip_0)"><clipPath id="clip_0"><rect width="299" height="176"></rect></clipPath><g><g><g><line x1="0" y1="0" x2="0" y2="177" fill="rgb(0, 0, 0)" stroke="rgb(189, 189, 189)" stroke-width="1px" opacity="0.25"></line><line x1="24.934895833333332" y1="0" x2="24.934895833333332" y2="177" fill="rgb(0, 0, 0)" stroke="rgb(189, 189, 189)" stroke-width="1px" opacity="0.25"></line><line x1="49.869791666666664" y1="0" x2="49.869791666666664" y2="177" fill="rgb(0, 0, 0)" stroke="rgb(189, 189, 189)" stroke-width="1px" opacity="0.25"></line><line x1="74.8046875" y1="0" x2="74.8046875" y2="177" fill="rgb(0, 0, 0)" stroke="rgb(189, 189, 189)" stroke-width="1px" opacity="0.25"></line><line x1="99.73958333333333" y1="0" x2="99.73958333333333" y2="177" fill="rgb(0, 0, 0)" stroke="rgb(189, 189, 189)" stroke-width="1px" opacity="0.25"></line><line x1="124.67447916666667" y1="0" x2="124.67447916666667" y2="177" fill="rgb(0, 0, 0)" stroke="rgb(189, 189, 189)" stroke-width="1px" opacity="0.25"></line><line x1="149.609375" y1="0" x2="149.609375" y2="177" fill="rgb(0, 0, 0)" stroke="rgb(189, 189, 189)" stroke-width="1px" opacity="0.25"></line><line x1="174.54427083333334" y1="0" x2="174.54427083333334" y2="177" fill="rgb(0, 0, 0)" stroke="rgb(189, 189, 189)" stroke-width="1px" opacity="0.25"></line><line x1="199.47916666666666" y1="0" x2="199.47916666666666" y2="177" fill="rgb(0, 0, 0)" stroke="rgb(189, 189, 189)" stroke-width="1px" opacity="0.25"></line><line x1="224.4140625" y1="0" x2="224.4140625" y2="177" fill="rgb(0, 0, 0)" stroke="rgb(189, 189, 189)" stroke-width="1px" opacity="0.25"></line><line x1="249.34895833333334" y1="0" x2="249.34895833333334" y2="177" fill="rgb(0, 0, 0)" stroke="rgb(189, 189, 189)" stroke-width="1px" opacity="0.25"></line><line x1="274.28385416666663" y1="0" x2="274.28385416666663" y2="177" fill="rgb(0, 0, 0)" stroke="rgb(189, 189, 189)" stroke-width="1px" opacity="0.25"></line><line x1="299.21875" y1="0" x2="299.21875" y2="177" fill="rgb(0, 0, 0)" stroke="rgb(189, 189, 189)" stroke-width="1px" opacity="0.25"></line></g><g><line x1="0" y1="177" x2="299.21875" y2="177" fill="rgb(0, 0, 0)" stroke="rgb(189, 189, 189)" stroke-width="1px" opacity="0.25"></line><line x1="0" y1="165.2" x2="299.21875" y2="165.2" fill="rgb(0, 0, 0)" stroke="rgb(189, 189, 189)" stroke-width="1px" opacity="0.25"></line><line x1="0" y1="153.4" x2="299.21875" y2="153.4" fill="rgb(0, 0, 0)" stroke="rgb(189, 189, 189)" stroke-width="1px" opacity="0.25"></line><line x1="0" y1="141.6" x2="299.21875" y2="141.6" fill="rgb(0, 0, 0)" stroke="rgb(189, 189, 189)" stroke-width="1px" opacity="0.25"></line><line x1="0" y1="129.8" x2="299.21875" y2="129.8" fill="rgb(0, 0, 0)" stroke="rgb(189, 189, 189)" stroke-width="1px" opacity="0.25"></line><line x1="0" y1="118.00000000000001" x2="299.21875" y2="118.00000000000001" fill="rgb(0, 0, 0)" stroke="rgb(189, 189, 189)" stroke-width="1px" opacity="0.25"></line><line x1="0" y1="106.2" x2="299.21875" y2="106.2" fill="rgb(0, 0, 0)" stroke="rgb(189, 189, 189)" stroke-width="1px" opacity="0.25"></line><line x1="0" y1="94.4" x2="299.21875" y2="94.4" fill="rgb(0, 0, 0)" stroke="rgb(189, 189, 189)" stroke-width="1px" opacity="0.25"></line><line x1="0" y1="82.6" x2="299.21875" y2="82.6" fill="rgb(0, 0, 0)" stroke="rgb(189, 189, 189)" stroke-width="1px" opacity="0.25"></line><line x1="0" y1="70.8" x2="299.21875" y2="70.8" fill="rgb(0, 0, 0)" stroke="rgb(189, 189, 189)" stroke-width="1px" opacity="0.25"></line><line x1="0" y1="59.00000000000001" x2="299.21875" y2="59.00000000000001" fill="rgb(0, 0, 0)" stroke="rgb(189, 189, 189)" stroke-width="1px" opacity="0.25"></line><line x1="0" y1="47.20000000000001" x2="299.21875" y2="47.20000000000001" fill="rgb(0, 0, 0)" stroke="rgb(189, 189, 189)" stroke-width="1px" opacity="0.25"></line><line x1="0" y1="35.39999999999999" x2="299.21875" y2="35.39999999999999" fill="rgb(0, 0, 0)" stroke="rgb(189, 189, 189)" stroke-width="1px" opacity="0.25"></line><line x1="0" y1="23.599999999999994" x2="299.21875" y2="23.599999999999994" fill="rgb(0, 0, 0)" stroke="rgb(189, 189, 189)" stroke-width="1px" opacity="0.25"></line><line x1="0" y1="11.799999999999997" x2="299.21875" y2="11.799999999999997" fill="rgb(0, 0, 0)" stroke="rgb(189, 189, 189)" stroke-width="1px" opacity="0.25"></line><line x1="0" y1="0" x2="299.21875" y2="0" fill="rgb(0, 0, 0)" stroke="rgb(189, 189, 189)" stroke-width="1px" opacity="0.25"></line></g></g></g><g><g><line x1="0" y1="177" x2="299.21875" y2="177" fill="rgb(0, 0, 0)" stroke="rgb(153, 153, 153)" stroke-width="1.5px"></line></g></g><g><g><line x1="24.934895833333332" y1="0" x2="24.934895833333332" y2="177" fill="rgb(0, 0, 0)" stroke="rgb(153, 153, 153)" stroke-width="1.5px"></line></g></g><g><g><g><g><g><path stroke="rgb(0, 119, 187)" stroke-width="2px" d="M34.908854166666664,-3.304102721204364L37.40234375,0.7902275646283434L39.895833333333336,3.517650546764857L42.389322916666664,8.566488447900085L44.8828125,12.443787947330842L47.37630208333333,15.760914514869109L49.869791666666664,17.871918933916152L52.36328125,12.372617192448772L54.85677083333333,9.043135202549946L57.35026041666667,15.752407173267565L59.84375,17.801223620953103L62.337239583333336,21.967820259808903L64.83072916666667,24.094683754622853L67.32421875,26.762964650858684L69.81770833333333,28.85094725301681L72.31119791666667,28.804659905931278L74.8046875,29.16226599232531L77.29817708333334,30.023293474772323L79.79166666666667,27.923850175701517L82.28515625,29.000186711251175L84.77864583333333,29.736624664288247L87.27213541666667,28.534147277395554L89.765625,27.44517665923501L92.25911458333334,28.99680612136132L94.75260416666666,28.860122807025252L97.24609375,31.18418912720481L99.73958333333333,32.552916917154235L102.23307291666667,31.078027346143525L104.7265625,33.952223725720756L107.22005208333333,36.581236807094655L109.71354166666666,38.176105316629794L112.20703125,43.463327200201014L114.70052083333334,49.73327734952374L117.19401041666667,55.14793792640195L119.6875,61.445196638279164L122.18098958333333,71.00993122054562L124.67447916666667,81.55199729211323L127.16796875,93.60816874850134L129.66145833333334,104.68020036271032L132.15494791666666,114.02318743421061L134.6484375,121.70510249428385L137.14192708333331,128.60601680019286L139.63541666666666,133.69638134342875L142.12890625,137.60276840041377L144.62239583333334,140.46418190668084L147.11588541666666,142.57071350498745L149.609375,144.17370848706398L152.10286458333331,145.49420960457132L154.59635416666669,146.35954118556535L157.08984375,147.22214419833963L159.58333333333334,147.84589155669337L162.07682291666666,148.44463093850234L164.5703125,149.14172735079077L167.06380208333334,149.5599863234994L169.55729166666666,150.19503003262508L172.05078125,150.65165518464465L174.54427083333334,151.31508307660712L177.03776041666666,151.8554205048388L179.53125,152.4454565112773L182.02473958333331,152.95280791669987L184.51822916666669,153.46993759006202L187.01171875,153.9629519053098L189.50520833333331,154.5364179460881L191.99869791666669,154.9300314717697L194.4921875,155.25661862213653L196.98567708333334,155.293986355777L199.47916666666666,155.04784281940186L201.97265625,155.5487951272185L204.46614583333334,156.13450350722405L206.95963541666666,156.40529935813387L209.453125,156.92596165452267L211.94661458333334,157.03639109679378L214.44010416666666,157.11672952501962L216.93359375,156.61839979844683L219.42708333333331,156.77877186988232L221.92057291666669,157.59574224027654L224.4140625,158.1997386638681L226.90755208333331,158.93906602051018L229.40104166666669,159.04595017901752L231.89453125,159.21879204077538L234.38802083333334,159.38243084885488L236.88151041666666,159.8550577696431L239.375,160.25106677390747L241.86848958333334,160.35522536860472L244.36197916666666,160.38080388800242L246.85546875,160.58488780078852L249.34895833333334,160.445811821327L251.84244791666666,161.3640776117476L254.3359375,162.00700458287193L256.8294270833333,162.14708760499354L259.3229166666667,162.3934850974047L261.81640625,162.8769088246324L264.3098958333333,162.67645792829384L266.8033854166667,162.7227286330902L269.296875,162.52925737333555L271.7903645833333,162.84052478571093L24.934895833333332,55.1485392671785L24.934895833333332,-8.195472844722227L29.921875,-2.5630521851595836L32.415364583333336,2.9049669982304396L34.908854166666664,8.18377602108179L37.40234375,12.143792910622722L39.895833333333336,17.252959858922463L42.389322916666664,21.268018285958938L44.8828125,24.570799451189625L47.37630208333333,22.49711841888272L49.869791666666664,17.72304232208159L52.36328125,22.294612365294853L54.85677083333333,26.961257241564617L57.35026041666667,30.335124858854783L59.84375,26.406041498564836L62.337239583333336,26.635297109832262L64.83072916666667,28.016841565459895L67.32421875,29.14649844818708L69.81770833333333,31.192511724551878L72.31119791666667,30.32446554608367L74.8046875,30.65652075831425L77.29817708333334,31.264376779939724L79.79166666666667,32.4468313291943L82.28515625,31.25829037161326L84.77864583333333,27.944857111761916L87.27213541666667,30.921359610074745L89.765625,25.973058762260667L92.25911458333334,27.297891119783163L94.75260416666666,28.01096962670387L97.24609375,30.18202924001161L99.73958333333333,32.121641021179805L102.23307291666667,32.77347487760045L104.7265625,33.4766352805642L107.22005208333333,34.1826022620885L109.71354166666666,33.280694551222815L112.20703125,33.19578352150518L114.70052083333334,33.81106264219998L117.19401041666667,37.13313348070573L119.6875,43.47217935905331L122.18098958333333,50.162426038893905L124.67447916666667,57.41037470597794L127.16796875,67.11953193723421L129.66145833333334,77.96919551121748L132.15494791666666,89.0177921022627L134.6484375,99.61501875195822L137.14192708333331,110.02630975886537L139.63541666666666,119.20679625418396L142.12890625,126.69779235211975L144.62239583333334,132.25596503071765L147.11588541666666,136.27049374850262L149.609375,139.531569492052L152.10286458333331,141.7569529791057L154.59635416666669,143.59799333211066L157.08984375,145.1084619843738L159.58333333333334,145.9408761408196L162.07682291666666,146.74112686552203L164.5703125,147.51054033897876L167.06380208333334,148.1013139418516L169.55729166666666,148.5739473540636L172.05078125,149.04496331447672L174.54427083333334,149.5015779223103L177.03776041666666,149.7673699978625L179.53125,150.1931874444267L182.02473958333331,150.64734129966385L184.51822916666669,150.98736500776462L187.01171875,151.34968020460994L189.50520833333331,151.6975103589415L191.99869791666669,152.14449040725944L194.4921875,152.5195909537978L196.98567708333334,152.98265921819848L199.47916666666666,153.3490140184679L201.97265625,153.77070480733624L204.46614583333334,153.98514839976735L206.95963541666666,154.4542533598525L209.453125,154.82999358428611L211.94661458333334,155.18514672430214L214.44010416666666,155.6419306153766L216.93359375,156.0073320695586L219.42708333333331,156.4125442307488L221.92057291666669,156.7463516403017L224.4140625,156.95042002730236L226.90755208333331,157.26095416863362L229.40104166666669,157.4717816514945L231.89453125,157.8763373376832L234.38802083333334,158.2506247426215L236.88151041666666,158.24805323989054L239.375,158.76109652942932L241.86848958333334,158.8321895720155L244.36197916666666,159.12818772087041L246.85546875,159.20083836608856L249.34895833333334,159.1818837207182L251.84244791666666,159.29683436641835L254.3359375,159.9256108718499L256.8294270833333,160.39829680188802L259.3229166666667,160.4780943111438L261.81640625,160.30395196174732L264.3098958333333,160.65234946188423L266.8033854166667,160.8422353111332L269.296875,160.9145519067422L271.7903645833333,161.2442514592156L24.934895833333332,60.29508221708209L27.428385416666664,33.56367324687521L29.921875,19.675726988896617L32.415364583333336,15.351008855691472L34.908854166666664,11.393716046447114L37.40234375,7.097321012755966L39.895833333333336,8.219772307360621L42.389322916666664,11.178489284684927L44.8828125,14.192583530527724L47.37630208333333,18.412792015899658L49.869791666666664,21.248663216131586L52.36328125,25.44280899840453L54.85677083333333,17.30763402269995L57.35026041666667,14.168656722824082L59.84375,17.640850939822396L62.337239583333336,19.555983799977433L64.83072916666667,19.0519678892394L67.32421875,22.190263222557313L69.81770833333333,24.622552785218954L72.31119791666667,25.308433785999554L74.8046875,23.101918410637822L77.29817708333334,21.7032913967245L79.79166666666667,24.075013015524934L82.28515625,26.347264813099137L84.77864583333333,27.460129670330193L87.27213541666667,29.353726270215684L89.765625,31.108368727217293L92.25911458333334,31.811813991457342L94.75260416666666,33.37434585642225L97.24609375,30.999011734434415L99.73958333333333,33.13106490809228L102.23307291666667,31.82650355362L104.7265625,33.92634112753333L107.22005208333333,34.830925678717286L109.71354166666666,35.77809054822156L112.20703125,35.6161681411888L114.70052083333334,37.66377849091443L117.19401041666667,37.66005710309357L119.6875,37.35739114967354L122.18098958333333,37.22845728807073L124.67447916666667,38.07388124234927L127.16796875,38.87620763640076L129.66145833333334,39.0725784484176L132.15494791666666,39.48961419246364L134.6484375,40.780618109594414L137.14192708333331,41.48851956265605L139.63541666666666,41.78071839652917L142.12890625,42.02629915620362L144.62239583333334,41.821021421822756L147.11588541666666,41.97421472076944L149.609375,41.37782137396557L152.10286458333331,42.347075743690866L154.59635416666669,40.01604352665884L157.08984375,40.88361171169842L159.58333333333334,41.22780801823L162.07682291666666,42.2705627558843L164.5703125,43.242256324184886L167.06380208333334,41.37104585688887L169.55729166666666,40.36901858163823L172.05078125,40.64338990874856L174.54427083333334,41.67296372430188L177.03776041666666,42.26111618624128L179.53125,43.74549669233559L182.02473958333331,47.369466365621086L184.51822916666669,52.29891752078866L187.01171875,54.48550819679935L189.50520833333331,56.65688147142436L191.99869791666669,61.36753700968567L194.4921875,65.68078236816491L196.98567708333334,70.61269580029348L199.47916666666666,76.28510698975859L201.97265625,81.58448326886736L204.46614583333334,86.42090251625206L206.95963541666666,92.51054649937527L209.453125,99.52248089187368L211.94661458333334,106.2086435262741L214.44010416666666,113.26900603916536L216.93359375,119.62939819899971L219.42708333333331,125.29400637392862L221.92057291666669,129.8414700665752L224.4140625,133.47690695754764L226.90755208333331,136.5390571155076L229.40104166666669,139.26802495228796L231.89453125,141.81296976034372L234.38802083333334,143.59861418500262L236.88151041666666,145.49827491816708L239.375,147.11361121402282L241.86848958333334,148.41067391911804L244.36197916666666,149.6013110630492L246.85546875,150.2197044654357L249.34895833333334,151.02407464764522L251.84244791666666,152.11861604560616L254.3359375,152.85142314260722L256.8294270833333,153.4141229094596L259.3229166666667,153.7816688216645L261.81640625,154.18367644291632L264.3098958333333,154.63366454685635L266.8033854166667,155.35165017273965L269.296875,155.75681202785339L271.7903645833333,156.18578646407227L24.934895833333332,54.88407746926368L27.428385416666664,30.83184845909727L29.921875,15.614180486591174L32.415364583333336,10.278184653038686L34.908854166666664,7.592540064284151L37.40234375,3.9383719389611156L39.895833333333336,4.4992254033669035L42.389322916666664,6.928101144730108L44.8828125,10.957282287179867L47.37630208333333,9.863324984490554L49.869791666666664,7.778728556978496L52.36328125,12.340793194978115L54.85677083333333,11.698095225458538L57.35026041666667,15.896972522238023L59.84375,17.556848521887733L62.337239583333336,20.921997373020364L64.83072916666667,24.15732249302608L67.32421875,25.64524135042991L69.81770833333333,22.022938801346793L72.31119791666667,21.951576314865704L74.8046875,24.185979129373514L77.29817708333334,22.859237624108488L79.79166666666667,23.1197839074729L82.28515625,25.42117256005991L84.77864583333333,26.812471373560346L87.27213541666667,28.112603978921378L89.765625,28.499239175682877L92.25911458333334,29.732706042030824L94.75260416666666,30.0841222214099L97.24609375,31.11994652315356L99.73958333333333,29.783158938672415L102.23307291666667,30.257446632734688L104.7265625,30.94825193044648L107.22005208333333,32.307139329654596L109.71354166666666,31.925195615615024L112.20703125,32.09139132566784L114.70052083333334,34.31320378343782L117.19401041666667,34.474056074383995L119.6875,35.32927327475735L122.18098958333333,35.2358071441757L124.67447916666667,34.507249362189015L127.16796875,31.884649757694255L129.66145833333334,31.62930372485582L132.15494791666666,32.99892737346332L134.6484375,32.90244114087487L137.14192708333331,33.13637595466652L139.63541666666666,34.752677623581185L142.12890625,35.023296561331335L144.62239583333334,35.38137280374217L147.11588541666666,36.26027013915449L149.609375,37.90139378820461L152.10286458333331,38.27313813754678L154.59635416666669,39.32559316390014L157.08984375,39.821746813257064L159.58333333333334,42.948758003115366L162.07682291666666,47.63044460594636L164.5703125,50.27463990199558L167.06380208333334,55.69692230789657L169.55729166666666,62.27149048190591L172.05078125,68.70505981648729L174.54427083333334,76.32707035186746L177.03776041666666,83.63568866040028L179.53125,90.74674679151606" style="fill: none;" fill="none"></path></g></g></g></g><g opacity="0.2"><g><g><g><path stroke="rgb(0, 119, 187)" stroke-width="2px" d="M27.428385416666664,-8.244423103332508L29.921875,1.3215829849243255L32.415364583333336,1.87879295349122L34.908854166666664,5.579796981811519L37.40234375,6.454160308837892L39.895833333333336,7.417909049987799L42.389322916666664,15.927742576599123L44.8828125,18.16205158233643L47.37630208333333,20.68646087646485L49.869791666666664,21.019278907775877L52.36328125,4.1535915374755845L54.85677083333333,4.059783554077156L57.35026041666667,25.803170967102048L59.84375,20.87203998565675L62.337239583333336,28.214776611328134L64.83072916666667,27.28407897949218L67.32421875,30.764708518981934L69.81770833333333,31.982603073120117L72.31119791666667,28.7352331161499L74.8046875,29.69865550994873L77.29817708333334,31.314806365966803L79.79166666666667,24.774726676940922L82.28515625,30.614678764343253L84.77864583333333,30.8412763595581L87.27213541666667,26.73043632507325L89.765625,25.811723518371572L92.25911458333334,31.32424793243409L94.75260416666666,28.65509796142579L97.24609375,34.67028732299806L99.73958333333333,34.60600814819336L102.23307291666667,28.865693283081058L104.7265625,38.263517951965326L107.22005208333333,40.524756240844724L109.71354166666666,40.56840801239013L112.20703125,51.394159889221186L114.70052083333334,59.13820247650146L117.19401041666667,63.269928741455075L119.6875,70.89108467102051L122.18098958333333,85.3570330619812L124.67447916666667,97.36509637832643L127.16796875,111.6924259185791L129.66145833333334,121.28824777603148L132.15494791666666,128.03766803741456L134.6484375,133.22797508239745L137.14192708333331,138.95738825798034L139.63541666666666,141.3319281578064L142.12890625,143.462348985672L144.62239583333334,144.75630216598512L147.11588541666666,145.73051090240477L149.609375,146.5782009601593L152.10286458333331,147.47496128082275L154.59635416666669,147.65753855705262L157.08984375,148.5160487174988L159.58333333333334,148.78151259422302L162.07682291666666,149.3427400112152L164.5703125,150.18737196922302L167.06380208333334,150.18737478256224L169.55729166666666,151.14759559631347L172.05078125,151.33659291267395L174.54427083333334,152.3102249145508L177.03776041666666,152.66592664718627L179.53125,153.33051052093506L182.02473958333331,153.71383502483368L184.51822916666669,154.2456321001053L187.01171875,154.70247337818145L189.50520833333331,155.39661700725554L191.99869791666669,155.52045176029205L194.4921875,155.74649934768678L196.98567708333334,155.3500379562378L199.47916666666666,154.67862751483918L201.97265625,156.30022358894348L204.46614583333334,157.01306607723237L206.95963541666666,156.8114931344986L209.453125,157.70695509910584L211.94661458333334,157.2020352602005L214.44010416666666,157.2372371673584L216.93359375,155.87090520858766L219.42708333333331,157.0193299770355L221.92057291666669,158.82119779586793L224.4140625,159.10573329925538L226.90755208333331,160.04805705547332L229.40104166666669,159.20627641677856L231.89453125,159.47805483341216L234.38802083333334,159.62788906097413L236.88151041666666,160.5639981508255L239.375,160.84508028030396L241.86848958333334,160.51146326065063L244.36197916666666,160.419171667099L246.85546875,160.89101366996766L249.34895833333334,160.2371978521347L251.84244791666666,162.74147629737854L254.3359375,162.97139503955842L256.8294270833333,162.35721213817595L259.3229166666667,162.76308133602143L261.81640625,163.60204441547393L264.3098958333333,162.37578158378602L266.8033854166667,162.79213469028474L269.296875,162.2390504837036L271.7903645833333,163.307425904274L24.934895833333332,-106.38943901062012L27.428385416666664,-5.816972732543959L29.921875,4.458478736877432L32.415364583333336,11.106995773315425L34.908854166666664,16.101989555358877L37.40234375,18.083818244934086L39.895833333333336,24.91671028137207L42.389322916666664,27.290605926513678L44.8828125,29.52497119903564L47.37630208333333,19.386596870422373L49.869791666666664,10.561928176879881L52.36328125,29.151967430114752L54.85677083333333,33.96122455596923L57.35026041666667,35.395926284790036L59.84375,20.51241645812989L62.337239583333336,26.9791805267334L64.83072916666667,30.08915824890137L67.32421875,30.840983772277838L69.81770833333333,34.26153163909911L72.31119791666667,29.022396278381358L74.8046875,31.154603576660165L77.29817708333334,32.17616081237792L79.79166666666667,34.22051315307616L82.28515625,29.475478935241703L84.77864583333333,22.974707221984872L87.27213541666667,35.38611335754395L89.765625,18.55060749053954L92.25911458333334,29.285139656066903L94.75260416666666,29.08058738708496L97.24609375,33.43861865997314L99.73958333333333,35.03105869293213L102.23307291666667,33.75122566223144L104.7265625,34.53137588500977L107.22005208333333,35.241552734375L109.71354166666666,31.927832984924315L112.20703125,33.06841697692871L114.70052083333334,34.73398132324218L117.19401041666667,42.116239738464365L119.6875,52.980748176574714L122.18098958333333,60.197796058654795L124.67447916666667,68.282297706604L127.16796875,81.68326778411866L129.66145833333334,94.24369087219239L132.15494791666666,105.59068698883057L134.6484375,115.51085872650147L137.14192708333331,125.64324626922607L139.63541666666666,132.97752599716188L142.12890625,137.93428649902344L144.62239583333334,140.5932240486145L147.11588541666666,142.29228682518004L149.609375,144.4231831073761L152.10286458333331,145.0950282096863L154.59635416666669,146.35955386161805L157.08984375,147.37416496276856L159.58333333333334,147.1894973754883L162.07682291666666,147.9415029525757L164.5703125,148.6646605491638L167.06380208333334,148.9874743461609L169.55729166666666,149.2828974723816L172.05078125,149.75148725509644L174.54427083333334,150.18649983406067L177.03776041666666,150.1660581111908L179.53125,150.83191361427308L182.02473958333331,151.32857208251954L184.51822916666669,151.49740056991578L187.01171875,151.89315299987794L189.50520833333331,152.21925559043885L191.99869791666669,152.81496047973633L194.4921875,153.08224177360535L196.98567708333334,153.6772616147995L199.47916666666666,153.89854621887207L201.97265625,154.40324099063872L204.46614583333334,154.306813788414L206.95963541666666,155.15791079998016L209.453125,155.39360392093658L211.94661458333334,155.71787643432617L214.44010416666666,156.32710645198821L216.93359375,156.5554342508316L219.42708333333331,157.02036247253417L221.92057291666669,157.24706275463103L224.4140625,157.25652260780333L226.90755208333331,157.7267553806305L229.40104166666669,157.78802287578583L231.89453125,158.48317086696625L234.38802083333334,158.812055850029L236.88151041666666,158.24419598579408L239.375,159.5306614637375L241.86848958333334,158.93882913589476L244.36197916666666,159.57218494415284L246.85546875,159.3098143339157L249.34895833333334,159.15345175266265L251.84244791666666,159.46926033496857L254.3359375,160.86877562999726L256.8294270833333,161.1073256969452L259.3229166666667,160.59779057502746L261.81640625,160.0427384376526L264.3098958333333,161.17494571208954L266.8033854166667,161.1270640850067L269.296875,161.02302680015563L271.7903645833333,161.73880078792573L24.934895833333332,-91.12867164611818L29.921875,-1.1561923980712707L32.415364583333336,8.863931655883796L34.908854166666664,5.457776832580557L37.40234375,0.6527284622192435L39.895833333333336,9.903449249267574L42.389322916666664,15.616564750671387L44.8828125,18.71372489929199L47.37630208333333,24.743104743957517L49.869791666666664,25.502470016479485L52.36328125,31.73402767181397L54.85677083333333,5.104871559143064L57.35026041666667,9.460190773010247L59.84375,22.849142265319827L62.337239583333336,22.428683090209958L64.83072916666667,18.29594402313232L67.32421875,26.89770622253419L69.81770833333333,28.270987129211434L72.31119791666667,26.337255287170407L74.8046875,19.792145347595223L77.29817708333334,19.605350875854484L79.79166666666667,27.63259544372559L82.28515625,29.755642509460444L84.77864583333333,29.129426956176765L87.27213541666667,32.19412117004394L89.765625,33.740332412719724L92.25911458333334,32.866981887817374L94.75260416666666,35.71814365386963L97.24609375,27.436010551452647L99.73958333333333,36.3291446685791L102.23307291666667,29.869661521911617L104.7265625,37.07609748840331L107.22005208333333,36.187802505493174L109.71354166666666,37.198837852478036L112.20703125,35.37328453063965L114.70052083333334,40.73519401550292L117.19401041666667,37.6544750213623L119.6875,36.903392219543456L122.18098958333333,37.0350564956665L124.67447916666667,39.3420171737671L127.16796875,40.07969722747803L129.66145833333334,39.367134666442865L132.15494791666666,40.11516780853271L134.6484375,42.71712398529053L137.14192708333331,42.55037174224853L139.63541666666666,42.21901664733886L142.12890625,42.39467029571532L144.62239583333334,41.513104820251456L147.11588541666666,42.204004669189445L149.609375,40.48323135375976L152.10286458333331,43.80095729827882L154.59635416666669,36.51949520111085L157.08984375,42.18496398925782L159.58333333333334,41.74410247802734L162.07682291666666,43.834694862365716L164.5703125,44.699796676635735L167.06380208333334,38.56423015594482L169.55729166666666,38.8659776687622L172.05078125,41.05494689941406L174.54427083333334,43.217324447631846L177.03776041666666,43.14334487915039L179.53125,45.97206745147706L182.02473958333331,52.80542087554931L184.51822916666669,59.693094253540046L187.01171875,57.76539421081544L189.50520833333331,59.91394138336181L191.99869791666669,68.43352031707764L194.4921875,72.1506504058838L196.98567708333334,78.01056594848633L199.47916666666666,84.7937237739563L201.97265625,89.53354768753051L204.46614583333334,93.67553138732912L206.95963541666666,101.64501247406005L209.453125,110.04038248062133L211.94661458333334,116.23788747787475L214.44010416666666,123.8595498085022L216.93359375,129.1699864387512L219.42708333333331,133.79091863632203L221.92057291666669,136.66266560554504L224.4140625,138.93006229400635L226.90755208333331,141.1322823524475L229.40104166666669,143.3614767074585L231.89453125,145.63038697242737L234.38802083333334,146.27708082199098L236.88151041666666,148.3477660179138L239.375,149.5366156578064L241.86848958333334,150.35626797676088L244.36197916666666,151.38726677894593L246.85546875,151.14729456901551L249.34895833333334,152.23062992095947L251.84244791666666,153.7604281425476L254.3359375,153.95063378810883L256.8294270833333,154.25817255973817L259.3229166666667,154.33298768997193L261.81640625,154.786687874794L264.3098958333333,155.30864670276642L266.8033854166667,156.42862861156465L269.296875,156.364554810524L271.7903645833333,156.82924811840059L24.934895833333332,-97.06848602294922L29.921875,-7.212321472167972L32.415364583333336,2.2741909027099543L34.908854166666664,3.5640731811523385L37.40234375,-1.542880249023427L39.895833333333336,5.340505599975586L42.389322916666664,10.571414756774892L44.8828125,17.001054000854495L47.37630208333333,8.222389030456533L49.869791666666664,4.651833915710442L52.36328125,19.183890151977543L54.85677083333333,10.73404827117919L57.35026041666667,22.19528846740723L59.84375,20.0466625213623L62.337239583333336,25.96972064971923L64.83072916666667,29.01031017303466L67.32421875,27.877119636535646L69.81770833333333,16.589484977722158L72.31119791666667,21.844532585144044L74.8046875,27.537583351135254L77.29817708333334,20.869125366210938L79.79166666666667,23.51060333251953L82.28515625,28.87325553894042L84.77864583333333,28.899419593811025L87.27213541666667,30.0628028869629L89.765625,29.079191970825185L92.25911458333334,31.58290634155273L94.75260416666666,30.61124649047852L97.24609375,32.67368297576904L99.73958333333333,27.777977561950678L102.23307291666667,30.968878173828124L104.7265625,31.98445987701416L107.22005208333333,34.3454704284668L109.71354166666666,31.35228004455567L112.20703125,32.34068489074708L114.70052083333334,37.64592247009278L117.19401041666667,34.71533451080322L119.6875,36.61209907531739L122.18098958333333,35.095607948303225L124.67447916666667,33.414412689208994L127.16796875,27.95075035095214L129.66145833333334,31.246284675598147L132.15494791666666,35.053362846374505L134.6484375,32.75771179199219L137.14192708333331,33.48727817535401L139.63541666666666,37.17713012695312L142.12890625,35.42922496795655L144.62239583333334,35.91848716735841L147.11588541666666,37.57861614227294L149.609375,40.363079261779795L152.10286458333331,38.83075466156006L154.59635416666669,40.90427570343018L157.08984375,40.56597728729249L159.58333333333334,47.63927478790283L162.07682291666666,54.65297451019288L164.5703125,54.24093284606934L167.06380208333334,63.830345916748044L169.55729166666666,72.13334274291992L172.05078125,78.35541381835938L174.54427083333334,87.76008615493774L177.03776041666666,94.59861612319948L179.53125,101.41333398818969" style="fill: none;" fill="none"></path></g></g></g></g></g></g><g transform="translate(30, 177)" clip-path="url(#clip_1)"><clipPath id="clip_1"><rect width="299" height="22"></rect></clipPath><g><g><line x1="0" y1="0" x2="0" y2="5" style="visibility: inherit;" fill="rgb(0, 0, 0)" stroke="rgb(204, 204, 204)" stroke-width="1px"></line><line x1="24.934895833333332" y1="0" x2="24.934895833333332" y2="5" style="visibility: inherit;" fill="rgb(0, 0, 0)" stroke="rgb(204, 204, 204)" stroke-width="1px"></line><line x1="49.869791666666664" y1="0" x2="49.869791666666664" y2="5" style="visibility: inherit;" fill="rgb(0, 0, 0)" stroke="rgb(204, 204, 204)" stroke-width="1px"></line><line x1="74.8046875" y1="0" x2="74.8046875" y2="5" style="visibility: inherit;" fill="rgb(0, 0, 0)" stroke="rgb(204, 204, 204)" stroke-width="1px"></line><line x1="99.73958333333333" y1="0" x2="99.73958333333333" y2="5" style="visibility: inherit;" fill="rgb(0, 0, 0)" stroke="rgb(204, 204, 204)" stroke-width="1px"></line><line x1="124.67447916666667" y1="0" x2="124.67447916666667" y2="5" style="visibility: inherit;" fill="rgb(0, 0, 0)" stroke="rgb(204, 204, 204)" stroke-width="1px"></line><line x1="149.609375" y1="0" x2="149.609375" y2="5" style="visibility: inherit;" fill="rgb(0, 0, 0)" stroke="rgb(204, 204, 204)" stroke-width="1px"></line><line x1="174.54427083333334" y1="0" x2="174.54427083333334" y2="5" style="visibility: inherit;" fill="rgb(0, 0, 0)" stroke="rgb(204, 204, 204)" stroke-width="1px"></line><line x1="199.47916666666666" y1="0" x2="199.47916666666666" y2="5" style="visibility: inherit;" fill="rgb(0, 0, 0)" stroke="rgb(204, 204, 204)" stroke-width="1px"></line><line x1="224.4140625" y1="0" x2="224.4140625" y2="5" style="visibility: inherit;" fill="rgb(0, 0, 0)" stroke="rgb(204, 204, 204)" stroke-width="1px"></line><line x1="249.34895833333334" y1="0" x2="249.34895833333334" y2="5" style="visibility: inherit;" fill="rgb(0, 0, 0)" stroke="rgb(204, 204, 204)" stroke-width="1px"></line><line x1="274.28385416666663" y1="0" x2="274.28385416666663" y2="5" style="visibility: inherit;" fill="rgb(0, 0, 0)" stroke="rgb(204, 204, 204)" stroke-width="1px"></line><line x1="299.21875" y1="0" x2="299.21875" y2="5" style="visibility: inherit;" fill="rgb(0, 0, 0)" stroke="rgb(204, 204, 204)" stroke-width="1px"></line></g><g transform="translate(0, 8)"><text x="0" y="0" dx="0em" dy="0.95em" style="text-anchor: middle; visibility: hidden; font-family: Roboto, sans-serif; font-size: 12px; font-weight: 200;" fill="rgb(255, 255, 255)" stroke="none" stroke-width="1px">-10</text><text x="24.934895833333332" y="0" dx="0em" dy="0.95em" style="text-anchor: middle; visibility: inherit; font-family: Roboto, sans-serif; font-size: 12px; font-weight: 200;" fill="rgb(255, 255, 255)" stroke="none" stroke-width="1px">0</text><text x="49.869791666666664" y="0" dx="0em" dy="0.95em" style="text-anchor: middle; visibility: inherit; font-family: Roboto, sans-serif; font-size: 12px; font-weight: 200;" fill="rgb(255, 255, 255)" stroke="none" stroke-width="1px">10</text><text x="74.8046875" y="0" dx="0em" dy="0.95em" style="text-anchor: middle; visibility: inherit; font-family: Roboto, sans-serif; font-size: 12px; font-weight: 200;" fill="rgb(255, 255, 255)" stroke="none" stroke-width="1px">20</text><text x="99.73958333333333" y="0" dx="0em" dy="0.95em" style="text-anchor: middle; visibility: inherit; font-family: Roboto, sans-serif; font-size: 12px; font-weight: 200;" fill="rgb(255, 255, 255)" stroke="none" stroke-width="1px">30</text><text x="124.67447916666667" y="0" dx="0em" dy="0.95em" style="text-anchor: middle; visibility: inherit; font-family: Roboto, sans-serif; font-size: 12px; font-weight: 200;" fill="rgb(255, 255, 255)" stroke="none" stroke-width="1px">40</text><text x="149.609375" y="0" dx="0em" dy="0.95em" style="text-anchor: middle; visibility: inherit; font-family: Roboto, sans-serif; font-size: 12px; font-weight: 200;" fill="rgb(255, 255, 255)" stroke="none" stroke-width="1px">50</text><text x="174.54427083333334" y="0" dx="0em" dy="0.95em" style="text-anchor: middle; visibility: inherit; font-family: Roboto, sans-serif; font-size: 12px; font-weight: 200;" fill="rgb(255, 255, 255)" stroke="none" stroke-width="1px">60</text><text x="199.47916666666666" y="0" dx="0em" dy="0.95em" style="text-anchor: middle; visibility: inherit; font-family: Roboto, sans-serif; font-size: 12px; font-weight: 200;" fill="rgb(255, 255, 255)" stroke="none" stroke-width="1px">70</text><text x="224.4140625" y="0" dx="0em" dy="0.95em" style="text-anchor: middle; visibility: inherit; font-family: Roboto, sans-serif; font-size: 12px; font-weight: 200;" fill="rgb(255, 255, 255)" stroke="none" stroke-width="1px">80</text><text x="249.34895833333334" y="0" dx="0em" dy="0.95em" style="text-anchor: middle; visibility: inherit; font-family: Roboto, sans-serif; font-size: 12px; font-weight: 200;" fill="rgb(255, 255, 255)" stroke="none" stroke-width="1px">90</text><text x="274.28385416666663" y="0" dx="0em" dy="0.95em" style="text-anchor: middle; visibility: inherit; font-family: Roboto, sans-serif; font-size: 12px; font-weight: 200;" fill="rgb(255, 255, 255)" stroke="none" stroke-width="1px">100</text><text x="299.21875" y="0" dx="0em" dy="0.95em" style="text-anchor: middle; visibility: hidden; font-family: Roboto, sans-serif; font-size: 12px; font-weight: 200;" fill="rgb(255, 255, 255)" stroke="none" stroke-width="1px">110</text></g><line x1="0" y1="0" x2="299.21875" y2="0" fill="rgb(0, 0, 0)" stroke="rgb(204, 204, 204)" stroke-width="1px"></line></g></g></g></g></svg>